<?xml version="1.0" standalone="no"?>
<!DOCTYPE svg PUBLIC "-//W3C//DTD SVG 1.1//EN" "http://www.w3.org/Graphics/SVG/1.1/DTD/svg11.dtd" >
<svg xmlns="http://www.w3.org/2000/svg" xmlns:xlink="http://www.w3.org/1999/xlink" version="1.1">
<metadata>
Created by FontForge 20160405 at Wed Jul 26 11:49:40 2017
 By www-data
Copyright \(c\) 2015 by DearType, Veneta Rangelova. All rights reserved.
</metadata>
<defs>
<font id="Lifehack-Medium" horiz-adv-x="0" >
  <font-face 
    font-family="Lifehack Medium"
    font-weight="500"
    font-stretch="normal"
    units-per-em="1000"
    panose-1="0 0 6 0 0 0 0 0 0 0"
    ascent="730"
    descent="-270"
    x-height="444"
    cap-height="800"
    bbox="-658 -469 2342 1083"
    underline-thickness="50"
    underline-position="-100"
    unicode-range="U+0020-FB02"
  />
<missing-glyph horiz-adv-x="500" 
d="M410 730v-1000h-317v1000h317zM333 663h-165v-33h65v-37h-66v-33h166v33h-66v37h66v33zM267 534h-100v-104h166v34h-66v70zM233 500v-36h-33v36h33zM333 403h-166v-33h66v-37h-66v-33h100v70h66v33zM333 343h-33v-66h-133v-34h166v100zM333 221h-100v-56h34v23h33v-47
h-100v80h-33v-113h166v113zM333 48h-166v-113h166v113zM300 15v-47h-100v47h100zM333 -88h-166v-33h70l-70 -47v-33h166v33h-102l70 47h32v33z" />
    <glyph glyph-name="fi" unicode="fi" horiz-adv-x="560" 
d="M414 381c47 0 72 -24 72 -76c0 -95 -6 -173 -6 -297c-18 -12 -33 -19 -53 -19c-57 0 -64 48 -64 136c0 42 3 90 4 146c-28 -33 -69 -53 -114 -53c-12 0 -22 1 -32 5c27 -36 39 -101 39 -171c0 -136 -46 -293 -133 -293c-106 0 -126 232 -126 408c0 189 23 530 156 530
c28 0 53 -16 73 -52c-7 -82 -53 -194 -99 -244c0 -29 0 -52 -1 -75c38 -33 81 -58 130 -58c66 0 96 46 106 107c17 3 31 6 48 6zM419 417c-39 0 -54 57 -54 83c0 35 44 47 73 47c40 0 57 -30 57 -55c0 -35 -46 -75 -76 -75zM143 -144c17 0 59 99 59 220
c0 62 -11 134 -74 174c0 -31 -1 -70 -1 -124c-1 -179 -1 -270 16 -270z" />
    <glyph glyph-name="fl" unicode="fl" horiz-adv-x="770" 
d="M801 332c21 1 34 -11 34 -30c0 -37 -177 -294 -328 -294c-96 0 -144 111 -150 246c-27 -30 -63 -43 -104 -43c-9 0 -18 1 -27 4c23 -38 34 -98 34 -163c0 -136 -46 -293 -133 -293c-106 0 -126 232 -126 408c0 189 23 530 156 530c28 0 53 -16 73 -52
c-7 -82 -53 -194 -99 -244c0 -29 0 -51 -1 -75c40 -33 86 -58 136 -58c69 0 86 64 100 129c30 167 123 310 209 310c45 0 70 -39 70 -82c0 -107 -90 -270 -160 -396c7 -79 29 -137 72 -137c77 0 218 198 244 240zM570 644c-39 0 -74 -165 -84 -290c54 98 94 214 94 272
c0 12 -3 18 -10 18zM143 -144c17 0 59 99 59 220c0 62 -11 134 -74 174c0 -31 -1 -70 -1 -124c-1 -179 -1 -270 16 -270z" />
    <glyph glyph-name="a_z.liga" unicode="az" horiz-adv-x="1105" 
d="M1160 281c-40 -9 -126 -37 -265 -128c12 -23 20 -49 20 -80c0 -164 -171 -323 -293 -323c-46 0 -79 24 -79 81c0 74 85 200 222 309c-21 37 -66 57 -130 69c-13 22 -10 38 10 52c81 54 107 94 107 113c0 8 -4 12 -12 12c-26 0 -67 -6 -104 -6c-13 0 -26 1 -36 3
c-50 -161 -151 -295 -253 -295c-50 0 -67 45 -72 77c-28 -77 -106 -131 -170 -131c-74 0 -128 60 -128 142c0 138 106 272 244 272c76 0 135 -59 146 -102c-11 -50 -16 -89 -16 -118c0 -42 12 -62 33 -62c34 0 126 102 166 238c-12 10 -21 26 -21 47c0 52 41 77 77 77
c19 0 43 -8 43 -22c0 -15 -4 -30 -15 -49c19 -2 39 -2 58 -2h52c69 0 116 -27 116 -74c0 -36 -38 -87 -101 -124c28 -4 66 -22 98 -53c86 54 209 118 267 118c32 0 36 -21 36 -41zM127 137c57 0 122 157 133 221c-6 16 -17 28 -33 28c-54 0 -122 -138 -122 -205
c0 -20 7 -44 22 -44zM627 -182c34 0 154 128 154 248v3c-99 -84 -168 -179 -169 -232c0 -12 4 -19 15 -19z" />
    <glyph glyph-name="a_z_z.liga" unicode="azz" horiz-adv-x="1551" 
d="M1628 281c-40 -9 -126 -37 -265 -128c12 -23 20 -49 20 -80c0 -164 -171 -323 -293 -323c-46 0 -79 24 -79 81c0 74 85 200 222 309c-21 37 -66 57 -130 69c-13 22 -10 38 10 52c81 54 107 94 107 113c0 8 -4 12 -12 12c-26 0 -67 -6 -104 -6c-12 0 -24 1 -34 3
c-41 -89 -89 -150 -186 -227c12 -24 20 -51 21 -83c0 -164 -171 -323 -293 -323c-46 0 -79 24 -79 81c0 74 86 200 223 309c-22 37 -66 56 -131 69c-13 22 -10 38 10 52c81 54 107 94 107 113c0 8 -4 12 -12 12c-26 0 -67 -6 -104 -6c-10 0 -19 1 -27 2
c-49 -161 -151 -294 -252 -294c-50 0 -67 45 -72 77c-28 -77 -106 -131 -170 -131c-74 0 -128 60 -128 142c0 138 106 272 244 272c76 0 135 -59 146 -102c-11 -50 -16 -89 -16 -118c0 -42 12 -62 33 -62c34 0 124 100 164 233c-16 9 -29 26 -29 52c0 52 41 77 77 77
c19 0 43 -8 43 -22c0 -15 -4 -30 -15 -49c19 -2 39 -2 58 -2h52c69 0 116 -27 116 -74c0 -36 -38 -87 -101 -124c28 -4 65 -21 96 -50c59 45 123 107 169 201c-10 10 -17 24 -17 43c0 52 41 77 77 77c19 0 43 -8 43 -22c0 -15 -4 -30 -15 -49c19 -2 39 -2 58 -2h52
c69 0 116 -27 116 -74c0 -36 -38 -87 -101 -124c28 -4 66 -22 98 -53c86 54 209 118 267 118c32 0 36 -21 36 -41zM127 137c57 0 122 157 133 221c-6 16 -17 28 -33 28c-54 0 -122 -138 -122 -205c0 -20 7 -44 22 -44zM617 -182c34 0 154 128 154 248v4
c-99 -85 -168 -180 -169 -233c0 -12 4 -19 15 -19zM1095 -182c34 0 154 128 154 248v3c-99 -84 -168 -179 -169 -232c0 -12 4 -19 15 -19z" />
    <glyph glyph-name="b_z.liga" unicode="bz" horiz-adv-x="1074" 
d="M1160 281c-40 -9 -126 -37 -265 -128c12 -23 20 -49 20 -80c0 -164 -171 -323 -293 -323c-46 0 -79 24 -79 81c0 74 85 200 222 309c-21 37 -66 57 -130 69c-13 22 -10 38 10 52c81 54 107 94 107 113c0 8 -4 12 -12 12c-26 0 -67 -6 -104 -6c-12 0 -23 1 -33 2
c-35 -100 -115 -224 -205 -247c-31 -95 -103 -186 -196 -186c-131 0 -199 106 -199 293c0 60 3 134 22 217c40 177 134 238 198 238c42 0 76 -25 76 -79c0 -29 -7 -68 -24 -122c-39 -123 -96 -209 -140 -263c10 -98 40 -186 84 -186c37 0 71 43 93 93c-63 20 -99 73 -99 116
c0 44 53 98 117 98c55 0 84 -56 84 -122c0 -8 0 -16 -1 -24c55 28 105 111 142 193c-15 9 -26 26 -26 50c0 52 41 77 77 77c19 0 43 -8 43 -22c0 -15 -4 -30 -15 -49c19 -2 39 -2 58 -2h52c69 0 116 -27 116 -74c0 -36 -38 -87 -101 -124c28 -4 66 -22 98 -53
c86 54 209 118 267 118c32 0 36 -21 36 -41zM213 595c-46 0 -79 -173 -82 -275c51 79 98 184 98 251c0 17 -7 24 -16 24zM281 267c0 -26 15 -52 51 -63c3 15 5 30 5 43c0 35 -12 56 -25 56c-11 0 -31 -17 -31 -36zM627 -182c34 0 154 128 154 248v3
c-99 -84 -168 -179 -169 -232c0 -12 4 -19 15 -19z" />
    <glyph glyph-name="c_z.liga" unicode="cz" horiz-adv-x="1051" 
d="M1138 281c-40 -9 -126 -37 -265 -128c12 -23 20 -49 20 -80c0 -164 -171 -323 -293 -323c-46 0 -79 24 -79 81c0 74 85 200 222 309c-21 37 -66 57 -130 69c-13 22 -10 38 10 52c81 54 107 94 107 113c0 8 -4 12 -12 12c-26 0 -67 -6 -104 -6c-14 0 -26 1 -37 3
c-56 -138 -211 -360 -384 -360c-137 0 -196 95 -196 196c0 112 73 230 211 230c76 0 138 -48 138 -87c0 -22 -17 -36 -56 -53c-24 41 -46 63 -73 63c-58 0 -87 -74 -87 -141s29 -132 99 -132c110 0 226 158 302 303c-14 10 -24 26 -24 49c0 52 41 77 77 77
c19 0 43 -8 43 -22c0 -15 -4 -30 -15 -49c19 -2 39 -2 58 -2h52c69 0 116 -27 116 -74c0 -36 -38 -87 -101 -124c28 -4 66 -22 98 -53c86 54 209 118 267 118c32 0 36 -21 36 -41zM605 -182c34 0 154 128 154 248v3c-99 -84 -168 -179 -169 -232c0 -12 4 -19 15 -19z" />
    <glyph glyph-name="d_d.liga" unicode="dd" horiz-adv-x="1122" 
d="M1151 337c24 -4 38 -20 38 -35c0 -45 -114 -274 -248 -274c-64 0 -102 45 -124 104c-25 -53 -71 -95 -141 -95c-55 0 -96 24 -123 61c-31 -57 -80 -104 -149 -104c-63 0 -99 52 -119 118c-26 -57 -71 -109 -135 -109c-219 0 -210 416 -1 416c40 0 79 -16 111 -47v17
c0 191 23 309 105 309c22 0 40 -12 63 -35c-35 -98 -55 -213 -55 -315c0 -68 0 -275 72 -275c32 0 60 42 80 82c-34 112 18 264 150 264c40 0 79 -16 111 -47v17c0 191 20 309 102 309c22 0 40 -12 63 -35c-35 -98 -52 -213 -52 -315c0 -156 28 -240 75 -240
c73 0 148 166 177 229zM702 119c33 0 74 50 83 161c-17 33 -38 60 -75 60s-64 -48 -64 -117c0 -76 27 -104 56 -104zM176 85c33 0 74 72 83 192c-17 31 -38 56 -75 56s-64 -41 -64 -110c0 -76 27 -138 56 -138z" />
    <glyph glyph-name="d_z.liga" unicode="dz" horiz-adv-x="1145" 
d="M1231 281c-40 -9 -126 -37 -265 -128c12 -23 20 -49 20 -80c0 -164 -171 -323 -293 -323c-46 0 -79 24 -79 81c0 74 85 200 222 309c-21 37 -66 57 -130 69c-13 22 -10 38 10 52c81 54 107 94 107 113c0 8 -4 12 -12 12c-26 0 -67 -6 -104 -6c-10 0 -19 1 -27 2
c-58 -183 -145 -354 -265 -354c-64 0 -102 45 -124 104c-25 -53 -71 -95 -141 -95c-219 0 -210 382 -1 382c40 0 79 -16 111 -47v17c0 191 20 309 102 309c22 0 40 -12 63 -35c-35 -98 -52 -213 -52 -315c0 -156 28 -240 75 -240c60 0 134 156 184 289c-18 9 -32 27 -32 54
c0 52 41 77 77 77c19 0 43 -8 43 -22c0 -15 -4 -30 -15 -49c19 -2 39 -2 58 -2h52c69 0 116 -27 116 -74c0 -36 -38 -87 -101 -124c28 -4 66 -22 98 -53c86 54 209 118 267 118c32 0 36 -21 36 -41zM176 119c33 0 74 50 83 161c-17 33 -38 60 -75 60s-64 -48 -64 -117
c0 -76 27 -104 56 -104zM698 -182c34 0 154 128 154 248v3c-99 -84 -168 -179 -169 -232c0 -12 4 -19 15 -19z" />
    <glyph glyph-name="e_z.liga" unicode="ez" horiz-adv-x="1056" 
d="M1142 281c-40 -9 -126 -37 -265 -128c12 -23 20 -49 20 -80c0 -164 -171 -323 -293 -323c-46 0 -79 24 -79 81c0 74 85 200 222 309c-21 37 -66 57 -130 69c-13 22 -10 38 10 52c81 54 107 94 107 113c0 8 -4 12 -12 12c-26 0 -67 -6 -104 -6c-9 0 -18 1 -26 2
c-60 -167 -213 -366 -367 -366c-135 0 -222 106 -222 230c0 114 69 232 180 232c73 0 111 -50 111 -126c0 -89 -68 -154 -126 -194c22 -35 55 -55 94 -55c95 0 213 136 278 295c-16 10 -29 27 -29 53c0 52 41 77 77 77c19 0 43 -8 43 -22c0 -15 -4 -30 -15 -49
c19 -2 39 -2 58 -2h52c69 0 116 -27 116 -74c0 -36 -38 -87 -101 -124c28 -4 66 -22 98 -53c86 54 209 118 267 118c32 0 36 -21 36 -41zM189 398c-23 0 -54 -37 -54 -106c0 -27 3 -51 8 -73c40 38 75 82 75 137c0 32 -16 42 -29 42zM609 -182c34 0 154 128 154 248v3
c-99 -84 -168 -179 -169 -232c0 -12 4 -19 15 -19z" />
    <glyph glyph-name="e_z_z.liga" unicode="ezz" horiz-adv-x="1535" 
d="M1621 281c-40 -9 -126 -37 -265 -128c12 -23 20 -49 20 -80c0 -164 -171 -323 -293 -323c-46 0 -79 24 -79 81c0 74 85 200 222 309c-21 37 -66 57 -130 69c-13 22 -10 38 10 52c81 54 107 94 107 113c0 8 -4 12 -12 12c-26 0 -67 -6 -104 -6c-12 0 -24 1 -34 3
c-41 -89 -89 -150 -186 -227c12 -24 20 -51 21 -83c0 -164 -171 -323 -293 -323c-46 0 -79 24 -79 81c0 74 86 200 223 309c-22 37 -66 56 -131 69c-13 22 -10 38 10 52c81 54 107 94 107 113c0 8 -4 12 -12 12c-26 0 -67 -6 -104 -6c-10 0 -19 1 -27 2
c-60 -167 -213 -366 -367 -366c-135 0 -222 106 -222 230c0 114 69 232 180 232c73 0 111 -50 111 -126c0 -89 -68 -154 -126 -194c22 -35 55 -55 94 -55c95 0 213 137 279 296c-16 10 -29 26 -29 52c0 52 41 77 77 77c19 0 43 -8 43 -22c0 -15 -4 -30 -15 -49
c19 -2 39 -2 58 -2h52c69 0 116 -27 116 -74c0 -36 -38 -87 -101 -124c28 -4 65 -21 96 -50c59 45 123 107 169 201c-10 10 -17 24 -17 43c0 52 41 77 77 77c19 0 43 -8 43 -22c0 -15 -4 -30 -15 -49c19 -2 39 -2 58 -2h52c69 0 116 -27 116 -74c0 -36 -38 -87 -101 -124
c28 -4 66 -22 98 -53c86 54 209 118 267 118c32 0 36 -21 36 -41zM189 398c-23 0 -54 -37 -54 -106c0 -27 3 -51 8 -73c40 38 75 82 75 137c0 32 -16 42 -29 42zM610 -182c34 0 154 128 154 248v4c-99 -85 -168 -180 -169 -233c0 -12 4 -19 15 -19zM1088 -182
c34 0 154 128 154 248v3c-99 -84 -168 -179 -169 -232c0 -12 4 -19 15 -19z" />
    <glyph glyph-name="f_z.liga" unicode="fz" horiz-adv-x="943" 
d="M1031 281c-40 -9 -126 -37 -265 -128c12 -23 20 -49 20 -80c0 -164 -171 -323 -293 -323c-46 0 -79 24 -79 81c0 74 85 200 222 309c-21 37 -66 57 -130 69c-13 22 -10 38 10 52c81 54 107 94 107 113c0 8 -4 12 -12 12c-26 0 -67 -6 -104 -6c-12 0 -24 1 -34 3
c-37 -90 -107 -163 -210 -163c-14 0 -30 2 -46 7c30 -35 43 -102 43 -175c0 -136 -46 -293 -133 -293c-106 0 -126 232 -126 408c0 189 23 530 156 530c28 0 53 -16 73 -52c-7 -82 -53 -194 -99 -244c0 -29 0 -52 -1 -76c45 -29 92 -48 147 -48c63 0 114 46 151 122
c-16 10 -28 27 -28 52c0 52 41 77 77 77c19 0 43 -8 43 -22c0 -15 -4 -30 -15 -49c19 -2 39 -2 58 -2h52c69 0 116 -27 116 -74c0 -36 -38 -87 -101 -124c28 -4 66 -22 98 -53c86 54 209 118 267 118c32 0 36 -21 36 -41zM143 -144c17 0 59 99 59 220c0 62 -11 134 -74 174
c0 -31 -1 -70 -1 -124c-1 -179 -1 -270 16 -270zM498 -182c34 0 154 128 154 248v3c-99 -84 -168 -179 -169 -232c0 -12 4 -19 15 -19z" />
    <glyph glyph-name="g_z.liga" unicode="gz" horiz-adv-x="1008" 
d="M1099 281c-40 -9 -126 -37 -265 -128c12 -23 20 -49 20 -80c0 -164 -171 -323 -293 -323c-46 0 -79 24 -79 81c0 74 85 200 222 309c-21 37 -66 57 -130 69c-13 22 -10 38 10 52c81 54 107 94 107 113c0 8 -4 12 -12 12c-26 0 -67 -6 -104 -6c-14 0 -26 1 -37 3
c-53 -96 -133 -143 -204 -190v-25c0 -159 -71 -431 -231 -431c-71 0 -99 48 -99 111c0 115 89 239 205 333c0 18 -1 32 -3 45c-52 -68 -96 -75 -123 -75c-63 0 -95 48 -95 120c0 119 117 232 232 232c32 0 75 -11 75 -39c0 -13 -25 -31 -60 -43c-7 9 -15 13 -23 13
c-71 0 -112 -112 -112 -172c0 -22 5 -37 17 -37c38 0 82 81 67 139c38 25 64 40 80 40c39 0 59 -64 66 -143c58 34 117 75 158 144c-12 10 -20 25 -20 46c0 52 41 77 77 77c19 0 43 -8 43 -22c0 -15 -4 -30 -15 -49c19 -2 39 -2 58 -2h52c69 0 116 -27 116 -74
c0 -36 -38 -87 -101 -124c28 -4 66 -22 98 -53c86 54 209 118 267 118c32 0 36 -21 36 -41zM98 -217c54 0 91 190 105 303c-75 -77 -126 -169 -126 -259c0 -26 6 -44 21 -44zM566 -182c34 0 154 128 154 248v3c-99 -84 -168 -179 -169 -232c0 -12 4 -19 15 -19z" />
    <glyph glyph-name="h_z.liga" unicode="hz" horiz-adv-x="1099" 
d="M1182 281c-40 -9 -126 -37 -265 -128c12 -23 20 -49 20 -80c0 -164 -171 -323 -293 -323c-46 0 -79 24 -79 81c0 74 85 200 222 309c-21 37 -66 57 -130 69c-13 22 -10 38 10 52c81 54 107 94 107 113c0 8 -4 12 -12 12c-26 0 -67 -6 -104 -6c-11 0 -20 1 -29 2
c-70 -224 -177 -374 -272 -374c-68 0 -102 78 -108 156c-32 -116 -87 -253 -161 -253c-64 0 -86 100 -86 224c0 197 68 521 198 521c54 0 80 -60 80 -112c0 -83 -52 -172 -164 -253c-3 -43 -4 -84 -4 -120c0 -49 8 -87 10 -100c17 37 92 283 180 260c24 -7 46 -20 63 -49
c-6 -23 -12 -60 -12 -97c0 -40 8 -76 39 -76c54 0 131 142 184 292c-14 10 -25 26 -25 50c0 52 41 77 77 77c19 0 43 -8 43 -22c0 -15 -4 -30 -15 -49c19 -2 39 -2 58 -2h52c69 0 116 -27 116 -74c0 -36 -38 -87 -101 -124c28 -4 66 -22 98 -53c86 54 209 118 267 118
c32 0 36 -21 36 -41zM184 569c-31 0 -51 -91 -62 -195c46 39 75 111 75 161c0 21 -4 34 -13 34zM649 -182c34 0 154 128 154 248v3c-99 -84 -168 -179 -169 -232c0 -12 4 -19 15 -19z" />
    <glyph glyph-name="j_z.liga" unicode="jz" horiz-adv-x="957" 
d="M107 452c-47 0 -81 39 -81 74c0 46 56 64 101 64c43 0 61 -17 61 -46c0 -32 -22 -92 -81 -92zM1045 281c-40 -9 -126 -37 -265 -128c12 -23 20 -49 20 -80c0 -164 -171 -323 -293 -323c-46 0 -79 24 -79 81c0 74 85 200 222 309c-21 37 -66 57 -130 69
c-13 22 -10 38 10 52c81 54 107 94 107 113c0 8 -4 12 -12 12c-26 0 -67 -6 -104 -6c-13 0 -25 1 -36 3c-68 -121 -175 -195 -258 -273v-29c0 -192 -48 -335 -147 -335c-53 0 -85 42 -85 90c0 60 51 144 118 228c-9 138 -44 245 -87 316c13 15 47 31 73 31
c62 0 108 -88 123 -228c67 63 148 122 211 223c-11 10 -19 25 -19 45c0 52 41 77 77 77c19 0 43 -8 43 -22c0 -15 -4 -30 -15 -49c19 -2 39 -2 58 -2h52c69 0 116 -27 116 -74c0 -36 -38 -87 -101 -124c28 -4 66 -22 98 -53c86 54 209 118 267 118c32 0 36 -21 36 -41z
M512 -182c34 0 154 128 154 248v3c-99 -84 -168 -179 -169 -232c0 -12 4 -19 15 -19zM75 -190c28 0 41 76 41 174c-37 -50 -61 -98 -61 -137c0 -24 9 -37 20 -37z" />
    <glyph glyph-name="k_z.liga" unicode="kz" horiz-adv-x="1087" 
d="M1173 281c-40 -9 -126 -37 -265 -128c12 -23 20 -49 20 -80c0 -164 -171 -323 -293 -323c-46 0 -79 24 -79 81c0 74 85 200 222 309c-21 37 -66 57 -130 69c-13 22 -10 38 10 52c81 54 107 94 107 113c0 8 -4 12 -12 12c-26 0 -67 -6 -104 -6c-9 0 -18 1 -26 2
c-41 -163 -108 -353 -238 -353c-83 0 -151 71 -198 140c-22 -15 -47 -30 -75 -45v-34c0 -41 -12 -100 -59 -100c-21 0 -41 9 -55 19c16 61 19 179 19 285c0 113 0 272 -24 380c37 21 63 29 84 29c40 0 57 -33 57 -99c0 -38 -8 -142 -15 -266c39 74 106 147 171 147
c53 0 78 -35 78 -84c0 -46 -32 -107 -103 -172c28 -47 68 -107 129 -107c69 0 132 128 177 277c-16 9 -29 26 -29 52c0 52 41 77 77 77c19 0 43 -8 43 -22c0 -15 -4 -30 -15 -49c19 -2 39 -2 58 -2h52c69 0 116 -27 116 -74c0 -36 -38 -87 -101 -124c28 -4 66 -22 98 -53
c86 54 209 118 267 118c32 0 36 -21 36 -41zM114 206v-1c56 39 142 113 142 173c0 7 -4 14 -10 14c-32 0 -102 -115 -132 -186zM640 -182c34 0 154 128 154 248v3c-99 -84 -168 -179 -169 -232c0 -12 4 -19 15 -19z" />
    <glyph glyph-name="l_z.liga" unicode="lz" horiz-adv-x="977" 
d="M1066 281c-40 -9 -126 -37 -265 -128c12 -23 20 -49 20 -80c0 -164 -171 -323 -293 -323c-46 0 -79 24 -79 81c0 74 85 200 222 309c-21 37 -66 57 -130 69c-13 22 -10 38 10 52c81 54 107 94 107 113c0 8 -4 12 -12 12c-26 0 -67 -6 -104 -6c-12 0 -23 1 -33 2
c-77 -197 -200 -374 -337 -374c-124 0 -171 130 -171 279c0 209 114 420 219 420c45 0 70 -39 70 -82c0 -107 -90 -270 -160 -396c7 -79 30 -137 78 -137c69 0 176 130 250 311c-13 10 -23 25 -23 48c0 52 41 77 77 77c19 0 43 -8 43 -22c0 -15 -4 -30 -15 -49
c19 -2 39 -2 58 -2h52c69 0 116 -27 116 -74c0 -36 -38 -87 -101 -124c28 -4 66 -22 98 -53c86 54 209 118 267 118c32 0 36 -21 36 -41zM215 644c-39 0 -74 -165 -84 -290c54 98 94 214 94 272c0 12 -3 18 -10 18zM533 -182c34 0 154 128 154 248v3
c-99 -84 -168 -179 -169 -232c0 -12 4 -19 15 -19z" />
    <glyph glyph-name="m_z.liga" unicode="mz" horiz-adv-x="1402" 
d="M1492 281c-40 -9 -126 -37 -265 -128c12 -23 20 -49 20 -80c0 -164 -171 -323 -293 -323c-46 0 -79 24 -79 81c0 74 85 200 222 309c-21 37 -66 57 -130 69c-13 22 -10 38 10 52c81 54 107 94 107 113c0 8 -4 12 -12 12c-26 0 -67 -6 -104 -6c-11 0 -22 1 -31 2
c-51 -151 -149 -343 -302 -343c-56 0 -123 35 -123 127c0 64 12 114 12 155c0 7 -3 11 -6 11c-21 0 -40 -59 -65 -121c-27 -70 -60 -143 -106 -143c-25 0 -49 14 -65 39c3 19 19 95 19 176c0 16 1 66 -10 66c-35 0 -111 -300 -227 -300c-26 0 -54 11 -74 32
c11 127 35 247 0 351c18 17 42 27 65 27c58 0 75 -72 75 -150c0 -34 -3 -70 -8 -101c51 114 96 233 194 233c57 0 87 -49 87 -119c0 -11 0 -23 -1 -35c37 85 78 145 155 145c50 0 81 -35 81 -90c0 -47 -8 -106 -8 -152c0 -49 12 -77 48 -77c65 0 148 135 204 291
c-12 10 -21 25 -21 47c0 52 41 77 77 77c19 0 43 -8 43 -22c0 -15 -4 -30 -15 -49c19 -2 39 -2 58 -2h52c69 0 116 -27 116 -74c0 -36 -38 -87 -101 -124c28 -4 66 -22 98 -53c86 54 209 118 267 118c32 0 36 -21 36 -41zM959 -182c34 0 154 128 154 248v3
c-99 -84 -168 -179 -169 -232c0 -12 4 -19 15 -19z" />
    <glyph glyph-name="n_z.liga" unicode="nz" horiz-adv-x="1211" 
d="M1304 281c-40 -9 -126 -37 -265 -128c12 -23 20 -49 20 -80c0 -164 -171 -323 -293 -323c-46 0 -79 24 -79 81c0 74 85 200 222 309c-21 37 -66 57 -130 69c-13 22 -10 38 10 52c81 54 107 94 107 113c0 8 -4 12 -12 12c-26 0 -67 -6 -104 -6c-11 0 -22 1 -31 2
c-68 -207 -192 -386 -332 -386c-66 0 -125 55 -125 175c0 66 10 158 10 184c0 17 -3 21 -8 21c-14 0 -87 -40 -156 -308c-12 -6 -23 -9 -40 -9c-78 0 -85 63 -85 131c0 73 8 129 8 180c0 28 -3 54 -10 80c21 19 50 32 76 32c32 0 60 -20 60 -70c0 -26 -6 -96 -6 -154
c98 174 149 184 185 184c93 0 104 -68 104 -143c0 -53 -3 -99 -3 -135c0 -47 10 -76 37 -76c24 0 120 31 234 314c-15 10 -25 26 -25 49c0 52 41 77 77 77c19 0 43 -8 43 -22c0 -15 -4 -30 -15 -49c19 -2 39 -2 58 -2h52c69 0 116 -27 116 -74c0 -36 -38 -87 -101 -124
c28 -4 66 -22 98 -53c86 54 209 118 267 118c32 0 36 -21 36 -41zM771 -182c34 0 154 128 154 248v3c-99 -84 -168 -179 -169 -232c0 -12 4 -19 15 -19z" />
    <glyph glyph-name="o_z.liga" unicode="oz" horiz-adv-x="1093" 
d="M1178 281c-40 -9 -126 -37 -265 -128c12 -23 20 -49 20 -80c0 -164 -171 -323 -293 -323c-46 0 -79 24 -79 81c0 74 85 200 222 309c-21 37 -66 57 -130 69c-13 22 -10 38 10 52c81 54 107 94 107 113c0 8 -4 12 -12 12c-26 0 -67 -6 -104 -6c-12 0 -23 1 -33 2
c-41 -96 -112 -175 -200 -175c-20 0 -41 4 -59 12c-19 -93 -82 -180 -193 -183c-126 -3 -180 105 -180 191c0 70 35 135 101 135c8 74 64 109 128 109c101 0 148 -85 151 -179c18 -13 40 -21 61 -21c43 0 94 30 143 130c-15 10 -26 26 -26 50c0 52 41 77 77 77
c19 0 43 -8 43 -22c0 -15 -4 -30 -15 -49c19 -2 39 -2 58 -2h52c69 0 116 -27 116 -74c0 -36 -38 -87 -101 -124c28 -4 66 -22 98 -53c86 54 209 118 267 118c32 0 36 -21 36 -41zM173 89c53 0 73 95 73 162c0 69 -21 141 -74 141c-29 0 -46 -21 -54 -35
c29 -11 40 -42 40 -74c0 -14 -2 -27 -5 -40c-26 -10 -39 -44 -39 -74c0 -42 26 -80 59 -80zM645 -182c34 0 154 128 154 248v3c-99 -84 -168 -179 -169 -232c0 -12 4 -19 15 -19z" />
    <glyph glyph-name="o_z_z.liga" unicode="ozz" horiz-adv-x="1570" 
d="M1650 281c-40 -9 -126 -37 -265 -128c12 -23 20 -49 20 -80c0 -164 -171 -323 -293 -323c-46 0 -79 24 -79 81c0 74 85 200 222 309c-21 37 -66 57 -130 69c-13 22 -10 38 10 52c81 54 107 94 107 113c0 8 -4 12 -12 12c-26 0 -67 -6 -104 -6c-12 0 -24 1 -34 3
c-41 -89 -89 -150 -186 -227c12 -24 20 -51 21 -83c0 -164 -171 -323 -293 -323c-46 0 -79 24 -79 81c0 74 86 200 223 309c-22 37 -66 56 -131 69c-13 22 -10 38 10 52c81 54 107 94 107 113c0 8 -4 12 -12 12c-26 0 -67 -6 -104 -6c-10 0 -19 1 -28 2
c-40 -96 -112 -175 -199 -175c-20 0 -41 4 -59 12c-19 -93 -82 -180 -193 -183c-126 -3 -180 105 -180 191c0 70 35 135 101 135c8 74 64 109 128 109c101 0 148 -85 151 -179c18 -13 40 -21 61 -21c42 0 93 30 141 127c-17 10 -30 26 -30 53c0 52 41 77 77 77
c19 0 43 -8 43 -22c0 -15 -4 -30 -15 -49c19 -2 39 -2 58 -2h52c69 0 116 -27 116 -74c0 -36 -38 -87 -101 -124c28 -4 65 -21 96 -50c59 45 123 107 169 201c-10 10 -17 24 -17 43c0 52 41 77 77 77c19 0 43 -8 43 -22c0 -15 -4 -30 -15 -49c19 -2 39 -2 58 -2h52
c69 0 116 -27 116 -74c0 -36 -38 -87 -101 -124c28 -4 66 -22 98 -53c86 54 209 118 267 118c32 0 36 -21 36 -41zM173 89c53 0 73 95 73 162c0 69 -21 141 -74 141c-29 0 -46 -21 -54 -35c29 -11 40 -42 40 -74c0 -14 -2 -27 -5 -40c-26 -10 -39 -44 -39 -74
c0 -42 26 -80 59 -80zM639 -182c34 0 154 128 154 248v4c-99 -85 -168 -180 -169 -233c0 -12 4 -19 15 -19zM1117 -182c34 0 154 128 154 248v3c-99 -84 -168 -179 -169 -232c0 -12 4 -19 15 -19z" />
    <glyph glyph-name="p_z.liga" unicode="pz" horiz-adv-x="1058" 
d="M1146 281c-40 -9 -126 -37 -265 -128c12 -23 20 -49 20 -80c0 -164 -171 -323 -293 -323c-46 0 -79 24 -79 81c0 74 85 200 222 309c-21 37 -66 57 -130 69c-13 22 -10 38 10 52c81 54 107 94 107 113c0 8 -4 12 -12 12c-26 0 -67 -6 -104 -6c-20 0 -37 2 -51 6
c-60 -62 -148 -92 -212 -110c-44 -84 -126 -153 -171 -153c-26 0 -38 18 -38 41c0 70 61 115 137 143c5 17 9 33 9 48c0 19 -8 32 -31 32c-51 0 -139 -81 -139 -371c0 -93 10 -182 19 -246c-27 -6 -49 -9 -67 -9c-65 0 -85 42 -78 180c7 129 13 296 13 366
c0 73 2 112 -19 188c25 22 50 34 71 34c32 0 55 -27 55 -84c0 -29 -4 -55 -7 -63c38 32 118 96 176 96c26 0 52 -8 69 -22c23 -18 31 -45 31 -73c0 -15 -2 -31 -6 -47c51 18 107 43 143 79c-7 9 -11 21 -11 36c0 52 41 77 77 77c19 0 43 -8 43 -22c0 -15 -4 -30 -15 -49
c19 -2 39 -2 58 -2h52c69 0 116 -27 116 -74c0 -36 -38 -87 -101 -124c28 -4 66 -22 98 -53c86 54 209 118 267 118c32 0 36 -21 36 -41zM199 167c7 0 34 34 58 76c-37 -18 -62 -41 -62 -69c0 -4 1 -7 4 -7zM613 -182c34 0 154 128 154 248v3c-99 -84 -168 -179 -169 -232
c0 -12 4 -19 15 -19z" />
    <glyph glyph-name="q_z.liga" unicode="qz" horiz-adv-x="1104" 
d="M1194 281c-40 -9 -126 -37 -265 -128c12 -23 20 -49 20 -80c0 -164 -171 -323 -293 -323c-46 0 -79 24 -79 81c0 74 85 200 222 309c-21 37 -66 57 -130 69c-13 22 -10 38 10 52c81 54 107 94 107 113c0 8 -4 12 -12 12c-26 0 -67 -6 -104 -6c-20 0 -37 2 -51 6
c-82 -125 -211 -352 -277 -608c-20 -17 -55 -27 -81 -27c-73 0 -75 121 -75 214c0 73 5 150 15 200c-45 -49 -95 -68 -131 -68c-54 0 -86 49 -86 107c1 154 152 278 310 278c42 0 61 -23 61 -46c0 -15 -8 -30 -24 -40c-11 8 -23 11 -39 11c-80 0 -199 -105 -199 -196
c0 -18 7 -30 23 -30c34 0 96 52 124 133c14 16 39 25 62 25c30 0 58 -16 58 -53c0 -42 -57 -129 -68 -295c-1 -21 -1 -73 2 -115c67 204 201 430 278 543c-6 8 -9 19 -9 32c0 52 41 77 77 77c19 0 43 -8 43 -22c0 -15 -4 -30 -15 -49c19 -2 39 -2 58 -2h52
c69 0 116 -27 116 -74c0 -36 -38 -87 -101 -124c28 -4 66 -22 98 -53c86 54 209 118 267 118c32 0 36 -21 36 -41zM661 -182c34 0 154 128 154 248v3c-99 -84 -168 -179 -169 -232c0 -12 4 -19 15 -19z" />
    <glyph glyph-name="r_z.liga" unicode="rz" horiz-adv-x="1033" 
d="M1128 281c-40 -9 -126 -37 -265 -128c12 -23 20 -49 20 -80c0 -164 -171 -323 -293 -323c-46 0 -79 24 -79 81c0 74 85 200 222 309c-21 37 -66 57 -130 69c-13 22 -10 38 10 52c81 54 107 94 107 113c0 8 -4 12 -12 12c-26 0 -67 -6 -104 -6c-12 0 -22 1 -32 2
c-92 -220 -191 -413 -348 -413c-91 0 -142 62 -142 126c0 84 48 138 71 177c-170 22 -188 93 -188 133c0 80 78 115 113 115c33 0 55 -18 55 -50c0 -25 -11 -55 -29 -91c78 -17 204 -15 204 -70c0 -54 -89 -146 -89 -218c0 -30 18 -47 45 -47c81 0 183 190 254 360
c-12 10 -21 25 -21 47c0 52 41 77 77 77c19 0 43 -8 43 -22c0 -15 -4 -30 -15 -49c19 -2 39 -2 58 -2h52c69 0 116 -27 116 -74c0 -36 -38 -87 -101 -124c28 -4 66 -22 98 -53c86 54 209 118 267 118c32 0 36 -21 36 -41zM69 480c-8 0 -25 -31 -25 -56c0 -10 3 -18 9 -24
c12 27 20 54 20 67c0 8 -1 13 -4 13zM595 -182c34 0 154 128 154 248v3c-99 -84 -168 -179 -169 -232c0 -12 4 -19 15 -19z" />
    <glyph glyph-name="s_z.liga" unicode="sz" horiz-adv-x="954" 
d="M1044 281c-40 -9 -126 -37 -265 -128c12 -23 20 -49 20 -80c0 -164 -171 -323 -293 -323c-46 0 -79 24 -79 81c0 74 85 200 222 309c-21 37 -66 57 -130 69c-13 22 -10 38 10 52c81 54 107 94 107 113c0 8 -4 12 -12 12c-26 0 -67 -6 -104 -6c-21 0 -38 2 -52 7
c-58 -62 -148 -119 -218 -159c22 -27 32 -54 32 -84c0 -76 -79 -143 -196 -138c-57 2 -88 27 -88 63c0 39 39 86 93 127c-36 32 -78 69 -78 131c0 55 37 96 86 112c67 21 119 9 137 -12c0 -38 -33 -74 -108 -69c-5 -10 -5 -33 65 -80l15 -11c68 38 155 89 214 151
c-6 9 -9 20 -9 33c0 52 41 77 77 77c19 0 43 -8 43 -22c0 -15 -4 -30 -15 -49c19 -2 39 -2 58 -2h52c69 0 116 -27 116 -74c0 -36 -38 -87 -101 -124c28 -4 66 -22 98 -53c86 54 209 118 267 118c32 0 36 -21 36 -41zM68 61c30 0 72 24 72 62c0 12 -4 23 -11 33
c-46 -33 -76 -65 -76 -87c0 -8 8 -8 15 -8zM511 -182c34 0 154 128 154 248v3c-99 -84 -168 -179 -169 -232c0 -12 4 -19 15 -19z" />
    <glyph glyph-name="t_z.liga" unicode="tz" horiz-adv-x="993" 
d="M1078 281c-40 -9 -126 -37 -265 -128c12 -23 20 -49 20 -80c0 -164 -171 -323 -293 -323c-46 0 -79 24 -79 81c0 74 85 200 222 309c-21 37 -66 57 -130 69c-13 22 -10 38 10 52c81 54 107 94 107 113c0 8 -4 12 -12 12c-26 0 -67 -6 -104 -6c-10 0 -20 1 -29 2
c-48 -134 -146 -386 -326 -387c-132 -1 -174 115 -174 234c0 64 8 129 19 192h-55c-27 0 -40 17 -40 42c0 12 3 27 9 43c25 -6 59 -10 98 -12c14 75 26 146 26 211c86 0 120 -7 120 -92c0 -30 -8 -72 -19 -123h148c-2 -12 -5 -21 -10 -35c-8 -23 -17 -33 -152 -35
c-13 -71 -26 -152 -26 -233c0 -90 37 -116 70 -116c117 0 199 180 257 332c-13 10 -23 25 -23 48c0 52 41 77 77 77c19 0 43 -8 43 -22c0 -15 -4 -30 -15 -49c19 -2 39 -2 58 -2h52c69 0 116 -27 116 -74c0 -36 -38 -87 -101 -124c28 -4 66 -22 98 -53
c86 54 209 118 267 118c32 0 36 -21 36 -41zM545 -182c34 0 154 128 154 248v3c-99 -84 -168 -179 -169 -232c0 -12 4 -19 15 -19z" />
    <glyph glyph-name="u_z.liga" unicode="uz" horiz-adv-x="1121" 
d="M1207 281c-40 -9 -126 -37 -265 -128c12 -23 20 -49 20 -80c0 -164 -171 -323 -293 -323c-46 0 -79 24 -79 81c0 74 85 200 222 309c-21 37 -66 57 -130 69c-13 22 -10 38 10 52c81 54 107 94 107 113c0 8 -4 12 -12 12c-26 0 -67 -6 -104 -6c-14 0 -27 1 -38 3
c-72 -159 -176 -331 -277 -331c-70 0 -107 45 -118 106c-39 -54 -96 -107 -160 -107c-57 0 -92 35 -92 121c0 33 7 99 7 168c0 45 -2 66 -8 96c25 4 49 8 67 8c51 0 63 -26 63 -74c0 -32 -9 -111 -9 -165c0 -33 5 -57 29 -57c12 0 48 13 100 94c3 41 7 83 7 118
c0 29 -2 55 -7 76c14 1 29 3 42 3c49 0 80 -21 80 -106c0 -25 -11 -93 -11 -140c0 -63 20 -72 33 -72c43 0 129 125 201 288c-9 10 -16 23 -16 42c0 52 41 77 77 77c19 0 43 -8 43 -22c0 -15 -4 -30 -15 -49c19 -2 39 -2 58 -2h52c69 0 116 -27 116 -74
c0 -36 -38 -87 -101 -124c28 -4 66 -22 98 -53c86 54 209 118 267 118c32 0 36 -21 36 -41zM674 -182c34 0 154 128 154 248v3c-99 -84 -168 -179 -169 -232c0 -12 4 -19 15 -19z" />
    <glyph glyph-name="u_z_z.liga" unicode="uzz" horiz-adv-x="1595" 
d="M1679 281c-40 -9 -126 -37 -265 -128c12 -23 20 -49 20 -80c0 -164 -171 -323 -293 -323c-46 0 -79 24 -79 81c0 74 85 200 222 309c-21 37 -66 57 -130 69c-13 22 -10 38 10 52c81 54 107 94 107 113c0 8 -4 12 -12 12c-26 0 -67 -6 -104 -6c-12 0 -24 1 -34 3
c-41 -89 -89 -150 -186 -227c12 -24 20 -51 21 -83c0 -164 -171 -323 -293 -323c-46 0 -79 24 -79 81c0 74 86 200 223 309c-22 37 -66 56 -131 69c-13 22 -10 38 10 52c81 54 107 94 107 113c0 8 -4 12 -12 12c-26 0 -67 -6 -104 -6c-12 0 -22 1 -32 2
c-73 -159 -176 -330 -277 -330c-70 0 -107 45 -118 106c-39 -54 -96 -107 -160 -107c-57 0 -92 35 -92 121c0 33 7 99 7 168c0 45 -2 66 -8 96c25 4 49 8 67 8c51 0 63 -26 63 -74c0 -32 -9 -111 -9 -165c0 -33 5 -57 29 -57c12 0 48 13 100 94c3 41 7 83 7 118
c0 29 -2 55 -7 76c14 1 29 3 42 3c49 0 80 -21 80 -106c0 -25 -11 -93 -11 -140c0 -63 20 -72 33 -72c42 0 128 123 200 284c-12 10 -21 25 -21 46c0 52 41 77 77 77c19 0 43 -8 43 -22c0 -15 -4 -30 -15 -49c19 -2 39 -2 58 -2h52c69 0 116 -27 116 -74
c0 -36 -38 -87 -101 -124c28 -4 65 -21 96 -50c59 45 123 107 169 201c-10 10 -17 24 -17 43c0 52 41 77 77 77c19 0 43 -8 43 -22c0 -15 -4 -30 -15 -49c19 -2 39 -2 58 -2h52c69 0 116 -27 116 -74c0 -36 -38 -87 -101 -124c28 -4 66 -22 98 -53c86 54 209 118 267 118
c32 0 36 -21 36 -41zM668 -182c34 0 154 128 154 248v4c-99 -85 -168 -180 -169 -233c0 -12 4 -19 15 -19zM1146 -182c34 0 154 128 154 248v3c-99 -84 -168 -179 -169 -232c0 -12 4 -19 15 -19z" />
    <glyph glyph-name="v_z.liga" unicode="vz" horiz-adv-x="1098" 
d="M1187 281c-40 -9 -126 -37 -265 -128c12 -23 20 -49 20 -80c0 -164 -171 -323 -293 -323c-46 0 -79 24 -79 81c0 74 85 200 222 309c-21 37 -66 57 -130 69c-13 22 -10 38 10 52c81 54 107 94 107 113c0 8 -4 12 -12 12c-26 0 -67 -6 -104 -6c-14 0 -28 1 -39 3
c-35 -63 -97 -133 -203 -133c-22 0 -43 3 -63 9c-50 -143 -133 -236 -195 -236c-83 0 -90 163 -171 363c37 43 77 49 102 49c55 0 84 -29 84 -120c0 -38 -5 -83 -5 -127c0 -39 4 -65 22 -65c36 0 64 103 79 201c-11 20 -18 46 -18 75c0 47 17 69 30 77c9 5 18 12 35 12
c36 0 66 -29 66 -95c0 -21 -3 -46 -11 -76c17 -8 37 -11 59 -10c62 4 106 46 139 100c-11 10 -18 24 -18 44c0 52 41 77 77 77c19 0 43 -8 43 -22c0 -15 -4 -30 -15 -49c19 -2 39 -2 58 -2h52c69 0 116 -27 116 -74c0 -36 -38 -87 -101 -124c28 -4 66 -22 98 -53
c86 54 209 118 267 118c32 0 36 -21 36 -41zM654 -182c34 0 154 128 154 248v3c-99 -84 -168 -179 -169 -232c0 -12 4 -19 15 -19z" />
    <glyph glyph-name="w_i.liga" unicode="wi" horiz-adv-x="922" 
d="M780 417c-39 0 -54 57 -54 83c0 35 44 47 73 47c40 0 57 -30 57 -55c0 -35 -46 -75 -76 -75zM775 381c47 0 72 -24 72 -76c0 -95 -6 -173 -6 -297c-18 -12 -33 -19 -53 -19c-57 0 -64 48 -64 136c0 48 4 104 4 173c-21 -20 -52 -36 -85 -36c-34 0 -58 7 -78 23
c-2 -110 -60 -244 -177 -244c-43 0 -82 21 -109 80c-37 -73 -91 -97 -132 -97c-92 0 -135 107 -135 236c0 114 15 211 98 211c18 0 40 -5 65 -15c-19 -48 -30 -102 -30 -171c0 -63 5 -185 49 -185c35 0 53 57 53 115c0 31 -1 52 -6 87c14 10 31 15 47 15
c51 0 57 -36 61 -106c5 -75 11 -113 39 -113c49 0 68 82 68 141c0 98 -29 144 -40 166c14 15 36 26 62 26c35 0 58 -19 71 -49c31 -58 64 -72 97 -72c57 0 74 60 81 65c17 3 31 6 48 6zM512 357v0z" />
    <glyph glyph-name="w_z.liga" unicode="wz" horiz-adv-x="1256" 
d="M1346 281c-40 -9 -126 -37 -265 -128c12 -23 20 -49 20 -80c0 -164 -171 -323 -293 -323c-46 0 -79 24 -79 81c0 74 85 200 222 309c-21 37 -66 57 -130 69c-13 22 -10 38 10 52c81 54 107 94 107 113c0 8 -4 12 -12 12c-26 0 -67 -6 -104 -6c-15 0 -29 1 -41 4
c-44 -66 -92 -104 -151 -104c-25 0 -46 5 -65 15v-5c0 -111 -58 -249 -177 -249c-43 0 -82 21 -109 80c-37 -73 -91 -97 -132 -97c-92 0 -135 107 -135 236c0 114 15 211 98 211c18 0 40 -5 65 -15c-19 -48 -30 -102 -30 -171c0 -63 5 -185 49 -185c35 0 53 57 53 115
c0 31 -1 52 -6 87c14 10 31 15 47 15c51 0 57 -36 61 -106c5 -75 11 -113 39 -113c49 0 68 82 68 141c0 98 -29 144 -40 166c14 15 36 26 62 26c39 0 62 -23 75 -59c27 -21 51 -30 74 -30c34 0 62 10 102 69c-8 10 -14 23 -14 40c0 52 41 77 77 77c19 0 43 -8 43 -22
c0 -15 -4 -30 -15 -49c19 -2 39 -2 58 -2h52c69 0 116 -27 116 -74c0 -36 -38 -87 -101 -124c28 -4 66 -22 98 -53c86 54 209 118 267 118c32 0 36 -21 36 -41zM813 -182c34 0 154 128 154 248v3c-99 -84 -168 -179 -169 -232c0 -12 4 -19 15 -19z" />
    <glyph glyph-name="y_z.liga" unicode="yz" horiz-adv-x="1015" 
d="M1104 281c-40 -9 -126 -37 -265 -128c12 -23 20 -49 20 -80c0 -164 -171 -323 -293 -323c-46 0 -79 24 -79 81c0 74 85 200 222 309c-21 37 -66 57 -130 69c-13 22 -10 38 10 52c81 54 107 94 107 113c0 8 -4 12 -12 12c-26 0 -67 -6 -104 -6c-17 0 -33 2 -46 5
c-52 -79 -114 -132 -202 -198c-35 -345 -183 -450 -244 -450c-42 0 -80 38 -80 114c0 124 93 235 205 323c3 24 4 47 4 66v2c-39 -61 -84 -85 -121 -85c-67 0 -96 83 -96 163c0 28 2 52 2 77c0 18 -1 37 -4 58c9 8 31 14 54 14c32 0 66 -13 66 -53c0 -19 -8 -60 -8 -106
c0 -39 6 -69 30 -69c40 0 68 80 67 212c17 14 49 19 67 19c60 0 65 -52 65 -129c0 -28 -1 -54 -2 -79c69 53 115 102 148 150c-7 9 -12 21 -12 37c0 52 41 77 77 77c19 0 43 -8 43 -22c0 -15 -4 -30 -15 -49c19 -2 39 -2 58 -2h52c69 0 116 -27 116 -74
c0 -36 -38 -87 -101 -124c28 -4 66 -22 98 -53c86 54 209 118 267 118c32 0 36 -21 36 -41zM83 -197c42 0 90 144 116 279c-82 -77 -138 -161 -138 -244c0 -21 7 -35 22 -35zM571 -182c34 0 154 128 154 248v3c-99 -84 -168 -179 -169 -232c0 -12 4 -19 15 -19z" />
    <glyph glyph-name="z_z.liga" unicode="zz" horiz-adv-x="1027" 
d="M1117 281c-40 -9 -126 -37 -265 -128c12 -23 20 -49 20 -80c0 -164 -171 -323 -293 -323c-46 0 -79 24 -79 81c0 74 85 200 222 309c-21 37 -66 57 -130 69c-13 22 -10 38 10 52c81 54 107 94 107 113c0 8 -4 12 -12 12c-26 0 -67 -6 -104 -6c-12 0 -24 1 -34 3
c-41 -89 -89 -150 -186 -227c12 -24 20 -51 21 -83c0 -164 -171 -323 -293 -323c-46 0 -79 24 -79 81c0 74 86 200 223 309c-22 37 -66 56 -131 69c-13 22 -10 38 10 52c81 54 107 94 107 113c0 8 -4 12 -12 12c-26 0 -67 -6 -104 -6c-30 1 -54 4 -69 14
c-20 9 -38 26 -38 57c0 52 41 77 77 77c19 0 43 -8 43 -22c0 -15 -4 -30 -15 -49c19 -2 39 -2 58 -2h52c69 0 116 -27 116 -74c0 -36 -38 -87 -101 -124c28 -4 65 -21 96 -50c59 45 123 107 169 201c-10 10 -17 24 -17 43c0 52 41 77 77 77c19 0 43 -8 43 -22
c0 -15 -4 -30 -15 -49c19 -2 39 -2 58 -2h52c69 0 116 -27 116 -74c0 -36 -38 -87 -101 -124c28 -4 66 -22 98 -53c86 54 209 118 267 118c32 0 36 -21 36 -41zM106 -182c34 0 154 128 154 248v4c-99 -85 -168 -180 -169 -233c0 -12 4 -19 15 -19zM584 -182
c34 0 154 128 154 248v3c-99 -84 -168 -179 -169 -232c0 -12 4 -19 15 -19z" />
    <glyph glyph-name="uni04300437.liga" unicode="&#x430;&#x437;" horiz-adv-x="1105" 
d="M1160 281c-40 -9 -126 -37 -265 -128c12 -23 20 -49 20 -80c0 -164 -171 -323 -293 -323c-46 0 -79 24 -79 81c0 74 85 200 222 309c-21 37 -66 57 -130 69c-13 22 -10 38 10 52c81 54 107 94 107 113c0 8 -4 12 -12 12c-26 0 -67 -6 -104 -6c-13 0 -26 1 -36 3
c-50 -161 -151 -295 -253 -295c-50 0 -67 45 -72 77c-28 -77 -106 -131 -170 -131c-74 0 -128 60 -128 142c0 138 106 272 244 272c76 0 135 -59 146 -102c-11 -50 -16 -89 -16 -118c0 -42 12 -62 33 -62c34 0 126 102 166 238c-12 10 -21 26 -21 47c0 52 41 77 77 77
c19 0 43 -8 43 -22c0 -15 -4 -30 -15 -49c19 -2 39 -2 58 -2h52c69 0 116 -27 116 -74c0 -36 -38 -87 -101 -124c28 -4 66 -22 98 -53c86 54 209 118 267 118c32 0 36 -21 36 -41zM127 137c57 0 122 157 133 221c-6 16 -17 28 -33 28c-54 0 -122 -138 -122 -205
c0 -20 7 -44 22 -44zM627 -182c34 0 154 128 154 248v3c-99 -84 -168 -179 -169 -232c0 -12 4 -19 15 -19z" />
    <glyph glyph-name="uni04310437.liga" unicode="&#x431;&#x437;" horiz-adv-x="1078" 
d="M1135 281c-40 -9 -126 -37 -265 -128c12 -23 20 -49 20 -80c0 -164 -171 -323 -293 -323c-46 0 -79 24 -79 81c0 74 85 200 222 309c-21 37 -66 57 -130 69c-13 22 -10 38 10 52c81 54 107 94 107 113c0 8 -4 12 -12 12c-26 0 -67 -6 -104 -6c-15 0 -28 1 -40 4
c-33 -62 -95 -127 -173 -127c-16 0 -30 2 -44 7v-4c0 -106 -63 -243 -196 -247c-114 0 -173 92 -173 189c0 118 63 201 147 233c-52 37 -118 67 -118 129c0 119 190 174 279 174c33 0 49 -19 49 -42c0 -19 -11 -41 -33 -57c-66 6 -194 -25 -194 -69c0 -43 165 -117 205 -182
l9 -15c5 -10 10 -20 13 -30c19 -13 39 -20 57 -20c45 0 85 25 124 83c-11 10 -19 25 -19 45c0 52 41 77 77 77c19 0 43 -8 43 -22c0 -15 -4 -30 -15 -49c19 -2 39 -2 58 -2h52c69 0 116 -27 116 -74c0 -36 -38 -87 -101 -124c28 -4 66 -22 98 -53c86 54 209 118 267 118
c32 0 36 -21 36 -41zM168 86c40 0 59 73 59 145c0 71 -18 140 -48 140c-40 0 -61 -92 -61 -151c0 -62 15 -134 50 -134zM602 -182c34 0 154 128 154 248v3c-99 -84 -168 -179 -169 -232c0 -12 4 -19 15 -19z" />
    <glyph glyph-name="uni04320437.liga" unicode="&#x432;&#x437;" horiz-adv-x="1074" 
d="M1160 281c-40 -9 -126 -37 -265 -128c12 -23 20 -49 20 -80c0 -164 -171 -323 -293 -323c-46 0 -79 24 -79 81c0 74 85 200 222 309c-21 37 -66 57 -130 69c-13 22 -10 38 10 52c81 54 107 94 107 113c0 8 -4 12 -12 12c-26 0 -67 -6 -104 -6c-12 0 -23 1 -33 2
c-35 -100 -115 -224 -205 -247c-31 -95 -103 -186 -196 -186c-131 0 -199 106 -199 293c0 60 3 134 22 217c40 177 134 238 198 238c42 0 76 -25 76 -79c0 -29 -7 -68 -24 -122c-39 -123 -96 -209 -140 -263c10 -98 40 -186 84 -186c37 0 71 43 93 93c-63 20 -99 73 -99 116
c0 44 53 98 117 98c55 0 84 -56 84 -122c0 -8 0 -16 -1 -24c55 28 105 111 142 193c-15 9 -26 26 -26 50c0 52 41 77 77 77c19 0 43 -8 43 -22c0 -15 -4 -30 -15 -49c19 -2 39 -2 58 -2h52c69 0 116 -27 116 -74c0 -36 -38 -87 -101 -124c28 -4 66 -22 98 -53
c86 54 209 118 267 118c32 0 36 -21 36 -41zM213 595c-46 0 -79 -173 -82 -275c51 79 98 184 98 251c0 17 -7 24 -16 24zM281 267c0 -26 15 -52 51 -63c3 15 5 30 5 43c0 35 -12 56 -25 56c-11 0 -31 -17 -31 -36zM627 -182c34 0 154 128 154 248v3
c-99 -84 -168 -179 -169 -232c0 -12 4 -19 15 -19z" />
    <glyph glyph-name="uni04330437.liga" unicode="&#x433;&#x437;" horiz-adv-x="1021" 
d="M1108 281c-40 -9 -126 -37 -265 -128c12 -23 20 -49 20 -80c0 -164 -171 -323 -293 -323c-46 0 -79 24 -79 81c0 74 85 200 222 309c-21 37 -66 57 -130 69c-13 22 -10 38 10 52c81 54 107 94 107 113c0 8 -4 12 -12 12c-26 0 -67 -6 -104 -6c-12 0 -23 1 -33 2
c-83 -173 -221 -394 -384 -394c-92 0 -118 62 -118 107c0 103 127 183 127 225c0 6 -3 17 -20 17c-47 0 -78 -76 -119 -76c-11 0 -27 6 -33 31c62 94 113 145 191 145c60 0 110 -34 110 -99c0 -105 -120 -166 -120 -231c0 -23 16 -34 31 -34c68 0 177 127 284 330
c-14 10 -23 26 -23 48c0 52 41 77 77 77c19 0 43 -8 43 -22c0 -15 -4 -30 -15 -49c19 -2 39 -2 58 -2h52c69 0 116 -27 116 -74c0 -36 -38 -87 -101 -124c28 -4 66 -22 98 -53c86 54 209 118 267 118c32 0 36 -21 36 -41zM575 -182c34 0 154 128 154 248v3
c-99 -84 -168 -179 -169 -232c0 -12 4 -19 15 -19z" />
    <glyph glyph-name="uni04340437.liga" unicode="&#x434;&#x437;" horiz-adv-x="1008" 
d="M1099 281c-40 -9 -126 -37 -265 -128c12 -23 20 -49 20 -80c0 -164 -171 -323 -293 -323c-46 0 -79 24 -79 81c0 74 85 200 222 309c-21 37 -66 57 -130 69c-13 22 -10 38 10 52c81 54 107 94 107 113c0 8 -4 12 -12 12c-26 0 -67 -6 -104 -6c-14 0 -26 1 -37 3
c-53 -96 -133 -143 -204 -190v-25c0 -159 -71 -431 -231 -431c-71 0 -99 48 -99 111c0 115 89 239 205 333c0 18 -1 32 -3 45c-52 -68 -96 -75 -123 -75c-63 0 -95 48 -95 120c0 119 117 232 232 232c32 0 75 -11 75 -39c0 -13 -25 -31 -60 -43c-7 9 -15 13 -23 13
c-71 0 -112 -112 -112 -172c0 -22 5 -37 17 -37c38 0 82 81 67 139c38 25 64 40 80 40c39 0 59 -64 66 -143c58 34 117 75 158 144c-12 10 -20 25 -20 46c0 52 41 77 77 77c19 0 43 -8 43 -22c0 -15 -4 -30 -15 -49c19 -2 39 -2 58 -2h52c69 0 116 -27 116 -74
c0 -36 -38 -87 -101 -124c28 -4 66 -22 98 -53c86 54 209 118 267 118c32 0 36 -21 36 -41zM98 -217c54 0 91 190 105 303c-75 -77 -126 -169 -126 -259c0 -26 6 -44 21 -44zM566 -182c34 0 154 128 154 248v3c-99 -84 -168 -179 -169 -232c0 -12 4 -19 15 -19z" />
    <glyph glyph-name="uni04350437.liga" unicode="&#x435;&#x437;" horiz-adv-x="1056" 
d="M1142 281c-40 -9 -126 -37 -265 -128c12 -23 20 -49 20 -80c0 -164 -171 -323 -293 -323c-46 0 -79 24 -79 81c0 74 85 200 222 309c-21 37 -66 57 -130 69c-13 22 -10 38 10 52c81 54 107 94 107 113c0 8 -4 12 -12 12c-26 0 -67 -6 -104 -6c-9 0 -18 1 -26 2
c-60 -167 -213 -366 -367 -366c-135 0 -222 106 -222 230c0 114 69 232 180 232c73 0 111 -50 111 -126c0 -89 -68 -154 -126 -194c22 -35 55 -55 94 -55c95 0 213 136 278 295c-16 10 -29 27 -29 53c0 52 41 77 77 77c19 0 43 -8 43 -22c0 -15 -4 -30 -15 -49
c19 -2 39 -2 58 -2h52c69 0 116 -27 116 -74c0 -36 -38 -87 -101 -124c28 -4 66 -22 98 -53c86 54 209 118 267 118c32 0 36 -21 36 -41zM189 398c-23 0 -54 -37 -54 -106c0 -27 3 -51 8 -73c40 38 75 82 75 137c0 32 -16 42 -29 42zM609 -182c34 0 154 128 154 248v3
c-99 -84 -168 -179 -169 -232c0 -12 4 -19 15 -19z" />
    <glyph glyph-name="uni04360437.liga" unicode="&#x436;&#x437;" horiz-adv-x="1575" 
d="M1665 281c-40 -9 -126 -37 -265 -128c12 -23 20 -49 20 -80c0 -164 -171 -323 -293 -323c-46 0 -79 24 -79 81c0 74 85 200 222 309c-21 37 -66 57 -130 69c-13 22 -10 38 10 52c81 54 107 94 107 113c0 8 -4 12 -12 12c-26 0 -67 -6 -104 -6c-14 0 -27 1 -39 3
c-70 -131 -227 -360 -399 -360c-98 0 -161 74 -173 163c-23 -31 -49 -66 -63 -88c0 -54 3 -114 17 -154c-27 -23 -48 -28 -64 -28c-40 0 -55 31 -55 110c0 50 6 133 6 192c-27 -37 -55 -71 -87 -105c-31 -67 -96 -105 -176 -105c-61 0 -113 23 -113 61c0 12 5 26 17 42
c27 -18 46 -27 72 -27c60 0 102 46 102 124c0 62 -27 125 -91 146c-6 -13 -18 -38 -46 -60c-37 0 -55 29 -55 56c0 40 38 85 116 85c115 0 184 -99 193 -205c28 33 50 64 68 93l-1 133c0 34 -6 64 -16 89c21 21 52 35 79 35c40 0 49 -30 49 -90c0 -69 -12 -193 -12 -291
c17 22 44 60 69 93c26 85 95 157 191 157c90 0 110 -62 110 -86c0 -23 -18 -40 -52 -49c-22 14 -38 31 -49 48c-69 -23 -92 -80 -92 -141c0 -63 24 -123 85 -123c98 0 229 157 318 311c-10 10 -16 24 -16 42c0 52 41 77 77 77c19 0 43 -8 43 -22c0 -15 -4 -30 -15 -49
c19 -2 39 -2 58 -2h52c69 0 116 -27 116 -74c0 -36 -38 -87 -101 -124c28 -4 66 -22 98 -53c86 54 209 118 267 118c32 0 36 -21 36 -41zM1132 -182c34 0 154 128 154 248v3c-99 -84 -168 -179 -169 -232c0 -12 4 -19 15 -19z" />
    <glyph glyph-name="uni04380437.liga" unicode="&#x438;&#x437;" horiz-adv-x="1121" 
d="M1207 281c-40 -9 -126 -37 -265 -128c12 -23 20 -49 20 -80c0 -164 -171 -323 -293 -323c-46 0 -79 24 -79 81c0 74 85 200 222 309c-21 37 -66 57 -130 69c-13 22 -10 38 10 52c81 54 107 94 107 113c0 8 -4 12 -12 12c-26 0 -67 -6 -104 -6c-14 0 -27 1 -38 3
c-72 -159 -176 -331 -277 -331c-70 0 -107 45 -118 106c-39 -54 -96 -107 -160 -107c-57 0 -92 35 -92 121c0 33 7 99 7 168c0 45 -2 66 -8 96c25 4 49 8 67 8c51 0 63 -26 63 -74c0 -32 -9 -111 -9 -165c0 -33 5 -57 29 -57c12 0 48 13 100 94c3 41 7 83 7 118
c0 29 -2 55 -7 76c14 1 29 3 42 3c49 0 80 -21 80 -106c0 -25 -11 -93 -11 -140c0 -63 20 -72 33 -72c43 0 129 125 201 288c-9 10 -16 23 -16 42c0 52 41 77 77 77c19 0 43 -8 43 -22c0 -15 -4 -30 -15 -49c19 -2 39 -2 58 -2h52c69 0 116 -27 116 -74
c0 -36 -38 -87 -101 -124c28 -4 66 -22 98 -53c86 54 209 118 267 118c32 0 36 -21 36 -41zM674 -182c34 0 154 128 154 248v3c-99 -84 -168 -179 -169 -232c0 -12 4 -19 15 -19z" />
    <glyph glyph-name="uni04390437.liga" unicode="&#x439;&#x437;" horiz-adv-x="1121" 
d="M182 473c-47 0 -142 18 -142 101c0 22 15 33 34 33c12 0 24 -4 35 -9c37 -17 24 -55 71 -55c69 0 43 59 107 59c19 0 45 -11 45 -34c0 -73 -95 -95 -150 -95zM1207 281c-40 -9 -126 -37 -265 -128c12 -23 20 -49 20 -80c0 -164 -171 -323 -293 -323c-46 0 -79 24 -79 81
c0 74 85 200 222 309c-21 37 -66 57 -130 69c-13 22 -10 38 10 52c81 54 107 94 107 113c0 8 -4 12 -12 12c-26 0 -67 -6 -104 -6c-14 0 -27 1 -38 3c-72 -159 -176 -331 -277 -331c-70 0 -107 45 -118 106c-39 -54 -96 -107 -160 -107c-57 0 -92 35 -92 121
c0 33 7 99 7 168c0 45 -2 66 -8 96c25 4 49 8 67 8c51 0 63 -26 63 -74c0 -32 -9 -111 -9 -165c0 -33 5 -57 29 -57c12 0 48 13 100 94c3 41 7 83 7 118c0 29 -2 55 -7 76c14 1 29 3 42 3c49 0 80 -21 80 -106c0 -25 -11 -93 -11 -140c0 -63 20 -72 33 -72
c43 0 129 125 201 288c-9 10 -16 23 -16 42c0 52 41 77 77 77c19 0 43 -8 43 -22c0 -15 -4 -30 -15 -49c19 -2 39 -2 58 -2h52c69 0 116 -27 116 -74c0 -36 -38 -87 -101 -124c28 -4 66 -22 98 -53c86 54 209 118 267 118c32 0 36 -21 36 -41zM674 -182
c34 0 154 128 154 248v3c-99 -84 -168 -179 -169 -232c0 -12 4 -19 15 -19z" />
    <glyph glyph-name="uni043A0437.liga" unicode="&#x43a;&#x437;" horiz-adv-x="1158" 
d="M1246 281c-40 -9 -126 -37 -265 -128c12 -23 20 -49 20 -80c0 -164 -171 -323 -293 -323c-46 0 -79 24 -79 81c0 74 85 200 222 309c-21 37 -66 57 -130 69c-13 22 -10 38 10 52c81 54 107 94 107 113c0 8 -4 12 -12 12c-26 0 -67 -6 -104 -6c-14 0 -26 1 -37 3
c-58 -156 -152 -354 -288 -354c-83 0 -161 71 -209 141c-23 -16 -48 -31 -76 -46v-34c0 -41 -12 -100 -59 -100c-21 0 -41 9 -55 19c16 61 19 179 19 285c0 43 -6 93 -30 201c37 21 63 29 84 29c40 0 57 -33 57 -99c0 -29 -2 -52 -5 -80c40 72 104 140 167 140
c53 0 78 -35 78 -84c0 -46 -31 -107 -103 -171c33 -46 86 -102 139 -102c108 0 172 148 232 276c-12 11 -21 26 -21 47c0 52 41 77 77 77c19 0 43 -8 43 -22c0 -15 -4 -30 -15 -49c19 -2 39 -2 58 -2h52c69 0 116 -27 116 -74c0 -36 -38 -87 -101 -124c28 -4 66 -22 98 -53
c86 54 209 118 267 118c32 0 36 -21 36 -41zM114 206v-1c56 39 142 113 142 173c0 7 -4 14 -10 14c-32 0 -102 -115 -132 -186zM713 -182c34 0 154 128 154 248v3c-99 -84 -168 -179 -169 -232c0 -12 4 -19 15 -19z" />
    <glyph glyph-name="uni043B0437.liga" unicode="&#x43b;&#x437;" horiz-adv-x="1090" 
d="M1178 281c-40 -9 -126 -37 -265 -128c12 -23 20 -49 20 -80c0 -164 -171 -323 -293 -323c-46 0 -79 24 -79 81c0 74 85 200 222 309c-21 37 -66 57 -130 69c-13 22 -10 38 10 52c81 54 107 94 107 113c0 8 -4 12 -12 12c-26 0 -67 -6 -104 -6c-10 0 -20 1 -28 2
c-72 -197 -183 -366 -277 -366c-68 0 -108 46 -151 174c-33 100 -39 122 -51 123c-18 1 -59 -119 -69 -214c-2 -26 -3 -51 1 -70c-22 -7 -61 -13 -80 -13c-39 0 -57 19 -52 68c4 41 27 97 48 153c29 78 69 132 100 215c81 19 101 18 136 -65c89 -215 113 -270 144 -269
c34 2 119 97 197 283c-14 10 -25 26 -25 50c0 52 41 77 77 77c19 0 43 -8 43 -22c0 -15 -4 -30 -15 -49c19 -2 39 -2 58 -2h52c69 0 116 -27 116 -74c0 -36 -38 -87 -101 -124c28 -4 66 -22 98 -53c86 54 209 118 267 118c32 0 36 -21 36 -41zM645 -182
c34 0 154 128 154 248v3c-99 -84 -168 -179 -169 -232c0 -12 4 -19 15 -19z" />
    <glyph glyph-name="uni043C0437.liga" unicode="&#x43c;&#x437;" horiz-adv-x="1325" 
d="M1411 281c-40 -9 -126 -37 -265 -128c12 -23 20 -49 20 -80c0 -164 -171 -323 -293 -323c-46 0 -79 24 -79 81c0 74 85 200 222 309c-21 37 -66 57 -130 69c-13 22 -10 38 10 52c81 54 107 94 107 113c0 8 -4 12 -12 12c-26 0 -67 -6 -104 -6c-13 0 -25 1 -36 3
c-70 -169 -165 -358 -313 -358c-124 0 -136 114 -139 226c-70 -125 -102 -146 -146 -146c-101 0 -101 149 -108 149c-6 0 -8 -56 -8 -118c0 -74 -2 -136 -85 -136c-23 0 -46 4 -65 11c25 70 51 202 56 317c1 21 0 90 -5 113c14 9 33 15 52 15c36 0 72 -20 85 -80
c20 -88 46 -184 80 -184c63 0 118 153 169 225c37 54 96 41 114 20c-10 -42 -18 -101 -18 -156c0 -85 18 -162 67 -162c78 0 151 148 211 288c-11 10 -18 24 -18 44c0 52 41 77 77 77c19 0 43 -8 43 -22c0 -15 -4 -30 -15 -49c19 -2 39 -2 58 -2h52c69 0 116 -27 116 -74
c0 -36 -38 -87 -101 -124c28 -4 66 -22 98 -53c86 54 209 118 267 118c32 0 36 -21 36 -41zM878 -182c34 0 154 128 154 248v3c-99 -84 -168 -179 -169 -232c0 -12 4 -19 15 -19z" />
    <glyph glyph-name="uni043D0437.liga" unicode="&#x43d;&#x437;" horiz-adv-x="1140" 
d="M1230 281c-40 -9 -126 -37 -265 -128c12 -23 20 -49 20 -80c0 -164 -171 -323 -293 -323c-46 0 -79 24 -79 81c0 74 85 200 222 309c-21 37 -66 57 -130 69c-13 22 -10 38 10 52c81 54 107 94 107 113c0 8 -4 12 -12 12c-26 0 -67 -6 -104 -6c-13 0 -25 1 -35 3
c-80 -189 -181 -357 -297 -357c-91 0 -112 72 -112 157v21c-36 -1 -86 -3 -132 -6v-9c0 -35 -1 -113 17 -151c-27 -8 -56 -12 -73 -12c-59 0 -76 44 -76 128c0 35 7 106 7 179c0 48 -2 70 -8 103c27 4 49 8 73 8c54 0 67 -28 67 -79c0 -21 -3 -60 -5 -100c42 3 90 5 134 6
c3 29 5 58 5 84c0 30 -2 58 -8 80c15 2 31 4 45 4c57 0 91 -23 91 -113c0 -27 -12 -99 -12 -149c0 -67 14 -77 28 -77c41 0 124 110 207 302c-13 10 -23 26 -23 49c0 52 41 77 77 77c19 0 43 -8 43 -22c0 -15 -4 -30 -15 -49c19 -2 39 -2 58 -2h52c69 0 116 -27 116 -74
c0 -36 -38 -87 -101 -124c28 -4 66 -22 98 -53c86 54 209 118 267 118c32 0 36 -21 36 -41zM697 -182c34 0 154 128 154 248v3c-99 -84 -168 -179 -169 -232c0 -12 4 -19 15 -19z" />
    <glyph glyph-name="uni043E0437.liga" unicode="&#x43e;&#x437;" horiz-adv-x="1093" 
d="M1178 281c-40 -9 -126 -37 -265 -128c12 -23 20 -49 20 -80c0 -164 -171 -323 -293 -323c-46 0 -79 24 -79 81c0 74 85 200 222 309c-21 37 -66 57 -130 69c-13 22 -10 38 10 52c81 54 107 94 107 113c0 8 -4 12 -12 12c-26 0 -67 -6 -104 -6c-12 0 -23 1 -33 2
c-41 -96 -112 -175 -200 -175c-20 0 -41 4 -59 12c-19 -93 -82 -180 -193 -183c-126 -3 -180 105 -180 191c0 70 35 135 101 135c8 74 64 109 128 109c101 0 148 -85 151 -179c18 -13 40 -21 61 -21c43 0 94 30 143 130c-15 10 -26 26 -26 50c0 52 41 77 77 77
c19 0 43 -8 43 -22c0 -15 -4 -30 -15 -49c19 -2 39 -2 58 -2h52c69 0 116 -27 116 -74c0 -36 -38 -87 -101 -124c28 -4 66 -22 98 -53c86 54 209 118 267 118c32 0 36 -21 36 -41zM173 89c53 0 73 95 73 162c0 69 -21 141 -74 141c-29 0 -46 -21 -54 -35
c29 -11 40 -42 40 -74c0 -14 -2 -27 -5 -40c-26 -10 -39 -44 -39 -74c0 -42 26 -80 59 -80zM645 -182c34 0 154 128 154 248v3c-99 -84 -168 -179 -169 -232c0 -12 4 -19 15 -19z" />
    <glyph glyph-name="uni043F0437.liga" unicode="&#x43f;&#x437;" horiz-adv-x="1211" 
d="M1304 281c-40 -9 -126 -37 -265 -128c12 -23 20 -49 20 -80c0 -164 -171 -323 -293 -323c-46 0 -79 24 -79 81c0 74 85 200 222 309c-21 37 -66 57 -130 69c-13 22 -10 38 10 52c81 54 107 94 107 113c0 8 -4 12 -12 12c-26 0 -67 -6 -104 -6c-11 0 -22 1 -31 2
c-68 -207 -192 -386 -332 -386c-66 0 -125 55 -125 175c0 66 10 158 10 184c0 17 -3 21 -8 21c-14 0 -87 -40 -156 -308c-12 -6 -23 -9 -40 -9c-78 0 -85 63 -85 131c0 73 8 129 8 180c0 28 -3 54 -10 80c21 19 50 32 76 32c32 0 60 -20 60 -70c0 -26 -6 -96 -6 -154
c98 174 149 184 185 184c93 0 104 -68 104 -143c0 -53 -3 -99 -3 -135c0 -47 10 -76 37 -76c24 0 120 31 234 314c-15 10 -25 26 -25 49c0 52 41 77 77 77c19 0 43 -8 43 -22c0 -15 -4 -30 -15 -49c19 -2 39 -2 58 -2h52c69 0 116 -27 116 -74c0 -36 -38 -87 -101 -124
c28 -4 66 -22 98 -53c86 54 209 118 267 118c32 0 36 -21 36 -41zM771 -182c34 0 154 128 154 248v3c-99 -84 -168 -179 -169 -232c0 -12 4 -19 15 -19z" />
    <glyph glyph-name="uni04400437.liga" unicode="&#x440;&#x437;" horiz-adv-x="1058" 
d="M1146 281c-40 -9 -126 -37 -265 -128c12 -23 20 -49 20 -80c0 -164 -171 -323 -293 -323c-46 0 -79 24 -79 81c0 74 85 200 222 309c-21 37 -66 57 -130 69c-13 22 -10 38 10 52c81 54 107 94 107 113c0 8 -4 12 -12 12c-26 0 -67 -6 -104 -6c-20 0 -37 2 -51 6
c-60 -62 -148 -92 -212 -110c-44 -84 -126 -153 -171 -153c-26 0 -38 18 -38 41c0 70 61 115 137 143c5 17 9 33 9 48c0 19 -8 32 -31 32c-51 0 -139 -81 -139 -371c0 -93 10 -182 19 -246c-27 -6 -49 -9 -67 -9c-65 0 -85 42 -78 180c7 129 13 296 13 366
c0 73 2 112 -19 188c25 22 50 34 71 34c32 0 55 -27 55 -84c0 -29 -4 -55 -7 -63c38 32 118 96 176 96c26 0 52 -8 69 -22c23 -18 31 -45 31 -73c0 -15 -2 -31 -6 -47c51 18 107 43 143 79c-7 9 -11 21 -11 36c0 52 41 77 77 77c19 0 43 -8 43 -22c0 -15 -4 -30 -15 -49
c19 -2 39 -2 58 -2h52c69 0 116 -27 116 -74c0 -36 -38 -87 -101 -124c28 -4 66 -22 98 -53c86 54 209 118 267 118c32 0 36 -21 36 -41zM199 167c7 0 34 34 58 76c-37 -18 -62 -41 -62 -69c0 -4 1 -7 4 -7zM613 -182c34 0 154 128 154 248v3c-99 -84 -168 -179 -169 -232
c0 -12 4 -19 15 -19z" />
    <glyph glyph-name="uni04410437.liga" unicode="&#x441;&#x437;" horiz-adv-x="1051" 
d="M1138 281c-40 -9 -126 -37 -265 -128c12 -23 20 -49 20 -80c0 -164 -171 -323 -293 -323c-46 0 -79 24 -79 81c0 74 85 200 222 309c-21 37 -66 57 -130 69c-13 22 -10 38 10 52c81 54 107 94 107 113c0 8 -4 12 -12 12c-26 0 -67 -6 -104 -6c-14 0 -26 1 -37 3
c-56 -138 -211 -360 -384 -360c-137 0 -196 95 -196 196c0 112 73 230 211 230c76 0 138 -48 138 -87c0 -22 -17 -36 -56 -53c-24 41 -46 63 -73 63c-58 0 -87 -74 -87 -141s29 -132 99 -132c110 0 226 158 302 303c-14 10 -24 26 -24 49c0 52 41 77 77 77
c19 0 43 -8 43 -22c0 -15 -4 -30 -15 -49c19 -2 39 -2 58 -2h52c69 0 116 -27 116 -74c0 -36 -38 -87 -101 -124c28 -4 66 -22 98 -53c86 54 209 118 267 118c32 0 36 -21 36 -41zM605 -182c34 0 154 128 154 248v3c-99 -84 -168 -179 -169 -232c0 -12 4 -19 15 -19z" />
    <glyph glyph-name="uni04420437.liga" unicode="&#x442;&#x437;" horiz-adv-x="1402" 
d="M1492 281c-40 -9 -126 -37 -265 -128c12 -23 20 -49 20 -80c0 -164 -171 -323 -293 -323c-46 0 -79 24 -79 81c0 74 85 200 222 309c-21 37 -66 57 -130 69c-13 22 -10 38 10 52c81 54 107 94 107 113c0 8 -4 12 -12 12c-26 0 -67 -6 -104 -6c-11 0 -22 1 -31 2
c-51 -151 -149 -343 -302 -343c-56 0 -123 35 -123 127c0 64 12 114 12 155c0 7 -3 11 -6 11c-21 0 -40 -59 -65 -121c-27 -70 -60 -143 -106 -143c-25 0 -49 14 -65 39c3 19 19 95 19 176c0 16 1 66 -10 66c-35 0 -111 -300 -227 -300c-26 0 -54 11 -74 32
c11 127 35 247 0 351c18 17 42 27 65 27c58 0 75 -72 75 -150c0 -34 -3 -70 -8 -101c51 114 96 233 194 233c57 0 87 -49 87 -119c0 -11 0 -23 -1 -35c37 85 78 145 155 145c50 0 81 -35 81 -90c0 -47 -8 -106 -8 -152c0 -49 12 -77 48 -77c65 0 148 135 204 291
c-12 10 -21 25 -21 47c0 52 41 77 77 77c19 0 43 -8 43 -22c0 -15 -4 -30 -15 -49c19 -2 39 -2 58 -2h52c69 0 116 -27 116 -74c0 -36 -38 -87 -101 -124c28 -4 66 -22 98 -53c86 54 209 118 267 118c32 0 36 -21 36 -41zM959 -182c34 0 154 128 154 248v3
c-99 -84 -168 -179 -169 -232c0 -12 4 -19 15 -19z" />
    <glyph glyph-name="uni04430437.liga" unicode="&#x443;&#x437;" horiz-adv-x="1015" 
d="M1104 281c-40 -9 -126 -37 -265 -128c12 -23 20 -49 20 -80c0 -164 -171 -323 -293 -323c-46 0 -79 24 -79 81c0 74 85 200 222 309c-21 37 -66 57 -130 69c-13 22 -10 38 10 52c81 54 107 94 107 113c0 8 -4 12 -12 12c-26 0 -67 -6 -104 -6c-17 0 -33 2 -46 5
c-52 -79 -114 -132 -202 -198c-35 -345 -183 -450 -244 -450c-42 0 -80 38 -80 114c0 124 93 235 205 323c3 24 4 47 4 66v2c-39 -61 -84 -85 -121 -85c-67 0 -96 83 -96 163c0 28 2 52 2 77c0 18 -1 37 -4 58c9 8 31 14 54 14c32 0 66 -13 66 -53c0 -19 -8 -60 -8 -106
c0 -39 6 -69 30 -69c40 0 68 80 67 212c17 14 49 19 67 19c60 0 65 -52 65 -129c0 -28 -1 -54 -2 -79c69 53 115 102 148 150c-7 9 -12 21 -12 37c0 52 41 77 77 77c19 0 43 -8 43 -22c0 -15 -4 -30 -15 -49c19 -2 39 -2 58 -2h52c69 0 116 -27 116 -74
c0 -36 -38 -87 -101 -124c28 -4 66 -22 98 -53c86 54 209 118 267 118c32 0 36 -21 36 -41zM83 -197c42 0 90 144 116 279c-82 -77 -138 -161 -138 -244c0 -21 7 -35 22 -35zM571 -182c34 0 154 128 154 248v3c-99 -84 -168 -179 -169 -232c0 -12 4 -19 15 -19z" />
    <glyph glyph-name="uni04440437.liga" unicode="&#x444;&#x437;" horiz-adv-x="1408" 
d="M1496 281c-40 -9 -126 -37 -265 -128c12 -23 20 -49 20 -80c0 -164 -171 -323 -293 -323c-46 0 -79 24 -79 81c0 74 85 200 222 309c-21 37 -66 57 -130 69c-13 22 -10 38 10 52c81 54 107 94 107 113c0 8 -4 12 -12 12c-26 0 -67 -6 -104 -6c-21 0 -38 2 -52 7
c-51 -52 -124 -84 -185 -110v-11c0 -123 -83 -190 -140 -190c-50 0 -72 35 -72 77c0 66 45 115 107 147c-11 36 -29 62 -55 62c-104 0 -169 -319 -169 -474c0 -30 3 -75 13 -103c-22 -19 -51 -28 -67 -28c-41 0 -59 31 -58 96c0 51 3 179 4 316c-33 -58 -86 -107 -147 -107
c-99 0 -148 93 -148 186c0 95 56 191 167 191c47 0 101 -23 101 -65c0 -23 -21 -33 -37 -41c-15 26 -32 41 -53 41c-48 0 -74 -65 -74 -126c0 -55 19 -106 66 -106c41 0 89 60 125 148c-1 196 -7 285 -23 326c21 21 53 35 78 35c40 0 56 -29 56 -84c0 -41 -8 -193 -10 -344
c39 147 99 212 187 212c61 0 114 -39 137 -100c57 20 113 49 149 86c-4 8 -7 18 -7 30c0 52 41 77 77 77c19 0 43 -8 43 -22c0 -15 -4 -30 -15 -49c19 -2 39 -2 58 -2h52c69 0 116 -27 116 -74c0 -36 -38 -87 -101 -124c28 -4 66 -22 98 -53c86 54 209 118 267 118
c32 0 36 -21 36 -41zM607 118c24 0 36 54 33 111c-30 -23 -49 -52 -49 -87c0 -12 5 -24 16 -24zM963 -182c34 0 154 128 154 248v3c-99 -84 -168 -179 -169 -232c0 -12 4 -19 15 -19z" />
    <glyph glyph-name="uni044C0437.liga" unicode="&#x44c;&#x437;" horiz-adv-x="1044" 
d="M1133 281c-40 -9 -126 -37 -265 -128c12 -23 20 -49 20 -80c0 -164 -171 -323 -293 -323c-46 0 -79 24 -79 81c0 74 85 200 222 309c-21 37 -66 57 -130 69c-13 22 -10 38 10 52c81 54 107 94 107 113c0 8 -4 12 -12 12c-26 0 -67 -6 -104 -6c-13 0 -26 1 -36 3
c-59 -125 -147 -250 -249 -280c-22 -63 -80 -113 -156 -113c-135 0 -188 105 -188 205c0 79 18 158 18 216c0 21 -3 38 -7 56c6 1 14 3 30 3c100 0 110 -53 110 -102c0 -55 -21 -142 -21 -210c0 -44 13 -93 62 -93c24 0 41 17 51 38c-60 18 -89 65 -89 108c0 41 28 78 81 78
c66 0 113 -54 118 -120c65 32 129 116 187 238c-11 10 -18 24 -18 44c0 52 41 77 77 77c19 0 43 -8 43 -22c0 -15 -4 -30 -15 -49c19 -2 39 -2 58 -2h52c69 0 116 -27 116 -74c0 -36 -38 -87 -101 -124c28 -4 66 -22 98 -53c86 54 209 118 267 118c32 0 36 -21 36 -41z
M177 206c0 -21 26 -39 60 -48v8c0 37 -15 65 -38 65c-14 0 -22 -10 -22 -25zM600 -182c34 0 154 128 154 248v3c-99 -84 -168 -179 -169 -232c0 -12 4 -19 15 -19z" />
    <glyph glyph-name="uni044A0436.liga" unicode="&#x44a;&#x436;" horiz-adv-x="1626" 
d="M1672 354c22 -7 27 -25 21 -43c-14 -50 -204 -288 -375 -288c-109 0 -166 75 -177 163c-23 -31 -49 -66 -63 -88c0 -54 3 -114 17 -154c-22 -19 -45 -28 -61 -28c-41 0 -58 31 -58 96c0 80 6 140 6 206c-27 -38 -56 -72 -88 -106c-32 -67 -96 -104 -170 -104
c-69 0 -118 23 -118 61c0 12 5 26 17 42c22 -15 46 -27 68 -27c67 0 106 46 106 125c0 60 -27 124 -91 145c33 -97 -142 -283 -282 -319c-36 -66 -117 -112 -200 -112c-94 0 -145 67 -145 133c0 81 41 156 68 203c-87 3 -182 25 -182 109c0 59 66 100 114 100
c38 0 65 -14 65 -49c0 -26 -11 -48 -31 -78h19c22 0 45 1 67 1c76 0 96 -27 96 -51c0 -21 -13 -53 -29 -89c17 13 40 20 68 20c61 0 109 -54 109 -114v-6c81 33 164 118 192 197c-20 10 -30 31 -30 51c0 40 39 84 110 85c124 0 192 -101 199 -204c28 32 50 63 68 92l-1 133
c0 33 -6 64 -16 89c21 21 53 35 78 35c40 0 50 -29 50 -84c0 -81 -12 -196 -12 -297c17 22 44 60 69 93c26 85 95 157 193 157c87 0 108 -62 108 -86c0 -23 -18 -40 -52 -49c-22 14 -38 31 -49 48c-68 -23 -92 -77 -92 -144c0 -61 24 -120 94 -120c97 0 253 151 320 256z
M79 428c-15 0 -31 -25 -31 -53c0 -9 3 -15 9 -20c17 28 27 54 27 67c-1 4 -2 6 -5 6zM312 156c-14 0 -22 -11 -22 -24c1 -17 24 -34 57 -41c1 6 1 11 1 16c-1 25 -18 49 -36 49zM261 -2c29 0 51 16 65 38c-54 15 -87 53 -93 89c-10 -28 -18 -54 -18 -76c0 -33 18 -51 46 -51
z" />
    <glyph glyph-name="uni044A0437.liga" unicode="&#x44a;&#x437;" horiz-adv-x="1156" 
d="M1243 281c-40 -9 -126 -37 -265 -128c12 -23 20 -49 20 -80c0 -164 -171 -323 -293 -323c-46 0 -79 24 -79 81c0 74 85 200 222 309c-21 37 -66 57 -130 69c-13 22 -10 38 10 52c81 54 107 94 107 113c0 8 -4 12 -12 12c-26 0 -67 -6 -104 -6c-12 0 -23 1 -32 2
c-95 -237 -187 -321 -262 -345c-35 -67 -117 -114 -201 -114c-94 0 -145 67 -145 133c0 81 41 156 68 203c-87 3 -182 25 -182 109c0 59 66 100 114 100c38 0 65 -14 65 -49c0 -26 -11 -48 -31 -78h19c22 0 45 1 67 1c76 0 96 -27 96 -51c0 -21 -13 -53 -29 -89
c17 13 40 20 68 20c61 0 109 -54 109 -113c62 43 126 140 191 294c-13 10 -22 26 -22 48c0 52 41 77 77 77c19 0 43 -8 43 -22c0 -15 -4 -30 -15 -49c19 -2 39 -2 58 -2h52c69 0 116 -27 116 -74c0 -36 -38 -87 -101 -124c28 -4 66 -22 98 -53c86 54 209 118 267 118
c32 0 36 -21 36 -41zM79 428c-15 0 -31 -25 -31 -53c0 -9 3 -15 9 -20c17 28 27 54 27 67c-1 4 -2 6 -5 6zM312 156c-14 0 -22 -11 -22 -24c1 -19 21 -41 56 -48c1 8 2 16 2 23c-1 25 -18 49 -36 49zM261 -2c29 0 51 17 66 39c-44 14 -87 46 -94 88c-10 -28 -18 -54 -18 -76
c0 -33 18 -51 46 -51zM710 -182c34 0 154 128 154 248v3c-99 -84 -168 -179 -169 -232c0 -12 4 -19 15 -19z" />
    <glyph glyph-name="uni044B0437.liga" unicode="&#x44b;&#x437;" horiz-adv-x="1366" 
d="M1456 281c-40 -9 -126 -37 -265 -128c12 -23 20 -49 20 -80c0 -164 -171 -323 -293 -323c-46 0 -79 24 -79 81c0 74 85 200 222 309c-21 37 -66 57 -130 69c-13 22 -10 38 10 52c81 54 107 94 107 113c0 8 -4 12 -12 12c-26 0 -67 -6 -104 -6c-13 0 -24 1 -34 3
c-77 -201 -171 -380 -320 -380c-63 0 -124 42 -144 126c-3 16 -5 32 -6 47c-31 -28 -64 -51 -99 -63c-21 -63 -80 -114 -156 -114c-135 0 -188 105 -188 205c0 79 18 158 18 216c0 21 -3 38 -7 56c6 1 14 3 30 3c100 0 110 -53 110 -102c0 -55 -21 -142 -21 -210
c0 -44 13 -93 62 -93c24 0 41 17 51 38c-60 18 -89 65 -89 108c0 41 28 78 81 78c67 0 114 -56 118 -123c33 16 64 44 92 79c5 46 14 86 14 131c0 28 -3 50 -13 76c20 6 42 9 60 9c61 0 87 -41 87 -104c0 -70 -20 -156 -20 -209c0 -40 16 -76 55 -76c98 0 179 180 234 323
c-13 10 -22 25 -22 47c0 52 41 77 77 77c19 0 43 -8 43 -22c0 -15 -4 -30 -15 -49c19 -2 39 -2 58 -2h52c69 0 116 -27 116 -74c0 -36 -38 -87 -101 -124c28 -4 66 -22 98 -53c86 54 209 118 267 118c32 0 36 -21 36 -41zM182 215c0 -21 25 -43 59 -53c1 5 1 9 1 13
c0 37 -15 65 -38 65c-14 0 -22 -10 -22 -25zM923 -182c34 0 154 128 154 248v3c-99 -84 -168 -179 -169 -232c0 -12 4 -19 15 -19z" />
    <glyph glyph-name="uni044D0437.liga" unicode="&#x44d;&#x437;" horiz-adv-x="1046" 
d="M1136 281c-40 -9 -126 -37 -265 -128c12 -23 20 -49 20 -80c0 -164 -171 -323 -293 -323c-46 0 -79 24 -79 81c0 74 85 200 222 309c-21 37 -66 57 -130 69c-13 22 -10 38 10 52c81 54 107 94 107 113c0 8 -4 12 -12 12c-26 0 -67 -6 -104 -6c-12 0 -23 1 -33 2
c-30 -80 -87 -166 -181 -166c-15 0 -28 1 -39 2c0 -101 -69 -206 -215 -206c-76 0 -144 34 -144 99c0 29 22 52 65 52c13 -41 45 -64 72 -64c50 0 78 45 86 98c-15 -3 -32 -5 -48 -5c-72 0 -78 30 -67 73c40 -6 88 0 115 3c-9 55 -37 104 -84 104c-36 0 -61 -27 -77 -58
c-48 17 -58 32 -58 50c0 25 46 85 144 85c106 0 174 -70 200 -154c10 -6 24 -10 46 -10c62 0 98 45 134 118c-13 10 -23 25 -23 48c0 52 41 77 77 77c19 0 43 -8 43 -22c0 -15 -4 -30 -15 -49c19 -2 39 -2 58 -2h52c69 0 116 -27 116 -74c0 -36 -38 -87 -101 -124
c28 -4 66 -22 98 -53c86 54 209 118 267 118c32 0 36 -21 36 -41zM603 -182c34 0 154 128 154 248v3c-99 -84 -168 -179 -169 -232c0 -12 4 -19 15 -19z" />
    <glyph glyph-name="uni044E0437.liga" unicode="&#x44e;&#x437;" horiz-adv-x="1284" 
d="M1373 281c-40 -9 -126 -37 -265 -128c12 -23 20 -49 20 -80c0 -164 -171 -323 -293 -323c-46 0 -79 24 -79 81c0 74 85 200 222 309c-21 37 -66 57 -130 69c-13 22 -10 38 10 52c81 54 107 94 107 113c0 8 -4 12 -12 12c-26 0 -67 -6 -104 -6c-12 0 -23 1 -33 2
c-43 -93 -109 -177 -199 -177c-18 0 -37 3 -55 9c-15 -101 -81 -198 -192 -201c-135 0 -167 102 -170 193c-24 -18 -50 -42 -72 -80c2 -33 5 -65 12 -91c-12 -6 -39 -9 -56 -9c-78 0 -85 62 -85 129c0 73 8 128 8 178c0 28 -3 54 -10 79c21 19 50 32 76 32
c32 0 60 -20 60 -69c0 -39 -3 -93 -5 -149c24 23 53 43 81 56c24 80 94 166 205 166c93 0 142 -73 151 -158c18 -13 38 -19 58 -19c50 0 98 49 140 133c-12 10 -21 25 -21 47c0 52 41 77 77 77c19 0 43 -8 43 -22c0 -15 -4 -30 -15 -49c19 -2 39 -2 58 -2h52
c69 0 116 -27 116 -74c0 -36 -38 -87 -101 -124c28 -4 66 -22 98 -53c86 54 209 118 267 118c32 0 36 -21 36 -41zM384 87c39 2 56 85 56 156c0 70 -17 128 -46 128c-41 0 -63 -80 -63 -155c0 -67 18 -130 53 -129zM840 -182c34 0 154 128 154 248v3
c-99 -84 -168 -179 -169 -232c0 -12 4 -19 15 -19z" />
    <glyph glyph-name="uni044F0437.liga" unicode="&#x44f;&#x437;" horiz-adv-x="1069" 
d="M1158 281c-40 -9 -126 -37 -265 -128c12 -23 20 -49 20 -80c0 -164 -171 -323 -293 -323c-46 0 -79 24 -79 81c0 74 85 200 222 309c-21 37 -66 57 -130 69c-13 22 -10 38 10 52c81 54 107 94 107 113c0 8 -4 12 -12 12c-26 0 -67 -6 -104 -6c-11 0 -21 1 -30 2
c-68 -174 -149 -327 -274 -327c-42 0 -84 38 -91 111c-28 -83 -92 -161 -164 -161c-27 0 -57 16 -71 72c73 20 127 59 172 118c-27 -16 -52 -23 -75 -23c-67 0 -97 57 -97 116c0 95 77 189 170 189c49 0 79 -27 98 -52c8 10 20 14 35 14c11 0 39 -6 55 -23
c-11 -38 -26 -124 -26 -190c0 -49 8 -87 33 -87c70 0 141 143 187 260c-17 10 -29 26 -29 52c0 52 41 77 77 77c19 0 43 -8 43 -22c0 -15 -4 -30 -15 -49c19 -2 39 -2 58 -2h52c69 0 116 -27 116 -74c0 -36 -38 -87 -101 -124c28 -4 66 -22 98 -53c86 54 209 118 267 118
c32 0 36 -21 36 -41zM117 295c0 -19 12 -32 25 -32c44 0 77 53 104 115c-7 22 -19 37 -40 37c-43 0 -89 -57 -89 -120zM625 -182c34 0 154 128 154 248v3c-99 -84 -168 -179 -169 -232c0 -12 4 -19 15 -19z" />
    <glyph glyph-name=".notdef" horiz-adv-x="500" 
d="M410 730v-1000h-317v1000h317zM333 663h-165v-33h65v-37h-66v-33h166v33h-66v37h66v33zM267 534h-100v-104h166v34h-66v70zM233 500v-36h-33v36h33zM333 403h-166v-33h66v-37h-66v-33h100v70h66v33zM333 343h-33v-66h-133v-34h166v100zM333 221h-100v-56h34v23h33v-47
h-100v80h-33v-113h166v113zM333 48h-166v-113h166v113zM300 15v-47h-100v47h100zM333 -88h-166v-33h70l-70 -47v-33h166v33h-102l70 47h32v33z" />
    <glyph glyph-name="space" unicode=" " horiz-adv-x="187" 
 />
    <glyph glyph-name="A" unicode="A" horiz-adv-x="899" 
d="M784 186c0 -135 40 -203 76 -249c-16 -21 -45 -50 -94 -50c-81 0 -125 83 -125 211c0 24 2 51 4 81c-96 -24 -234 -22 -352 -4c-40 -100 -73 -210 -93 -328c-6 -38 0 -96 6 -132c-106 9 -159 26 -159 119c0 79 51 224 115 369c-54 17 -91 38 -99 60c-12 36 -2 85 -7 132
c47 -23 104 -49 166 -72c92 152 302 429 460 454c124 -16 107 -129 107 -253c0 -90 -5 -204 -5 -338zM344 286c99 -25 206 -38 309 -21c14 124 33 265 33 353c0 36 -12 63 -28 63c-76 -35 -208 -181 -314 -395z" />
    <glyph glyph-name="Aacute" unicode="&#xc1;" horiz-adv-x="899" 
d="M833 1031c0 -58 -107 -201 -179 -201c-17 0 -35 13 -49 25c82 96 93 161 102 188c19 12 41 18 65 18c30 0 61 -9 61 -30zM784 186c0 -135 40 -203 76 -249c-16 -21 -45 -50 -94 -50c-81 0 -125 83 -125 211c0 24 2 51 4 81c-96 -24 -234 -22 -352 -4
c-40 -100 -73 -210 -93 -328c-6 -38 0 -96 6 -132c-106 9 -159 26 -159 119c0 79 51 224 115 369c-54 17 -91 38 -99 60c-12 36 -2 85 -7 132c47 -23 104 -49 166 -72c92 152 302 429 460 454c124 -16 107 -129 107 -253c0 -90 -5 -204 -5 -338zM344 286
c99 -25 206 -38 309 -21c14 124 33 265 33 353c0 36 -12 63 -28 63c-76 -35 -208 -181 -314 -395z" />
    <glyph glyph-name="Abreve" unicode="&#x102;" horiz-adv-x="899" 
d="M686 840c-94 0 -164 79 -164 158c0 29 11 49 57 49c18 0 37 -4 52 -15c0 -56 14 -117 62 -117c61 0 63 74 63 117c14 11 33 15 53 15c45 0 56 -20 56 -49c0 -80 -78 -158 -179 -158zM789 524c0 -90 -5 -204 -5 -338c0 -135 40 -203 76 -249c-16 -21 -45 -50 -94 -50
c-81 0 -125 83 -125 211c0 24 2 51 4 81c-96 -24 -234 -22 -352 -4c-40 -100 -73 -210 -93 -328c-6 -38 0 -96 6 -132c-106 9 -159 26 -159 119c0 79 51 224 115 369c-54 17 -91 38 -99 60c-12 36 -2 85 -7 132c47 -23 104 -49 166 -72c92 152 302 429 460 454
c124 -16 107 -129 107 -253zM344 286c99 -25 206 -38 309 -21c14 124 33 265 33 353c0 36 -12 63 -28 63c-76 -35 -208 -181 -314 -395z" />
    <glyph glyph-name="Acircumflex" unicode="&#xc2;" horiz-adv-x="899" 
d="M689 1056c39 0 91 -52 201 -181c-12 -23 -27 -46 -52 -46c-46 0 -113 79 -149 133c-34 -54 -100 -133 -149 -133c-25 0 -40 23 -52 46c108 126 162 181 201 181zM789 524c0 -90 -5 -204 -5 -338c0 -135 40 -203 76 -249c-16 -21 -45 -50 -94 -50c-81 0 -125 83 -125 211
c0 24 2 51 4 81c-96 -24 -234 -22 -352 -4c-40 -100 -73 -210 -93 -328c-6 -38 0 -96 6 -132c-106 9 -159 26 -159 119c0 79 51 224 115 369c-54 17 -91 38 -99 60c-12 36 -2 85 -7 132c47 -23 104 -49 166 -72c92 152 302 429 460 454c124 -16 107 -129 107 -253zM344 286
c99 -25 206 -38 309 -21c14 124 33 265 33 353c0 36 -12 63 -28 63c-76 -35 -208 -181 -314 -395z" />
    <glyph glyph-name="Adieresis" unicode="&#xc4;" horiz-adv-x="899" 
d="M584 850c-48 0 -68 34 -68 68c0 47 35 75 77 75c48 0 72 -34 72 -69c0 -37 -26 -74 -81 -74zM780 850c-48 0 -68 34 -68 68c0 47 35 75 77 75c48 0 72 -34 72 -69c0 -37 -26 -74 -81 -74zM789 524c0 -90 -5 -204 -5 -338c0 -135 40 -203 76 -249c-16 -21 -45 -50 -94 -50
c-81 0 -125 83 -125 211c0 24 2 51 4 81c-96 -24 -234 -22 -352 -4c-40 -100 -73 -210 -93 -328c-6 -38 0 -96 6 -132c-106 9 -159 26 -159 119c0 79 51 224 115 369c-54 17 -91 38 -99 60c-12 36 -2 85 -7 132c47 -23 104 -49 166 -72c92 152 302 429 460 454
c124 -16 107 -129 107 -253zM344 286c99 -25 206 -38 309 -21c14 124 33 265 33 353c0 36 -12 63 -28 63c-76 -35 -208 -181 -314 -395z" />
    <glyph glyph-name="Agrave" unicode="&#xc0;" horiz-adv-x="899" 
d="M749 830c-72 0 -179 143 -179 201c0 21 31 30 61 30c24 0 46 -6 65 -18c9 -27 20 -92 102 -188c-14 -12 -32 -25 -49 -25zM784 186c0 -135 40 -203 76 -249c-16 -21 -45 -50 -94 -50c-81 0 -125 83 -125 211c0 24 2 51 4 81c-96 -24 -234 -22 -352 -4
c-40 -100 -73 -210 -93 -328c-6 -38 0 -96 6 -132c-106 9 -159 26 -159 119c0 79 51 224 115 369c-54 17 -91 38 -99 60c-12 36 -2 85 -7 132c47 -23 104 -49 166 -72c92 152 302 429 460 454c124 -16 107 -129 107 -253c0 -90 -5 -204 -5 -338zM344 286
c99 -25 206 -38 309 -21c14 124 33 265 33 353c0 36 -12 63 -28 63c-76 -35 -208 -181 -314 -395z" />
    <glyph glyph-name="Amacron" unicode="&#x100;" horiz-adv-x="899" 
d="M816 922c42 0 70 -6 70 -39c0 -15 -6 -39 -17 -53c-29 4 -52 6 -81 6c-23 0 -50 -1 -86 -2c-39 -2 -72 -3 -100 -3c-78 0 -110 11 -110 56c0 12 5 27 9 33c47 -3 153 -2 199 -2c42 0 83 4 116 4zM789 524c0 -90 -5 -204 -5 -338c0 -135 40 -203 76 -249
c-16 -21 -45 -50 -94 -50c-81 0 -125 83 -125 211c0 24 2 51 4 81c-96 -24 -234 -22 -352 -4c-40 -100 -73 -210 -93 -328c-6 -38 0 -96 6 -132c-106 9 -159 26 -159 119c0 79 51 224 115 369c-54 17 -91 38 -99 60c-12 36 -2 85 -7 132c47 -23 104 -49 166 -72
c92 152 302 429 460 454c124 -16 107 -129 107 -253zM344 286c99 -25 206 -38 309 -21c14 124 33 265 33 353c0 36 -12 63 -28 63c-76 -35 -208 -181 -314 -395z" />
    <glyph glyph-name="Aogonek" unicode="&#x104;" horiz-adv-x="899" 
d="M860 -202c18 -7 24 -22 24 -35c0 -38 -52 -63 -95 -63c-60 0 -118 35 -118 101c0 43 24 74 51 96c-53 25 -81 98 -81 201c0 24 2 51 4 81c-96 -24 -234 -22 -352 -4c-40 -100 -73 -210 -93 -328c-6 -38 0 -96 6 -132c-106 9 -159 26 -159 119c0 79 51 224 115 369
c-54 17 -91 38 -99 60c-12 36 -2 85 -7 132c47 -23 104 -49 166 -72c92 152 302 429 460 454c124 -16 107 -129 107 -253c0 -90 -5 -204 -5 -338c0 -135 40 -203 76 -249c-5 -6 -11 -13 -18 -20c-45 -44 -71 -76 -71 -103c0 -26 14 -38 34 -38c16 0 36 8 55 22zM344 286
c99 -25 206 -38 309 -21c14 124 33 265 33 353c0 36 -12 63 -28 63c-76 -35 -208 -181 -314 -395z" />
    <glyph glyph-name="Aring" unicode="&#xc5;" horiz-adv-x="899" 
d="M686 840c-54 0 -108 34 -108 104c0 69 55 104 109 104s108 -34 108 -104c0 -69 -55 -104 -109 -104zM687 999c-24 0 -37 -19 -37 -54c0 -37 12 -56 35 -56c24 0 37 19 37 56c0 35 -12 54 -35 54zM784 186c0 -135 40 -203 76 -249c-16 -21 -45 -50 -94 -50
c-81 0 -125 83 -125 211c0 24 2 51 4 81c-96 -24 -234 -22 -352 -4c-40 -100 -73 -210 -93 -328c-6 -38 0 -96 6 -132c-106 9 -159 26 -159 119c0 79 51 224 115 369c-54 17 -91 38 -99 60c-12 36 -2 85 -7 132c47 -23 104 -49 166 -72c92 152 302 429 460 454
c124 -16 107 -129 107 -253c0 -90 -5 -204 -5 -338zM344 286c99 -25 206 -38 309 -21c14 124 33 265 33 353c0 36 -12 63 -28 63c-76 -35 -208 -181 -314 -395z" />
    <glyph glyph-name="Atilde" unicode="&#xc3;" horiz-adv-x="899" 
d="M556 856c-40 0 -59 19 -59 45c0 47 56 97 112 97c66 0 119 -58 155 -58c27 0 46 33 57 52c40 0 60 -15 60 -39c0 -41 -50 -103 -112 -103c-64 0 -120 58 -156 58c-21 0 -45 -22 -57 -52zM789 524c0 -90 -5 -204 -5 -338c0 -135 40 -203 76 -249c-16 -21 -45 -50 -94 -50
c-81 0 -125 83 -125 211c0 24 2 51 4 81c-96 -24 -234 -22 -352 -4c-40 -100 -73 -210 -93 -328c-6 -38 0 -96 6 -132c-106 9 -159 26 -159 119c0 79 51 224 115 369c-54 17 -91 38 -99 60c-12 36 -2 85 -7 132c47 -23 104 -49 166 -72c92 152 302 429 460 454
c124 -16 107 -129 107 -253zM344 286c99 -25 206 -38 309 -21c14 124 33 265 33 353c0 36 -12 63 -28 63c-76 -35 -208 -181 -314 -395z" />
    <glyph glyph-name="AE" unicode="&#xc6;" horiz-adv-x="1406" 
d="M1254 -9c48 0 70 -32 70 -72c0 -35 -16 -77 -44 -109c-135 23 -215 -49 -384 -49c-186 0 -256 62 -256 251c0 45 6 106 15 172c-108 -27 -236 -26 -341 -12c-49 -113 -84 -228 -93 -325c-4 -38 0 -96 6 -132c-106 9 -180 26 -180 119c0 79 51 224 115 369
c-54 17 -91 38 -99 60c-12 36 -2 85 -7 132c47 -23 104 -49 166 -72c92 152 302 429 460 454c52 0 72 -27 103 -88c88 39 191 49 289 61c39 5 93 28 113 55c58 -18 80 -55 80 -93c0 -80 -154 -76 -264 -76c-135 0 -187 -63 -207 -171c-8 -48 -11 -105 -12 -170
c222 37 367 79 388 115c41 -20 66 -52 66 -77c0 -108 -282 -102 -457 -140c-16 -193 -17 -336 109 -336c129 0 265 134 364 134zM365 281c85 -20 206 -23 301 -11c16 108 32 217 36 284c4 81 -9 127 -44 127c-69 -26 -194 -203 -293 -400z" />
    <glyph glyph-name="B" unicode="B" horiz-adv-x="788" 
d="M534 314c137 -23 209 -131 209 -237c0 -100 -78 -220 -271 -220c-157 0 -182 56 -182 97c1 13 3 29 8 46c33 -14 70 -35 146 -35c122 0 176 84 176 162c0 70 -44 137 -131 137c-57 0 -78 -10 -129 -24c-36 0 -55 27 -55 50c0 26 25 48 77 48c14 0 29 -1 45 -3
c74 24 189 107 189 219c0 108 -106 153 -220 153c-32 0 -65 -3 -97 -10c7 -10 12 -22 12 -35c-70 -140 -105 -360 -105 -553c0 -146 20 -278 60 -348c-20 -12 -69 -18 -94 -18c-120 0 -125 122 -125 240c0 206 53 458 100 595c12 36 23 61 35 86c-57 -23 -107 -52 -141 -85
c-31 11 -48 37 -36 62c23 40 187 138 409 138c286 0 367 -127 367 -215c0 -135 -149 -228 -247 -250z" />
    <glyph glyph-name="C" unicode="C" horiz-adv-x="909" 
d="M500 -155c-244 0 -450 163 -450 410c0 242 193 504 531 504c187 0 302 -108 302 -225c0 -69 -30 -101 -67 -101c-49 0 -91 31 -91 40c1 10 36 61 36 107c0 71 -74 96 -150 96c-249 0 -396 -217 -396 -417c0 -169 106 -324 296 -324c195 0 289 128 306 160
c35 0 51 -21 51 -46c0 -84 -191 -204 -368 -204z" />
    <glyph glyph-name="Cacute" unicode="&#x106;" horiz-adv-x="909" 
d="M509 830c-17 0 -35 13 -49 25c82 96 93 161 102 188c19 12 41 18 65 18c30 0 61 -9 61 -30c0 -58 -107 -201 -179 -201zM500 -155c-244 0 -450 163 -450 410c0 242 193 504 531 504c187 0 302 -108 302 -225c0 -69 -30 -101 -67 -101c-49 0 -91 31 -91 40
c1 10 36 61 36 107c0 71 -74 96 -150 96c-249 0 -396 -217 -396 -417c0 -169 106 -324 296 -324c195 0 289 128 306 160c35 0 51 -21 51 -46c0 -84 -191 -204 -368 -204z" />
    <glyph glyph-name="Ccaron" unicode="&#x10c;" horiz-adv-x="909" 
d="M540 831c-39 0 -93 55 -201 181c12 23 27 46 52 46c49 0 123 -79 157 -133c36 54 95 133 141 133c25 0 40 -23 52 -46c-110 -129 -162 -181 -201 -181zM500 -155c-244 0 -450 163 -450 410c0 242 193 504 531 504c187 0 302 -108 302 -225c0 -69 -30 -101 -67 -101
c-49 0 -91 31 -91 40c1 10 36 61 36 107c0 71 -74 96 -150 96c-249 0 -396 -217 -396 -417c0 -169 106 -324 296 -324c195 0 289 128 306 160c35 0 51 -21 51 -46c0 -84 -191 -204 -368 -204z" />
    <glyph glyph-name="Ccedilla" unicode="&#xc7;" horiz-adv-x="909" 
d="M817 95c35 0 51 -21 51 -46c0 -79 -168 -189 -335 -203l-19 -39c46 -9 85 -39 85 -93c0 -57 -55 -99 -126 -99c-34 0 -89 15 -89 57c0 17 18 33 30 33c10 -12 28 -18 42 -18c25 0 41 19 41 40s-15 50 -50 50l-10 19l20 51c-225 18 -407 176 -407 408
c0 242 193 504 531 504c187 0 302 -108 302 -225c0 -69 -30 -101 -67 -101c-49 0 -91 31 -91 40c1 10 36 61 36 107c0 71 -74 96 -150 96c-249 0 -396 -217 -396 -417c0 -169 106 -324 296 -324c195 0 289 128 306 160z" />
    <glyph glyph-name="Cdotaccent" unicode="&#x10a;" horiz-adv-x="909" 
d="M543 852c-44 0 -66 31 -66 62c0 43 32 69 71 69c44 0 65 -31 65 -63c0 -34 -26 -68 -70 -68zM500 -155c-244 0 -450 163 -450 410c0 242 193 504 531 504c187 0 302 -108 302 -225c0 -69 -30 -101 -67 -101c-49 0 -91 31 -91 40c1 10 36 61 36 107c0 71 -74 96 -150 96
c-249 0 -396 -217 -396 -417c0 -169 106 -324 296 -324c195 0 289 128 306 160c35 0 51 -21 51 -46c0 -84 -191 -204 -368 -204z" />
    <glyph glyph-name="D" unicode="D" horiz-adv-x="837" 
d="M312 738c337 -30 482 -202 482 -382c0 -306 -389 -500 -595 -500c-66 0 -122 20 -134 83c305 0 575 188 575 422c0 162 -132 295 -352 308c-50 -135 -95 -328 -95 -550c0 -46 2 -93 6 -141c-7 -2 -13 -2 -21 -2c-85 0 -114 79 -114 174c0 172 61 380 116 514
c-57 -10 -90 -29 -138 -29c-49 0 -65 30 -65 64c0 10 1 19 3 28c80 11 154 16 222 16h13c14 28 26 47 35 55c21 -7 66 -24 62 -60z" />
    <glyph glyph-name="Eth" unicode="&#xd0;" horiz-adv-x="837" 
d="M312 738c337 -30 482 -202 482 -382c0 -306 -389 -500 -595 -500c-66 0 -122 20 -134 83c305 0 575 188 575 422c0 162 -132 295 -352 308c-28 -75 -55 -169 -72 -276c97 1 192 2 192 -53c0 -14 -8 -41 -23 -55c-59 8 -100 9 -183 9c-6 -56 -9 -114 -9 -175
c0 -46 2 -93 6 -141c-7 -2 -13 -2 -21 -2c-85 0 -114 79 -114 174c0 46 4 95 12 145c-110 2 -155 12 -155 60c0 10 7 29 13 40c50 -2 81 -2 161 -2c22 100 54 197 85 271c-57 -10 -90 -29 -138 -29c-49 0 -65 30 -65 64c0 10 1 19 3 28c80 11 154 16 222 16h13
c14 28 26 47 35 55c21 -7 66 -24 62 -60z" />
    <glyph glyph-name="Dcaron" unicode="&#x10e;" horiz-adv-x="837" 
d="M438 777c-39 0 -93 55 -201 181c12 23 27 46 52 46c49 0 123 -79 157 -133c36 54 95 133 141 133c25 0 40 -23 52 -46c-110 -129 -162 -181 -201 -181zM312 738c337 -30 482 -202 482 -382c0 -306 -389 -500 -595 -500c-66 0 -122 20 -134 83c305 0 575 188 575 422
c0 162 -132 295 -352 308c-50 -135 -95 -328 -95 -550c0 -46 2 -93 6 -141c-7 -2 -13 -2 -21 -2c-85 0 -114 79 -114 174c0 172 61 380 116 514c-57 -10 -90 -29 -138 -29c-49 0 -65 30 -65 64c0 10 1 19 3 28c80 11 154 16 222 16h13c14 28 26 47 35 55
c21 -7 66 -24 62 -60z" />
    <glyph glyph-name="Dcroat" unicode="&#x110;" horiz-adv-x="837" 
d="M312 738c337 -30 482 -202 482 -382c0 -306 -389 -500 -595 -500c-66 0 -122 20 -134 83c305 0 575 188 575 422c0 162 -132 295 -352 308c-28 -75 -55 -169 -72 -276c97 1 192 2 192 -53c0 -14 -8 -41 -23 -55c-59 8 -100 9 -183 9c-6 -56 -9 -114 -9 -175
c0 -46 2 -93 6 -141c-7 -2 -13 -2 -21 -2c-85 0 -114 79 -114 174c0 46 4 95 12 145c-110 2 -155 12 -155 60c0 10 7 29 13 40c50 -2 81 -2 161 -2c22 100 54 197 85 271c-57 -10 -90 -29 -138 -29c-49 0 -65 30 -65 64c0 10 1 19 3 28c80 11 154 16 222 16h13
c14 28 26 47 35 55c21 -7 66 -24 62 -60z" />
    <glyph glyph-name="E" unicode="E" horiz-adv-x="760" 
d="M447 807c197 0 368 -86 369 -180c0 -38 -29 -56 -62 -65c-67 96 -120 174 -280 174c-191 0 -283 -114 -281 -226c1 -61 30 -149 115 -197c37 7 76 11 120 11c67 0 136 -9 145 -51c12 -47 -45 -77 -116 -77c-46 0 -116 13 -188 39c-55 -29 -86 -85 -85 -141
c1 -84 87 -168 218 -168c147 0 252 79 298 124c23 -7 35 -21 32 -40s-98 -173 -374 -173c-188 0 -319 107 -321 225c-1 77 48 159 148 210c-97 51 -178 130 -180 238c-3 177 210 297 442 297z" />
    <glyph glyph-name="Eacute" unicode="&#xc9;" horiz-adv-x="760" 
d="M589 1039c0 -58 -107 -201 -179 -201c-17 0 -35 13 -49 25c82 96 93 161 102 188c19 12 41 18 65 18c30 0 61 -9 61 -30zM447 807c197 0 368 -86 369 -180c0 -38 -29 -56 -62 -65c-67 96 -120 174 -280 174c-191 0 -283 -114 -281 -226c1 -61 30 -149 115 -197
c37 7 76 11 120 11c67 0 136 -9 145 -51c12 -47 -45 -77 -116 -77c-46 0 -116 13 -188 39c-55 -29 -86 -85 -85 -141c1 -84 87 -168 218 -168c147 0 252 79 298 124c23 -7 35 -21 32 -40s-98 -173 -374 -173c-188 0 -319 107 -321 225c-1 77 48 159 148 210
c-97 51 -178 130 -180 238c-3 177 210 297 442 297z" />
    <glyph glyph-name="Ecaron" unicode="&#x11a;" horiz-adv-x="760" 
d="M441 839c-39 0 -93 55 -201 181c12 23 27 46 52 46c49 0 123 -79 157 -133c36 54 95 133 141 133c25 0 40 -23 52 -46c-110 -129 -162 -181 -201 -181zM447 807c197 0 368 -86 369 -180c0 -38 -29 -56 -62 -65c-67 96 -120 174 -280 174c-191 0 -283 -114 -281 -226
c1 -61 30 -149 115 -197c37 7 76 11 120 11c67 0 136 -9 145 -51c12 -47 -45 -77 -116 -77c-46 0 -116 13 -188 39c-55 -29 -86 -85 -85 -141c1 -84 87 -168 218 -168c147 0 252 79 298 124c23 -7 35 -21 32 -40s-98 -173 -374 -173c-188 0 -319 107 -321 225
c-1 77 48 159 148 210c-97 51 -178 130 -180 238c-3 177 210 297 442 297z" />
    <glyph glyph-name="Ecircumflex" unicode="&#xca;" horiz-adv-x="760" 
d="M296 837c-25 0 -40 23 -52 46c108 126 162 181 201 181s91 -52 201 -181c-12 -23 -27 -46 -52 -46c-46 0 -113 79 -149 133c-34 -54 -100 -133 -149 -133zM447 807c197 0 368 -86 369 -180c0 -38 -29 -56 -62 -65c-67 96 -120 174 -280 174c-191 0 -283 -114 -281 -226
c1 -61 30 -149 115 -197c37 7 76 11 120 11c67 0 136 -9 145 -51c12 -47 -45 -77 -116 -77c-46 0 -116 13 -188 39c-55 -29 -86 -85 -85 -141c1 -84 87 -168 218 -168c147 0 252 79 298 124c23 -7 35 -21 32 -40s-98 -173 -374 -173c-188 0 -319 107 -321 225
c-1 77 48 159 148 210c-97 51 -178 130 -180 238c-3 177 210 297 442 297z" />
    <glyph glyph-name="Edieresis" unicode="&#xcb;" horiz-adv-x="760" 
d="M340 858c-48 0 -68 34 -68 68c0 47 35 75 77 75c48 0 72 -34 72 -69c0 -37 -26 -74 -81 -74zM536 858c-48 0 -68 34 -68 68c0 47 35 75 77 75c48 0 72 -34 72 -69c0 -37 -26 -74 -81 -74zM447 807c197 0 368 -86 369 -180c0 -38 -29 -56 -62 -65
c-67 96 -120 174 -280 174c-191 0 -283 -114 -281 -226c1 -61 30 -149 115 -197c37 7 76 11 120 11c67 0 136 -9 145 -51c12 -47 -45 -77 -116 -77c-46 0 -116 13 -188 39c-55 -29 -86 -85 -85 -141c1 -84 87 -168 218 -168c147 0 252 79 298 124c23 -7 35 -21 32 -40
s-98 -173 -374 -173c-188 0 -319 107 -321 225c-1 77 48 159 148 210c-97 51 -178 130 -180 238c-3 177 210 297 442 297z" />
    <glyph glyph-name="Edotaccent" unicode="&#x116;" horiz-adv-x="760" 
d="M444 860c-44 0 -66 31 -66 62c0 43 32 69 71 69c44 0 65 -31 65 -63c0 -34 -26 -68 -70 -68zM447 807c197 0 368 -86 369 -180c0 -38 -29 -56 -62 -65c-67 96 -120 174 -280 174c-191 0 -283 -114 -281 -226c1 -61 30 -149 115 -197c37 7 76 11 120 11
c67 0 136 -9 145 -51c12 -47 -45 -77 -116 -77c-46 0 -116 13 -188 39c-55 -29 -86 -85 -85 -141c1 -84 87 -168 218 -168c147 0 252 79 298 124c23 -7 35 -21 32 -40s-98 -173 -374 -173c-188 0 -319 107 -321 225c-1 77 48 159 148 210c-97 51 -178 130 -180 238
c-3 177 210 297 442 297z" />
    <glyph glyph-name="Egrave" unicode="&#xc8;" horiz-adv-x="760" 
d="M505 838c-72 0 -179 143 -179 201c0 21 31 30 61 30c24 0 46 -6 65 -18c9 -27 20 -92 102 -188c-14 -12 -32 -25 -49 -25zM447 807c197 0 368 -86 369 -180c0 -38 -29 -56 -62 -65c-67 96 -120 174 -280 174c-191 0 -283 -114 -281 -226c1 -61 30 -149 115 -197
c37 7 76 11 120 11c67 0 136 -9 145 -51c12 -47 -45 -77 -116 -77c-46 0 -116 13 -188 39c-55 -29 -86 -85 -85 -141c1 -84 87 -168 218 -168c147 0 252 79 298 124c23 -7 35 -21 32 -40s-98 -173 -374 -173c-188 0 -319 107 -321 225c-1 77 48 159 148 210
c-97 51 -178 130 -180 238c-3 177 210 297 442 297z" />
    <glyph glyph-name="Emacron" unicode="&#x112;" horiz-adv-x="760" 
d="M358 839c-78 0 -110 11 -110 56c0 12 5 27 9 33c47 -3 153 -2 199 -2c42 0 83 4 116 4c42 0 70 -6 70 -39c0 -15 -6 -39 -17 -53c-29 4 -52 6 -81 6c-23 0 -50 -1 -86 -2c-39 -2 -72 -3 -100 -3zM447 807c197 0 368 -86 369 -180c0 -38 -29 -56 -62 -65
c-67 96 -120 174 -280 174c-191 0 -283 -114 -281 -226c1 -61 30 -149 115 -197c37 7 76 11 120 11c67 0 136 -9 145 -51c12 -47 -45 -77 -116 -77c-46 0 -116 13 -188 39c-55 -29 -86 -85 -85 -141c1 -84 87 -168 218 -168c147 0 252 79 298 124c23 -7 35 -21 32 -40
s-98 -173 -374 -173c-188 0 -319 107 -321 225c-1 77 48 159 148 210c-97 51 -178 130 -180 238c-3 177 210 297 442 297z" />
    <glyph glyph-name="Eogonek" unicode="&#x118;" horiz-adv-x="760" 
d="M447 807c197 0 368 -86 369 -180c0 -38 -29 -56 -62 -65c-67 96 -120 174 -280 174c-191 0 -283 -114 -281 -226c1 -61 30 -149 115 -197c37 7 76 11 120 11c67 0 136 -9 145 -51c12 -47 -45 -77 -116 -77c-46 0 -116 13 -188 39c-55 -29 -86 -85 -85 -141
c1 -84 87 -168 218 -168c147 0 252 79 298 124c23 -7 35 -21 32 -40c-2 -15 -62 -114 -222 -155c-41 -40 -64 -71 -64 -96c0 -26 14 -38 34 -38c16 0 36 8 55 22c18 -7 24 -22 24 -35c0 -38 -52 -63 -95 -63c-60 0 -118 35 -118 101c0 41 21 71 47 92c-12 -1 -23 -1 -35 -1
c-188 0 -319 107 -321 225c-1 77 48 159 148 210c-97 51 -178 130 -180 238c-3 177 210 297 442 297z" />
    <glyph glyph-name="F" unicode="F" horiz-adv-x="753" 
d="M931 905c27 -38 37 -74 37 -105c0 -53 -27 -90 -88 -97c-42 -4 -95 -7 -153 -9c-109 -5 -239 -12 -350 -35c6 -35 7 -70 7 -105c0 -44 -3 -91 -8 -141c9 3 19 5 30 7c61 13 126 22 177 22c60 0 101 -12 101 -47c0 -15 -20 -51 -40 -76c-45 12 -86 18 -144 10
c-50 -6 -96 -17 -137 -30c-10 -84 -19 -170 -19 -249s9 -150 38 -204c-35 -10 -65 -14 -91 -13c-67 5 -86 58 -86 124c0 58 18 173 34 292c-63 -32 -98 -61 -103 -63c9 40 0 93 33 123c4 3 26 32 86 62c8 71 14 136 11 182c-1 32 -8 53 -14 70c-71 -29 -118 -72 -118 -135
c0 -19 7 -37 24 -54c-61 -66 -139 -35 -139 39c0 179 207 252 387 290c158 33 273 59 381 82c88 18 117 38 144 60z" />
    <glyph glyph-name="G" unicode="G" horiz-adv-x="1008" 
d="M509 -137c-300 0 -449 205 -449 419c0 234 169 479 521 480c194 1 348 -98 350 -153c1 -28 -26 -71 -89 -81c-48 78 -139 154 -272 153c-221 -1 -350 -213 -350 -400c0 -168 96 -325 289 -325c194 0 335 131 335 232c0 42 -56 65 -131 54c-48 -6 -101 -15 -150 -15
c-54 0 -82 24 -82 60c0 24 11 51 34 79c57 -19 108 -20 160 -20c146 1 273 -18 273 -134c0 -228 -268 -349 -439 -349z" />
    <glyph glyph-name="Gbreve" unicode="&#x11e;" horiz-adv-x="1008" 
d="M569 840c-94 0 -164 79 -164 158c0 29 11 49 57 49c18 0 37 -4 52 -15c0 -56 14 -117 62 -117c61 0 63 74 63 117c14 11 33 15 53 15c45 0 56 -20 56 -49c0 -80 -78 -158 -179 -158zM509 -137c-300 0 -449 205 -449 419c0 234 169 479 521 480c194 1 348 -98 350 -153
c1 -28 -26 -71 -89 -81c-48 78 -139 154 -272 153c-221 -1 -350 -213 -350 -400c0 -168 96 -325 289 -325c194 0 335 131 335 232c0 42 -56 65 -131 54c-48 -6 -101 -15 -150 -15c-54 0 -82 24 -82 60c0 24 11 51 34 79c57 -19 108 -20 160 -20c146 1 273 -18 273 -134
c0 -228 -268 -349 -439 -349z" />
    <glyph glyph-name="Gcommaaccent" unicode="&#x122;" horiz-adv-x="1008" 
d="M509 -137c-300 0 -449 205 -449 419c0 234 169 479 521 480c194 1 348 -98 350 -153c1 -28 -26 -71 -89 -81c-48 78 -139 154 -272 153c-221 -1 -350 -213 -350 -400c0 -168 96 -325 289 -325c194 0 335 131 335 232c0 42 -56 65 -131 54c-48 -6 -101 -15 -150 -15
c-54 0 -82 24 -82 60c0 24 11 51 34 79c57 -19 108 -20 160 -20c146 1 273 -18 273 -134c0 -228 -268 -349 -439 -349zM508 -388c-15 0 -25 13 -31 29c25 26 41 43 46 70c-30 14 -43 40 -43 65c0 43 32 65 69 65c38 0 65 -35 65 -85c0 -51 -61 -144 -106 -144z" />
    <glyph glyph-name="Gdotaccent" unicode="&#x120;" horiz-adv-x="1008" 
d="M571 852c-44 0 -66 31 -66 62c0 43 32 69 71 69c44 0 65 -31 65 -63c0 -34 -26 -68 -70 -68zM509 -137c-300 0 -449 205 -449 419c0 234 169 479 521 480c194 1 348 -98 350 -153c1 -28 -26 -71 -89 -81c-48 78 -139 154 -272 153c-221 -1 -350 -213 -350 -400
c0 -168 96 -325 289 -325c194 0 335 131 335 232c0 42 -56 65 -131 54c-48 -6 -101 -15 -150 -15c-54 0 -82 24 -82 60c0 24 11 51 34 79c57 -19 108 -20 160 -20c146 1 273 -18 273 -134c0 -228 -268 -349 -439 -349z" />
    <glyph glyph-name="H" unicode="H" horiz-adv-x="815" 
d="M765 707c0 -139 -52 -362 -52 -568c0 -87 8 -164 38 -225c-35 -9 -82 -15 -108 -12c-129 9 -82 203 -60 330c2 14 5 28 7 43c-33 8 -98 23 -162 27c-75 6 -143 -1 -200 -12c-8 -57 -16 -109 -20 -146c-9 -73 -16 -152 -16 -240c0 -25 2 -58 7 -82
c-68 17 -150 29 -150 133c0 81 25 176 45 293c-60 -26 -95 -53 -98 -57c-18 10 -30 29 -30 46c0 35 61 76 144 111c13 85 20 157 20 209c0 82 -17 124 -57 168c47 59 77 78 106 78c63 0 83 -80 83 -187c0 -49 -9 -135 -21 -225c67 18 135 29 188 29s135 -7 153 -24
c9 -7 17 -15 23 -23c8 57 17 120 25 197c4 38 8 65 8 89c0 37 -9 70 -38 132c19 32 52 50 87 50c59 0 78 -53 78 -134z" />
    <glyph glyph-name="Hbar" unicode="&#x126;" horiz-adv-x="815" 
d="M758 599c36 -10 58 -24 58 -45c0 -14 -10 -39 -34 -53c-11 2 -23 4 -35 5c-15 -114 -34 -243 -34 -367c0 -87 8 -164 38 -225c-35 -9 -82 -15 -108 -12c-129 9 -82 203 -60 330c2 14 5 28 7 43c-33 8 -98 23 -162 27c-75 6 -143 -1 -200 -12c-8 -57 -16 -109 -20 -146
c-9 -73 -16 -152 -16 -240c0 -25 2 -58 7 -82c-68 17 -150 29 -150 133c0 81 25 176 45 293c-60 -26 -95 -53 -98 -57c-18 10 -30 29 -30 46c0 35 61 76 144 111c10 69 17 128 19 176c-59 4 -82 15 -82 45c0 10 11 27 20 38c22 -1 41 -1 60 -1c-6 52 -23 85 -54 119
c47 59 77 78 106 78c63 0 83 -80 83 -187v-3c48 3 109 6 194 6c60 0 123 0 179 -4c2 17 3 31 3 44c0 37 -9 70 -38 132c19 32 52 50 87 50c59 0 78 -53 78 -134c0 -32 -3 -68 -7 -108zM605 373c6 43 13 91 19 145c-70 5 -142 7 -190 7c-70 0 -129 -1 -177 -2
c-4 -40 -10 -85 -16 -132c67 18 135 29 188 29s135 -7 153 -24c9 -7 17 -15 23 -23z" />
    <glyph glyph-name="I" unicode="I" horiz-adv-x="678" 
d="M744 802c5 -22 3 -46 -7 -70c-10 -25 -41 -65 -120 -65c-92 0 -147 8 -218 10c4 -15 4 -33 1 -50c-8 -49 -30 -257 -32 -340c-4 -141 2 -255 23 -341c29 -2 56 -2 82 -1c79 3 116 8 136 28c52 -25 77 -122 -66 -131c-84 -6 -217 9 -293 8c-100 0 -153 -10 -213 -25
c-50 40 -52 132 51 134c63 1 120 -1 171 -5c-4 12 -7 25 -9 40c-11 66 -5 345 15 500c9 74 18 153 17 181c-116 -7 -206 -30 -221 -85c-29 0 -62 29 -58 73c17 95 168 126 379 126c91 0 215 -4 244 -4c69 0 86 6 118 17z" />
    <glyph glyph-name="Iacute" unicode="&#xcd;" horiz-adv-x="678" 
d="M531 1031c0 -58 -107 -201 -179 -201c-17 0 -35 13 -49 25c82 96 93 161 102 188c19 12 41 18 65 18c30 0 61 -9 61 -30zM744 802c5 -22 3 -46 -7 -70c-10 -25 -41 -65 -120 -65c-92 0 -147 8 -218 10c4 -15 4 -33 1 -50c-8 -49 -30 -257 -32 -340
c-4 -141 2 -255 23 -341c29 -2 56 -2 82 -1c79 3 116 8 136 28c52 -25 77 -122 -66 -131c-84 -6 -217 9 -293 8c-100 0 -153 -10 -213 -25c-50 40 -52 132 51 134c63 1 120 -1 171 -5c-4 12 -7 25 -9 40c-11 66 -5 345 15 500c9 74 18 153 17 181c-116 -7 -206 -30 -221 -85
c-29 0 -62 29 -58 73c17 95 168 126 379 126c91 0 215 -4 244 -4c69 0 86 6 118 17z" />
    <glyph glyph-name="Icircumflex" unicode="&#xce;" horiz-adv-x="678" 
d="M238 829c-25 0 -40 23 -52 46c108 126 162 181 201 181s91 -52 201 -181c-12 -23 -27 -46 -52 -46c-46 0 -113 79 -149 133c-34 -54 -100 -133 -149 -133zM744 802c5 -22 3 -46 -7 -70c-10 -25 -41 -65 -120 -65c-92 0 -147 8 -218 10c4 -15 4 -33 1 -50
c-8 -49 -30 -257 -32 -340c-4 -141 2 -255 23 -341c29 -2 56 -2 82 -1c79 3 116 8 136 28c52 -25 77 -122 -66 -131c-84 -6 -217 9 -293 8c-100 0 -153 -10 -213 -25c-50 40 -52 132 51 134c63 1 120 -1 171 -5c-4 12 -7 25 -9 40c-11 66 -5 345 15 500c9 74 18 153 17 181
c-116 -7 -206 -30 -221 -85c-29 0 -62 29 -58 73c17 95 168 126 379 126c91 0 215 -4 244 -4c69 0 86 6 118 17z" />
    <glyph glyph-name="Idieresis" unicode="&#xcf;" horiz-adv-x="678" 
d="M282 850c-48 0 -68 34 -68 68c0 47 35 75 77 75c48 0 72 -34 72 -69c0 -37 -26 -74 -81 -74zM478 850c-48 0 -68 34 -68 68c0 47 35 75 77 75c48 0 72 -34 72 -69c0 -37 -26 -74 -81 -74zM744 802c5 -22 3 -46 -7 -70c-10 -25 -41 -65 -120 -65c-92 0 -147 8 -218 10
c4 -15 4 -33 1 -50c-8 -49 -30 -257 -32 -340c-4 -141 2 -255 23 -341c29 -2 56 -2 82 -1c79 3 116 8 136 28c52 -25 77 -122 -66 -131c-84 -6 -217 9 -293 8c-100 0 -153 -10 -213 -25c-50 40 -52 132 51 134c63 1 120 -1 171 -5c-4 12 -7 25 -9 40c-11 66 -5 345 15 500
c9 74 18 153 17 181c-116 -7 -206 -30 -221 -85c-29 0 -62 29 -58 73c17 95 168 126 379 126c91 0 215 -4 244 -4c69 0 86 6 118 17z" />
    <glyph glyph-name="Idotaccent" unicode="&#x130;" horiz-adv-x="678" 
d="M386 852c-44 0 -66 31 -66 62c0 43 32 69 71 69c44 0 65 -31 65 -63c0 -34 -26 -68 -70 -68zM744 802c5 -22 3 -46 -7 -70c-10 -25 -41 -65 -120 -65c-92 0 -147 8 -218 10c4 -15 4 -33 1 -50c-8 -49 -30 -257 -32 -340c-4 -141 2 -255 23 -341c29 -2 56 -2 82 -1
c79 3 116 8 136 28c52 -25 77 -122 -66 -131c-84 -6 -217 9 -293 8c-100 0 -153 -10 -213 -25c-50 40 -52 132 51 134c63 1 120 -1 171 -5c-4 12 -7 25 -9 40c-11 66 -5 345 15 500c9 74 18 153 17 181c-116 -7 -206 -30 -221 -85c-29 0 -62 29 -58 73
c17 95 168 126 379 126c91 0 215 -4 244 -4c69 0 86 6 118 17z" />
    <glyph glyph-name="Igrave" unicode="&#xcc;" horiz-adv-x="678" 
d="M447 830c-72 0 -179 143 -179 201c0 21 31 30 61 30c24 0 46 -6 65 -18c9 -27 20 -92 102 -188c-14 -12 -32 -25 -49 -25zM744 802c5 -22 3 -46 -7 -70c-10 -25 -41 -65 -120 -65c-92 0 -147 8 -218 10c4 -15 4 -33 1 -50c-8 -49 -30 -257 -32 -340
c-4 -141 2 -255 23 -341c29 -2 56 -2 82 -1c79 3 116 8 136 28c52 -25 77 -122 -66 -131c-84 -6 -217 9 -293 8c-100 0 -153 -10 -213 -25c-50 40 -52 132 51 134c63 1 120 -1 171 -5c-4 12 -7 25 -9 40c-11 66 -5 345 15 500c9 74 18 153 17 181c-116 -7 -206 -30 -221 -85
c-29 0 -62 29 -58 73c17 95 168 126 379 126c91 0 215 -4 244 -4c69 0 86 6 118 17z" />
    <glyph glyph-name="Imacron" unicode="&#x12a;" horiz-adv-x="678" 
d="M300 831c-78 0 -110 11 -110 56c0 12 5 27 9 33c47 -3 153 -2 199 -2c42 0 83 4 116 4c42 0 70 -6 70 -39c0 -15 -6 -39 -17 -53c-29 4 -52 6 -81 6c-23 0 -50 -1 -86 -2c-39 -2 -72 -3 -100 -3zM744 802c5 -22 3 -46 -7 -70c-10 -25 -41 -65 -120 -65
c-92 0 -147 8 -218 10c4 -15 4 -33 1 -50c-8 -49 -30 -257 -32 -340c-4 -141 2 -255 23 -341c29 -2 56 -2 82 -1c79 3 116 8 136 28c52 -25 77 -122 -66 -131c-84 -6 -217 9 -293 8c-100 0 -153 -10 -213 -25c-50 40 -52 132 51 134c63 1 120 -1 171 -5c-4 12 -7 25 -9 40
c-11 66 -5 345 15 500c9 74 18 153 17 181c-116 -7 -206 -30 -221 -85c-29 0 -62 29 -58 73c17 95 168 126 379 126c91 0 215 -4 244 -4c69 0 86 6 118 17z" />
    <glyph glyph-name="Iogonek" unicode="&#x12e;" horiz-adv-x="678" 
d="M744 802c5 -22 3 -46 -7 -70c-10 -25 -41 -65 -120 -65c-92 0 -147 8 -218 10c4 -15 4 -33 1 -50c-8 -49 -30 -257 -32 -340c-4 -141 2 -255 23 -341c29 -2 56 -2 82 -1c79 3 116 8 136 28c52 -25 77 -122 -66 -131c-49 -3 -114 0 -175 4c-27 -29 -41 -53 -41 -73
c0 -26 14 -38 34 -38c16 0 36 8 55 22c18 -7 24 -22 24 -35c0 -38 -52 -63 -95 -63c-60 0 -118 35 -118 101c0 39 20 69 44 90h-21c-100 0 -153 -10 -213 -25c-50 40 -52 132 51 134c63 1 120 -1 171 -5c-4 12 -7 25 -9 40c-11 66 -5 345 15 500c9 74 18 153 17 181
c-116 -7 -206 -30 -221 -85c-29 0 -62 29 -58 73c17 95 168 126 379 126c91 0 215 -4 244 -4c69 0 86 6 118 17z" />
    <glyph glyph-name="J" unicode="J" horiz-adv-x="885" 
d="M863 745c-14 -22 -28 -51 -63 -73c-14 -29 -21 -65 -21 -118c0 -139 16 -264 16 -378c0 -220 -189 -364 -409 -364c-138 0 -316 96 -316 203c0 55 41 74 73 99c52 -78 172 -183 287 -183c149 0 253 110 253 290c0 106 -17 226 -17 328c0 31 3 60 8 86
c-14 0 -28 -1 -43 -1c-63 0 -126 9 -182 9c-104 0 -168 -43 -147 -120c-25 -16 -51 -24 -75 -24c-42 0 -77 25 -77 76c0 78 83 168 218 168c89 0 186 -25 266 -25c28 0 50 2 70 5c22 39 53 62 87 62c29 0 63 -17 72 -40z" />
    <glyph glyph-name="K" unicode="K" horiz-adv-x="724" 
d="M381 384c56 -173 212 -334 377 -384c-28 -74 -69 -101 -112 -102c-62 -2 -278 165 -355 422c-52 -41 -88 -87 -98 -154c0 -152 21 -219 35 -258c-19 -7 -67 -15 -100 -9c-79 15 -73 87 -73 241c0 215 43 431 43 554c0 29 -6 107 -14 128c114 13 142 -50 142 -122
s-14 -206 -24 -337c35 41 83 88 139 126c148 99 254 224 289 289c42 -9 97 -42 97 -95c0 -21 -20 -60 -56 -95c-41 -39 -108 -81 -223 -160c-23 -16 -46 -30 -67 -44z" />
    <glyph glyph-name="Kcommaaccent" unicode="&#x136;" horiz-adv-x="724" 
d="M381 384c56 -173 212 -334 377 -384c-28 -74 -69 -101 -112 -102c-62 -2 -278 165 -355 422c-52 -41 -88 -87 -98 -154c0 -152 21 -219 35 -258c-19 -7 -67 -15 -100 -9c-79 15 -73 87 -73 241c0 215 43 431 43 554c0 29 -6 107 -14 128c114 13 142 -50 142 -122
s-14 -206 -24 -337c35 41 83 88 139 126c148 99 254 224 289 289c42 -9 97 -42 97 -95c0 -21 -20 -60 -56 -95c-41 -39 -108 -81 -223 -160c-23 -16 -46 -30 -67 -44zM390 -117c38 0 65 -35 65 -85c0 -51 -61 -144 -106 -144c-15 0 -25 13 -31 29c25 26 41 43 46 70
c-30 14 -43 40 -43 65c0 43 32 65 69 65z" />
    <glyph glyph-name="L" unicode="L" horiz-adv-x="820" 
d="M778 -85c31 -32 48 -67 48 -95c0 -52 -50 -91 -160 -91c-156 0 -338 104 -475 127c-28 -38 -60 -56 -106 -56c-61 0 -101 35 -97 106c39 9 79 14 122 15c34 69 55 148 71 229c-36 -7 -73 -11 -110 -11c-73 0 -119 44 -111 103c83 0 165 10 241 30c37 262 55 516 286 516
c56 0 124 -63 124 -183c2 -168 -132 -337 -316 -418c-17 -111 -39 -212 -75 -270c86 -10 191 -40 338 -40c79 0 149 14 220 38zM479 717c-103 0 -135 -198 -165 -403c129 62 218 166 218 320c0 46 -21 83 -53 83z" />
    <glyph glyph-name="Lacute" unicode="&#x139;" horiz-adv-x="820" 
d="M623 1010c0 -58 -107 -201 -179 -201c-17 0 -35 13 -49 25c82 96 93 161 102 188c19 12 41 18 65 18c30 0 61 -9 61 -30zM778 -85c31 -32 48 -67 48 -95c0 -52 -50 -91 -160 -91c-156 0 -338 104 -475 127c-28 -38 -60 -56 -106 -56c-61 0 -101 35 -97 106
c39 9 79 14 122 15c34 69 55 148 71 229c-36 -7 -73 -11 -110 -11c-73 0 -119 44 -111 103c83 0 165 10 241 30c37 262 55 516 286 516c56 0 124 -63 124 -183c2 -168 -132 -337 -316 -418c-17 -111 -39 -212 -75 -270c86 -10 191 -40 338 -40c79 0 149 14 220 38zM479 717
c-103 0 -135 -198 -165 -403c129 62 218 166 218 320c0 46 -21 83 -53 83z" />
    <glyph glyph-name="Lcaron" unicode="&#x13d;" horiz-adv-x="820" 
d="M704 564c-16 0 -31 8 -43 26c53 76 60 149 63 186c38 16 108 17 108 -30c0 -71 -70 -182 -128 -182zM558 -123c79 0 149 14 220 38c31 -32 48 -67 48 -95c0 -52 -50 -91 -160 -91c-156 0 -338 104 -475 127c-28 -38 -60 -56 -106 -56c-61 0 -101 35 -97 106
c39 9 79 14 122 15c34 69 55 148 71 229c-36 -7 -73 -11 -110 -11c-73 0 -119 44 -111 103c83 0 165 10 241 30c37 262 55 516 286 516c56 0 124 -63 124 -183c2 -168 -132 -337 -316 -418c-17 -111 -39 -212 -75 -270c86 -10 191 -40 338 -40zM479 717
c-103 0 -135 -198 -165 -403c129 62 218 166 218 320c0 46 -21 83 -53 83z" />
    <glyph glyph-name="Lcommaaccent" unicode="&#x13b;" horiz-adv-x="820" 
d="M778 -85c31 -32 48 -67 48 -95c0 -52 -50 -91 -160 -91c-156 0 -338 104 -475 127c-28 -38 -60 -56 -106 -56c-61 0 -101 35 -97 106c39 9 79 14 122 15c34 69 55 148 71 229c-36 -7 -73 -11 -110 -11c-73 0 -119 44 -111 103c83 0 165 10 241 30c37 262 55 516 286 516
c56 0 124 -63 124 -183c2 -168 -132 -337 -316 -418c-17 -111 -39 -212 -75 -270c86 -10 191 -40 338 -40c79 0 149 14 220 38zM479 717c-103 0 -135 -198 -165 -403c129 62 218 166 218 320c0 46 -21 83 -53 83zM403 -240c38 0 65 -35 65 -85c0 -51 -61 -144 -106 -144
c-15 0 -25 13 -31 29c25 26 41 43 46 70c-30 14 -43 40 -43 65c0 43 32 65 69 65z" />
    <glyph glyph-name="Lslash" unicode="&#x141;" horiz-adv-x="820" 
d="M778 -85c31 -32 48 -67 48 -95c0 -52 -50 -91 -160 -91c-156 0 -338 104 -475 127c-28 -38 -60 -56 -106 -56c-61 0 -101 35 -97 106c39 9 79 14 122 15c34 69 55 148 71 229c-36 -7 -73 -11 -110 -11c-73 0 -119 44 -111 103c83 0 165 10 241 30c8 56 15 112 23 165
c-29 -3 -54 -6 -78 -13c-24 13 -42 36 -47 48c-12 41 56 55 144 62c34 147 94 254 244 254c56 0 124 -63 124 -183c0 -13 0 -26 -2 -38c31 5 55 11 81 18c9 -8 15 -15 20 -23c18 -30 4 -55 -37 -73c-22 -10 -52 -18 -91 -24c-49 -116 -155 -220 -287 -278
c-17 -111 -39 -212 -75 -270c86 -10 191 -40 338 -40c79 0 149 14 220 38zM479 717c-62 0 -99 -73 -124 -175c8 0 16 0 24 1c60 3 107 7 144 11c6 25 9 52 9 80c0 46 -21 83 -53 83zM334 444c-7 -42 -14 -86 -20 -130c70 33 128 79 167 139c-22 -2 -46 -3 -72 -5
c-27 -2 -52 -3 -75 -4z" />
    <glyph glyph-name="M" unicode="M" horiz-adv-x="1162" 
d="M1079 244c0 -320 36 -312 69 -378c-28 -32 -65 -47 -108 -47c-75 0 -92 94 -92 192c0 113 34 328 34 412c0 29 0 65 -12 65c-35 0 -172 -479 -232 -547l-1 -1c-17 -24 -44 -43 -75 -43c-63 0 -127 75 -127 241c0 97 26 275 26 479c0 26 -6 36 -20 36
c-105 0 -298 -572 -316 -802c-3 -38 1 -97 8 -133c-92 10 -174 19 -174 107c0 89 55 276 117 439c45 117 211 506 359 506c162 0 121 -315 136 -581c3 -63 5 -109 18 -144c188 471 226 609 312 609c39 0 84 -61 84 -168c0 -57 -6 -172 -6 -242z" />
    <glyph glyph-name="N" unicode="N" horiz-adv-x="832" 
d="M122 -135c-45 6 -72 49 -72 193c0 192 45 362 45 541c0 52 -5 90 -12 135c65 19 120 18 151 -11c26 -25 37 -70 44 -107c14 -76 123 -364 195 -480c45 -74 90 -134 118 -134c37 0 47 144 49 289c3 266 14 480 159 480c61 0 82 -68 82 -113c-48 -35 -90 -13 -109 -206
c-22 -226 35 -556 -161 -582c-210 -29 -385 579 -408 704c-7 -149 -4 -342 -4 -461c0 -71 6 -162 28 -232c-19 -12 -61 -23 -105 -16z" />
    <glyph glyph-name="Nacute" unicode="&#x143;" horiz-adv-x="832" 
d="M429 792c-17 0 -35 13 -49 25c82 96 93 161 102 188c19 12 41 18 65 18c30 0 61 -9 61 -30c0 -58 -107 -201 -179 -201zM122 -135c-45 6 -72 49 -72 193c0 192 45 362 45 541c0 52 -5 90 -12 135c65 19 120 18 151 -11c26 -25 37 -70 44 -107c14 -76 123 -364 195 -480
c45 -74 90 -134 118 -134c37 0 47 144 49 289c3 266 14 480 159 480c61 0 82 -68 82 -113c-48 -35 -90 -13 -109 -206c-22 -226 35 -556 -161 -582c-210 -29 -385 579 -408 704c-7 -149 -4 -342 -4 -461c0 -71 6 -162 28 -232c-19 -12 -61 -23 -105 -16z" />
    <glyph glyph-name="Ncaron" unicode="&#x147;" horiz-adv-x="832" 
d="M460 793c-39 0 -93 55 -201 181c12 23 27 46 52 46c49 0 123 -79 157 -133c36 54 95 133 141 133c25 0 40 -23 52 -46c-110 -129 -162 -181 -201 -181zM122 -135c-45 6 -72 49 -72 193c0 192 45 362 45 541c0 52 -5 90 -12 135c65 19 120 18 151 -11
c26 -25 37 -70 44 -107c14 -76 123 -364 195 -480c45 -74 90 -134 118 -134c37 0 47 144 49 289c3 266 14 480 159 480c61 0 82 -68 82 -113c-48 -35 -90 -13 -109 -206c-22 -226 35 -556 -161 -582c-210 -29 -385 579 -408 704c-7 -149 -4 -342 -4 -461
c0 -71 6 -162 28 -232c-19 -12 -61 -23 -105 -16z" />
    <glyph glyph-name="Ncommaaccent" unicode="&#x145;" horiz-adv-x="832" 
d="M122 -135c-45 6 -72 49 -72 193c0 192 45 362 45 541c0 52 -5 90 -12 135c65 19 120 18 151 -11c26 -25 37 -70 44 -107c14 -76 123 -364 195 -480c45 -74 90 -134 118 -134c37 0 47 144 49 289c3 266 14 480 159 480c61 0 82 -68 82 -113c-48 -35 -90 -13 -109 -206
c-22 -226 35 -556 -161 -582c-210 -29 -385 579 -408 704c-7 -149 -4 -342 -4 -461c0 -71 6 -162 28 -232c-19 -12 -61 -23 -105 -16zM362 -410c-15 0 -25 13 -31 29c25 26 41 43 46 70c-30 14 -43 40 -43 65c0 43 32 65 69 65c38 0 65 -35 65 -85c0 -51 -61 -144 -106 -144
z" />
    <glyph glyph-name="Eng" unicode="&#x14a;" horiz-adv-x="854" 
d="M799 771c61 0 82 -68 82 -113c-48 -35 -90 -13 -109 -206c-10 -103 -4 -228 -12 -336c-29 -412 -213 -461 -303 -461c-87 0 -125 48 -125 89c0 32 24 60 66 56c22 -40 48 -51 75 -51c46 0 92 23 123 120c-204 2 -384 606 -387 622c-7 -149 -10 -259 -10 -378
c0 -71 6 -162 28 -232c-19 -12 -61 -23 -105 -16c-45 6 -72 49 -72 193c0 192 45 362 45 541c0 52 -5 90 -12 135c65 19 120 18 151 -11c26 -25 37 -70 44 -107c14 -76 123 -364 195 -480c45 -74 73 -113 114 -113c45 0 51 123 53 268c3 266 14 480 159 480z" />
    <glyph glyph-name="Ntilde" unicode="&#xd1;" horiz-adv-x="832" 
d="M544 812c-64 0 -120 58 -156 58c-21 0 -45 -22 -57 -52c-40 0 -59 19 -59 45c0 47 56 97 112 97c66 0 119 -58 155 -58c27 0 46 33 57 52c40 0 60 -15 60 -39c0 -41 -50 -103 -112 -103zM122 -135c-45 6 -72 49 -72 193c0 192 45 362 45 541c0 52 -5 90 -12 135
c65 19 120 18 151 -11c26 -25 37 -70 44 -107c14 -76 123 -364 195 -480c45 -74 90 -134 118 -134c37 0 47 144 49 289c3 266 14 480 159 480c61 0 82 -68 82 -113c-48 -35 -90 -13 -109 -206c-22 -226 35 -556 -161 -582c-210 -29 -385 579 -408 704
c-7 -149 -4 -342 -4 -461c0 -71 6 -162 28 -232c-19 -12 -61 -23 -105 -16z" />
    <glyph glyph-name="O" unicode="O" horiz-adv-x="888" 
d="M416 -151c-203 0 -387 138 -387 461c0 144 52 383 170 383c24 0 47 -12 61 -37c-62 -65 -97 -186 -97 -320c0 -269 109 -408 244 -408c143 0 277 138 277 422c0 185 -58 350 -186 350c-93 0 -145 -90 -145 -178c0 -79 42 -156 134 -162c-9 -73 -52 -109 -98 -109
c-94 0 -141 96 -141 204c0 147 85 320 258 320c252 0 317 -268 317 -423c0 -339 -199 -503 -407 -503z" />
    <glyph glyph-name="Oacute" unicode="&#xd3;" horiz-adv-x="888" 
d="M389 830c-17 0 -35 13 -49 25c82 96 93 161 102 188c19 12 41 18 65 18c30 0 61 -9 61 -30c0 -58 -107 -201 -179 -201zM416 -151c-203 0 -387 138 -387 461c0 144 52 383 170 383c24 0 47 -12 61 -37c-62 -65 -97 -186 -97 -320c0 -269 109 -408 244 -408
c143 0 277 138 277 422c0 185 -58 350 -186 350c-93 0 -145 -90 -145 -178c0 -79 42 -156 134 -162c-9 -73 -52 -109 -98 -109c-94 0 -141 96 -141 204c0 147 85 320 258 320c252 0 317 -268 317 -423c0 -339 -199 -503 -407 -503z" />
    <glyph glyph-name="Ocircumflex" unicode="&#xd4;" horiz-adv-x="888" 
d="M275 829c-25 0 -40 23 -52 46c108 126 162 181 201 181s91 -52 201 -181c-12 -23 -27 -46 -52 -46c-46 0 -113 79 -149 133c-34 -54 -100 -133 -149 -133zM416 -151c-203 0 -387 138 -387 461c0 144 52 383 170 383c24 0 47 -12 61 -37c-62 -65 -97 -186 -97 -320
c0 -269 109 -408 244 -408c143 0 277 138 277 422c0 185 -58 350 -186 350c-93 0 -145 -90 -145 -178c0 -79 42 -156 134 -162c-9 -73 -52 -109 -98 -109c-94 0 -141 96 -141 204c0 147 85 320 258 320c252 0 317 -268 317 -423c0 -339 -199 -503 -407 -503z" />
    <glyph glyph-name="Odieresis" unicode="&#xd6;" horiz-adv-x="888" 
d="M319 850c-48 0 -68 34 -68 68c0 47 35 75 77 75c48 0 72 -34 72 -69c0 -37 -26 -74 -81 -74zM515 850c-48 0 -68 34 -68 68c0 47 35 75 77 75c48 0 72 -34 72 -69c0 -37 -26 -74 -81 -74zM416 -151c-203 0 -387 138 -387 461c0 144 52 383 170 383c24 0 47 -12 61 -37
c-62 -65 -97 -186 -97 -320c0 -269 109 -408 244 -408c143 0 277 138 277 422c0 185 -58 350 -186 350c-93 0 -145 -90 -145 -178c0 -79 42 -156 134 -162c-9 -73 -52 -109 -98 -109c-94 0 -141 96 -141 204c0 147 85 320 258 320c252 0 317 -268 317 -423
c0 -339 -199 -503 -407 -503z" />
    <glyph glyph-name="Ograve" unicode="&#xd2;" horiz-adv-x="888" 
d="M484 830c-72 0 -179 143 -179 201c0 21 31 30 61 30c24 0 46 -6 65 -18c9 -27 20 -92 102 -188c-14 -12 -32 -25 -49 -25zM416 -151c-203 0 -387 138 -387 461c0 144 52 383 170 383c24 0 47 -12 61 -37c-62 -65 -97 -186 -97 -320c0 -269 109 -408 244 -408
c143 0 277 138 277 422c0 185 -58 350 -186 350c-93 0 -145 -90 -145 -178c0 -79 42 -156 134 -162c-9 -73 -52 -109 -98 -109c-94 0 -141 96 -141 204c0 147 85 320 258 320c252 0 317 -268 317 -423c0 -339 -199 -503 -407 -503z" />
    <glyph glyph-name="Ohungarumlaut" unicode="&#x150;" horiz-adv-x="888" 
d="M504 832c-17 0 -35 13 -49 25c82 96 93 161 102 188c19 12 41 18 65 18c30 0 61 -9 61 -30c0 -58 -107 -201 -179 -201zM313 829c-17 0 -35 13 -49 25c82 96 93 161 102 188c19 12 41 18 65 18c30 0 61 -9 61 -30c0 -58 -107 -201 -179 -201zM416 -151
c-203 0 -387 138 -387 461c0 144 52 383 170 383c24 0 47 -12 61 -37c-62 -65 -97 -186 -97 -320c0 -269 109 -408 244 -408c143 0 277 138 277 422c0 185 -58 350 -186 350c-93 0 -145 -90 -145 -178c0 -79 42 -156 134 -162c-9 -73 -52 -109 -98 -109
c-94 0 -141 96 -141 204c0 147 85 320 258 320c252 0 317 -268 317 -423c0 -339 -199 -503 -407 -503z" />
    <glyph glyph-name="Omacron" unicode="&#x14c;" horiz-adv-x="888" 
d="M604 830c-29 4 -52 6 -81 6c-23 0 -50 -1 -86 -2c-39 -2 -72 -3 -100 -3c-78 0 -110 11 -110 56c0 12 5 27 9 33c47 -3 153 -2 199 -2c42 0 83 4 116 4c42 0 70 -6 70 -39c0 -15 -6 -39 -17 -53zM416 -151c-203 0 -387 138 -387 461c0 144 52 383 170 383
c24 0 47 -12 61 -37c-62 -65 -97 -186 -97 -320c0 -269 109 -408 244 -408c143 0 277 138 277 422c0 185 -58 350 -186 350c-93 0 -145 -90 -145 -178c0 -79 42 -156 134 -162c-9 -73 -52 -109 -98 -109c-94 0 -141 96 -141 204c0 147 85 320 258 320
c252 0 317 -268 317 -423c0 -339 -199 -503 -407 -503z" />
    <glyph glyph-name="Oslash" unicode="&#xd8;" horiz-adv-x="888" 
d="M743 647c60 -90 80 -210 80 -295c0 -339 -199 -503 -407 -503c-69 0 -137 16 -195 50c-28 -39 -47 -66 -53 -76c-44 24 -74 46 -74 82c0 6 15 30 41 66c-65 75 -106 186 -106 339c0 144 52 383 170 383c24 0 47 -12 61 -37c-62 -65 -97 -186 -97 -320
c0 -109 18 -197 48 -262c40 53 87 116 136 184c-66 24 -99 106 -99 197c0 147 85 320 258 320c66 0 120 -19 163 -49c18 29 31 50 36 61c40 -7 75 -32 81 -67c1 -3 -15 -30 -43 -73zM498 700c-93 0 -145 -90 -145 -178c0 -61 25 -120 78 -147c66 94 131 189 181 264
c-29 38 -67 61 -114 61zM407 -72c143 0 277 138 277 422c0 63 -7 123 -21 176c-60 -91 -136 -201 -209 -306c-63 -90 -125 -174 -175 -242c37 -33 81 -50 128 -50z" />
    <glyph glyph-name="Otilde" unicode="&#xd5;" horiz-adv-x="888" 
d="M504 850c-64 0 -120 58 -156 58c-21 0 -45 -22 -57 -52c-40 0 -59 19 -59 45c0 47 56 97 112 97c66 0 119 -58 155 -58c27 0 46 33 57 52c40 0 60 -15 60 -39c0 -41 -50 -103 -112 -103zM416 -151c-203 0 -387 138 -387 461c0 144 52 383 170 383c24 0 47 -12 61 -37
c-62 -65 -97 -186 -97 -320c0 -269 109 -408 244 -408c143 0 277 138 277 422c0 185 -58 350 -186 350c-93 0 -145 -90 -145 -178c0 -79 42 -156 134 -162c-9 -73 -52 -109 -98 -109c-94 0 -141 96 -141 204c0 147 85 320 258 320c252 0 317 -268 317 -423
c0 -339 -199 -503 -407 -503z" />
    <glyph glyph-name="OE" unicode="&#x152;" horiz-adv-x="1443" 
d="M1291 77c48 0 70 -32 70 -71c0 -34 -16 -76 -44 -107c-135 23 -215 -48 -384 -48c-134 0 -208 32 -239 119c-75 -81 -175 -121 -278 -121c-203 0 -387 138 -387 461c0 144 52 383 170 383c24 0 47 -12 61 -37c-62 -65 -97 -186 -97 -320c0 -269 109 -408 244 -408
c143 0 277 138 277 422c0 185 -58 350 -186 350c-93 0 -145 -90 -145 -178c0 -79 42 -156 134 -162c-9 -73 -52 -109 -98 -109c-94 0 -141 96 -141 204c0 147 85 320 258 320c84 0 148 -32 195 -79c90 92 340 57 438 69c39 5 93 27 113 54c58 -18 80 -54 80 -91
c0 -79 -154 -75 -264 -75c-135 0 -222 22 -235 -81c-5 -44 -10 -119 -12 -179c1 -6 1 -12 1 -18c138 -4 349 30 387 95c41 -19 56 -51 56 -75c0 -124 -276 -99 -446 -120c-1 -11 -2 -23 -4 -34c-13 -172 -6 -296 112 -296c129 0 265 132 364 132z" />
    <glyph glyph-name="P" unicode="P" horiz-adv-x="946" 
d="M411 129h-17c-4 -36 -6 -75 -6 -119c0 -69 9 -133 36 -182c-33 -8 -77 -13 -101 -10c-64 4 -83 51 -83 109c0 48 15 129 31 215c-32 9 -94 29 -96 67c-3 41 28 52 59 71c11 -18 30 -35 54 -48c14 77 25 150 25 200c0 35 -3 81 -37 123c26 24 94 53 129 18
c14 -12 29 -46 29 -82c0 -113 -17 -195 -31 -287h3c175 0 357 101 360 286v4c0 124 -112 221 -315 221c-131 0 -287 -64 -287 -164c0 -42 26 -60 53 -78c-14 -34 -53 -51 -88 -51c-59 0 -100 50 -100 108c0 105 150 268 462 268c236 0 434 -119 434 -299
c0 -179 -186 -370 -514 -370z" />
    <glyph glyph-name="Thorn" unicode="&#xde;" horiz-adv-x="855" 
d="M812 313c0 -155 -173 -321 -478 -321h-27c3 -61 14 -117 35 -162c-33 -9 -77 -15 -101 -12c-105 8 -87 150 -67 265l1 7c3 13 5 26 7 38c13 87 29 177 43 314c2 12 3 23 4 35c-70 -24 -124 -66 -124 -119c0 -36 23 -52 49 -67c-14 -30 -49 -44 -82 -44
c-55 0 -93 43 -93 93c0 71 83 170 252 213v3c-2 52 -8 76 -37 114c26 27 94 61 129 20c14 -13 29 -53 29 -94v-25c18 1 37 2 56 2c220 0 404 -103 404 -260zM306 57c8 -1 16 -1 24 -1c162 0 331 88 334 249v3c0 108 -104 193 -293 193c-7 0 -15 0 -22 -1
c-10 -153 -41 -266 -43 -443z" />
    <glyph glyph-name="Q" unicode="Q" horiz-adv-x="870" 
d="M951 -140c40 -135 -28 -191 -96 -191c-103 0 -276 153 -411 181c-9 -1 -18 -1 -27 -1c-211 0 -397 138 -403 461c-2 154 59 382 182 382c24 0 43 -12 53 -36c-62 -65 -109 -222 -106 -356c6 -269 123 -372 263 -372c184 0 273 221 269 422c-4 166 -53 320 -165 320
c-71 0 -109 -73 -123 -123c-67 -5 -103 37 -103 88c0 65 69 136 188 136c238 0 333 -197 336 -426c3 -184 -64 -370 -212 -452c70 -28 138 -64 244 -64c29 0 72 9 111 31z" />
    <glyph glyph-name="R" unicode="R" horiz-adv-x="883" 
d="M703 122c128 -181 205 -252 266 -271c-18 -83 -66 -119 -115 -110c-99 22 -178 212 -250 327c-31 51 -61 103 -92 132c-48 -10 -99 -15 -155 -15h-12c-8 -52 -13 -108 -13 -175c0 -69 9 -133 36 -182c-33 -8 -76 -13 -101 -10c-119 7 -80 165 -59 268c6 35 13 70 20 110
c-2 1 -5 1 -7 2c-32 8 -93 26 -96 61c-3 38 33 57 53 68c16 -17 38 -32 64 -43l9 74c6 34 7 67 6 99c-1 45 -8 65 -36 98c26 24 93 53 128 18c15 -12 29 -46 29 -82c0 -88 -10 -157 -21 -227c327 2 348 228 348 256c0 114 -110 203 -309 203c-128 0 -282 -59 -282 -150
c0 -37 26 -55 53 -71c-15 -31 -62 -53 -96 -53c-65 0 -89 42 -89 87c0 115 148 262 453 262c232 0 426 -109 426 -274c0 -111 -84 -227 -238 -291c26 -31 57 -78 80 -111z" />
    <glyph glyph-name="Racute" unicode="&#x154;" horiz-adv-x="883" 
d="M599 1031c0 -58 -107 -201 -179 -201c-17 0 -35 13 -49 25c82 96 93 161 102 188c19 12 41 18 65 18c30 0 61 -9 61 -30zM703 122c128 -181 205 -252 266 -271c-18 -83 -66 -119 -115 -110c-99 22 -178 212 -250 327c-31 51 -61 103 -92 132c-48 -10 -99 -15 -155 -15
h-12c-8 -52 -13 -108 -13 -175c0 -69 9 -133 36 -182c-33 -8 -76 -13 -101 -10c-119 7 -80 165 -59 268c6 35 13 70 20 110c-2 1 -5 1 -7 2c-32 8 -93 26 -96 61c-3 38 33 57 53 68c16 -17 38 -32 64 -43l9 74c6 34 7 67 6 99c-1 45 -8 65 -36 98c26 24 93 53 128 18
c15 -12 29 -46 29 -82c0 -88 -10 -157 -21 -227c327 2 348 228 348 256c0 114 -110 203 -309 203c-128 0 -282 -59 -282 -150c0 -37 26 -55 53 -71c-15 -31 -62 -53 -96 -53c-65 0 -89 42 -89 87c0 115 148 262 453 262c232 0 426 -109 426 -274c0 -111 -84 -227 -238 -291
c26 -31 57 -78 80 -111z" />
    <glyph glyph-name="Rcaron" unicode="&#x158;" horiz-adv-x="883" 
d="M451 831c-39 0 -93 55 -201 181c12 23 27 46 52 46c49 0 123 -79 157 -133c36 54 95 133 141 133c25 0 40 -23 52 -46c-110 -129 -162 -181 -201 -181zM703 122c128 -181 205 -252 266 -271c-18 -83 -66 -119 -115 -110c-99 22 -178 212 -250 327c-31 51 -61 103 -92 132
c-48 -10 -99 -15 -155 -15h-12c-8 -52 -13 -108 -13 -175c0 -69 9 -133 36 -182c-33 -8 -76 -13 -101 -10c-119 7 -80 165 -59 268c6 35 13 70 20 110c-2 1 -5 1 -7 2c-32 8 -93 26 -96 61c-3 38 33 57 53 68c16 -17 38 -32 64 -43l9 74c6 34 7 67 6 99c-1 45 -8 65 -36 98
c26 24 93 53 128 18c15 -12 29 -46 29 -82c0 -88 -10 -157 -21 -227c327 2 348 228 348 256c0 114 -110 203 -309 203c-128 0 -282 -59 -282 -150c0 -37 26 -55 53 -71c-15 -31 -62 -53 -96 -53c-65 0 -89 42 -89 87c0 115 148 262 453 262c232 0 426 -109 426 -274
c0 -111 -84 -227 -238 -291c26 -31 57 -78 80 -111z" />
    <glyph glyph-name="Rcommaaccent" unicode="&#x156;" horiz-adv-x="883" 
d="M703 122c128 -181 205 -252 266 -271c-18 -83 -66 -119 -115 -110c-99 22 -178 212 -250 327c-31 51 -61 103 -92 132c-48 -10 -99 -15 -155 -15h-12c-8 -52 -13 -108 -13 -175c0 -69 9 -133 36 -182c-33 -8 -76 -13 -101 -10c-119 7 -80 165 -59 268c6 35 13 70 20 110
c-2 1 -5 1 -7 2c-32 8 -93 26 -96 61c-3 38 33 57 53 68c16 -17 38 -32 64 -43l9 74c6 34 7 67 6 99c-1 45 -8 65 -36 98c26 24 93 53 128 18c15 -12 29 -46 29 -82c0 -88 -10 -157 -21 -227c327 2 348 228 348 256c0 114 -110 203 -309 203c-128 0 -282 -59 -282 -150
c0 -37 26 -55 53 -71c-15 -31 -62 -53 -96 -53c-65 0 -89 42 -89 87c0 115 148 262 453 262c232 0 426 -109 426 -274c0 -111 -84 -227 -238 -291c26 -31 57 -78 80 -111zM523 -224c38 0 65 -35 65 -85c0 -51 -61 -144 -106 -144c-15 0 -25 13 -31 29c25 26 41 43 46 70
c-30 14 -43 40 -43 65c0 43 32 65 69 65z" />
    <glyph glyph-name="S" unicode="S" horiz-adv-x="885" 
d="M414 -194c-186 0 -294 52 -294 121c0 24 11 49 35 73c73 -48 169 -99 296 -99c121 0 231 67 231 138c0 94 -171 110 -332 164c-186 63 -276 146 -276 277c0 210 201 303 421 303c156 0 351 -61 351 -157c0 -49 -75 -81 -113 -75c-8 33 -97 151 -264 151
c-128 0 -264 -77 -264 -175c0 -117 123 -166 258 -210c166 -53 351 -98 351 -246c0 -176 -210 -265 -400 -265z" />
    <glyph glyph-name="Sacute" unicode="&#x15a;" horiz-adv-x="885" 
d="M454 830c-17 0 -35 13 -49 25c82 96 93 161 102 188c19 12 41 18 65 18c30 0 61 -9 61 -30c0 -58 -107 -201 -179 -201zM414 -194c-186 0 -294 52 -294 121c0 24 11 49 35 73c73 -48 169 -99 296 -99c121 0 231 67 231 138c0 94 -171 110 -332 164
c-186 63 -276 146 -276 277c0 210 201 303 421 303c156 0 351 -61 351 -157c0 -49 -75 -81 -113 -75c-8 33 -97 151 -264 151c-128 0 -264 -77 -264 -175c0 -117 123 -166 258 -210c166 -53 351 -98 351 -246c0 -176 -210 -265 -400 -265z" />
    <glyph glyph-name="Scaron" unicode="&#x160;" horiz-adv-x="885" 
d="M485 831c-39 0 -93 55 -201 181c12 23 27 46 52 46c49 0 123 -79 157 -133c36 54 95 133 141 133c25 0 40 -23 52 -46c-110 -129 -162 -181 -201 -181zM414 -194c-186 0 -294 52 -294 121c0 24 11 49 35 73c73 -48 169 -99 296 -99c121 0 231 67 231 138
c0 94 -171 110 -332 164c-186 63 -276 146 -276 277c0 210 201 303 421 303c156 0 351 -61 351 -157c0 -49 -75 -81 -113 -75c-8 33 -97 151 -264 151c-128 0 -264 -77 -264 -175c0 -117 123 -166 258 -210c166 -53 351 -98 351 -246c0 -176 -210 -265 -400 -265z" />
    <glyph glyph-name="Scedilla" unicode="&#x15e;" horiz-adv-x="885" 
d="M469 702c-128 0 -264 -77 -264 -175c0 -117 123 -166 258 -210c166 -53 351 -98 351 -246c0 -153 -158 -240 -324 -260l-18 -37c46 -9 85 -39 85 -93c0 -57 -55 -99 -126 -99c-34 0 -89 15 -89 57c0 17 18 33 30 33c10 -12 28 -18 42 -18c25 0 41 19 41 40s-15 50 -50 50
l-10 19l17 43c-185 0 -292 52 -292 121c0 24 11 49 35 73c73 -48 169 -99 296 -99c121 0 231 67 231 138c0 94 -171 110 -332 164c-186 63 -276 146 -276 277c0 210 201 303 421 303c156 0 351 -61 351 -157c0 -49 -75 -81 -113 -75c-8 33 -97 151 -264 151z" />
    <glyph glyph-name="Scommaaccent" unicode="&#x218;" horiz-adv-x="885" 
d="M414 -194c-186 0 -294 52 -294 121c0 24 11 49 35 73c73 -48 169 -99 296 -99c121 0 231 67 231 138c0 94 -171 110 -332 164c-186 63 -276 146 -276 277c0 210 201 303 421 303c156 0 351 -61 351 -157c0 -49 -75 -81 -113 -75c-8 33 -97 151 -264 151
c-128 0 -264 -77 -264 -175c0 -117 123 -166 258 -210c166 -53 351 -98 351 -246c0 -176 -210 -265 -400 -265zM479 -461c-15 0 -25 13 -31 29c25 26 41 43 46 70c-30 14 -43 40 -43 65c0 43 32 65 69 65c38 0 65 -35 65 -85c0 -51 -61 -144 -106 -144z" />
    <glyph glyph-name="T" unicode="T" horiz-adv-x="699" 
d="M923 874c47 -18 64 -45 64 -66c0 -78 -191 -73 -301 -74c-27 0 -66 -1 -112 -2c1 -1 1 -2 1 -3c-27 -119 -60 -342 -60 -540c0 -133 14 -254 56 -327c-19 -11 -65 -17 -91 -17c-56 0 -103 32 -112 103c-5 34 -8 73 -8 116c0 202 41 520 97 660
c-129 -12 -258 -40 -258 -106c0 -32 25 -49 49 -62c-23 -27 -62 -45 -99 -45c-73 0 -105 51 -105 101c0 123 173 185 356 205c170 19 313 5 432 19c39 4 71 12 91 38z" />
    <glyph glyph-name="Tbar" unicode="&#x166;" horiz-adv-x="699" 
d="M987 808c0 -78 -191 -73 -301 -74c-27 0 -66 -1 -112 -2c1 -1 1 -2 1 -3c-19 -84 -41 -221 -53 -364c91 1 174 -1 174 -53c0 -14 -8 -41 -23 -55c-53 7 -90 9 -156 9c-1 -26 -2 -52 -2 -77c0 -133 14 -254 56 -327c-19 -11 -65 -17 -91 -17c-56 0 -103 32 -112 103
c-5 34 -8 73 -8 116c0 60 4 130 10 202c-114 2 -161 12 -161 61c0 10 7 29 13 40c50 -2 81 -2 159 -2c17 141 44 279 76 359c-129 -12 -258 -40 -258 -106c0 -32 25 -49 49 -62c-23 -27 -62 -45 -99 -45c-73 0 -105 51 -105 101c0 123 173 185 356 205c170 19 313 5 432 19
c39 4 71 12 91 38c47 -18 64 -45 64 -66z" />
    <glyph glyph-name="Tcaron" unicode="&#x164;" horiz-adv-x="699" 
d="M517 856c-39 0 -93 55 -201 181c12 23 27 46 52 46c49 0 123 -79 157 -133c36 54 95 133 141 133c25 0 40 -23 52 -46c-110 -129 -162 -181 -201 -181zM923 874c47 -18 64 -45 64 -66c0 -78 -191 -73 -301 -74c-27 0 -66 -1 -112 -2c1 -1 1 -2 1 -3
c-27 -119 -60 -342 -60 -540c0 -133 14 -254 56 -327c-19 -11 -65 -17 -91 -17c-56 0 -103 32 -112 103c-5 34 -8 73 -8 116c0 202 41 520 97 660c-129 -12 -258 -40 -258 -106c0 -32 25 -49 49 -62c-23 -27 -62 -45 -99 -45c-73 0 -105 51 -105 101c0 123 173 185 356 205
c170 19 313 5 432 19c39 4 71 12 91 38z" />
    <glyph glyph-name="uni0162" unicode="&#x162;" horiz-adv-x="699" 
d="M923 874c47 -18 64 -45 64 -66c0 -78 -191 -73 -301 -74c-27 0 -66 -1 -112 -2c1 -1 1 -2 1 -3c-27 -119 -60 -342 -60 -540c0 -133 14 -254 56 -327c-17 -10 -55 -16 -82 -17l-12 -25c46 -9 85 -39 85 -93c0 -57 -55 -99 -126 -99c-34 0 -89 15 -89 57c0 17 18 33 30 33
c10 -12 28 -18 42 -18c25 0 41 19 41 40s-15 50 -50 50l-10 19l20 51c-27 16 -47 45 -52 88c-5 34 -8 73 -8 116c0 202 41 520 97 660c-129 -12 -258 -40 -258 -106c0 -32 25 -49 49 -62c-23 -27 -62 -45 -99 -45c-73 0 -105 51 -105 101c0 123 173 185 356 205
c170 19 313 5 432 19c39 4 71 12 91 38z" />
    <glyph glyph-name="uni021A" unicode="&#x21a;" horiz-adv-x="699" 
d="M923 874c47 -18 64 -45 64 -66c0 -78 -191 -73 -301 -74c-27 0 -66 -1 -112 -2c1 -1 1 -2 1 -3c-27 -119 -60 -342 -60 -540c0 -133 14 -254 56 -327c-19 -11 -65 -17 -91 -17c-56 0 -103 32 -112 103c-5 34 -8 73 -8 116c0 202 41 520 97 660
c-129 -12 -258 -40 -258 -106c0 -32 25 -49 49 -62c-23 -27 -62 -45 -99 -45c-73 0 -105 51 -105 101c0 123 173 185 356 205c170 19 313 5 432 19c39 4 71 12 91 38zM525 -186c38 0 65 -35 65 -85c0 -51 -61 -144 -106 -144c-15 0 -25 13 -31 29c25 26 41 43 46 70
c-30 14 -43 40 -43 65c0 43 32 65 69 65z" />
    <glyph glyph-name="U" unicode="U" horiz-adv-x="871" 
d="M758 322c0 -97 10 -304 86 -388c-31 -31 -61 -43 -105 -43c-35 0 -68 16 -88 59c-17 38 -27 102 -31 178c-79 -166 -206 -314 -327 -314c-125 0 -233 117 -222 396c6 148 28 292 32 408c1 56 -8 78 -21 109c20 31 60 45 101 45s78 -29 78 -101c0 -108 -51 -294 -56 -485
c-5 -159 21 -252 96 -252c133 0 286 274 326 496c9 102 24 195 40 252c12 47 49 73 93 73c27 0 66 -13 77 -28c-22 -56 -79 -169 -79 -405z" />
    <glyph glyph-name="Uacute" unicode="&#xda;" horiz-adv-x="871" 
d="M616 993c0 -58 -107 -201 -179 -201c-17 0 -35 13 -49 25c82 96 93 161 102 188c19 12 41 18 65 18c30 0 61 -9 61 -30zM758 322c0 -97 10 -304 86 -388c-31 -31 -61 -43 -105 -43c-35 0 -68 16 -88 59c-17 38 -27 102 -31 178c-79 -166 -206 -314 -327 -314
c-125 0 -233 117 -222 396c6 148 28 292 32 408c1 56 -8 78 -21 109c20 31 60 45 101 45s78 -29 78 -101c0 -108 -51 -294 -56 -485c-5 -159 21 -252 96 -252c133 0 286 274 326 496c9 102 24 195 40 252c12 47 49 73 93 73c27 0 66 -13 77 -28c-22 -56 -79 -169 -79 -405z
" />
    <glyph glyph-name="Ucircumflex" unicode="&#xdb;" horiz-adv-x="871" 
d="M323 791c-25 0 -40 23 -52 46c108 126 162 181 201 181s91 -52 201 -181c-12 -23 -27 -46 -52 -46c-46 0 -113 79 -149 133c-34 -54 -100 -133 -149 -133zM758 322c0 -97 10 -304 86 -388c-31 -31 -61 -43 -105 -43c-35 0 -68 16 -88 59c-17 38 -27 102 -31 178
c-79 -166 -206 -314 -327 -314c-125 0 -233 117 -222 396c6 148 28 292 32 408c1 56 -8 78 -21 109c20 31 60 45 101 45s78 -29 78 -101c0 -108 -51 -294 -56 -485c-5 -159 21 -252 96 -252c133 0 286 274 326 496c9 102 24 195 40 252c12 47 49 73 93 73
c27 0 66 -13 77 -28c-22 -56 -79 -169 -79 -405z" />
    <glyph glyph-name="Udieresis" unicode="&#xdc;" horiz-adv-x="871" 
d="M367 812c-48 0 -68 34 -68 68c0 47 35 75 77 75c48 0 72 -34 72 -69c0 -37 -26 -74 -81 -74zM563 812c-48 0 -68 34 -68 68c0 47 35 75 77 75c48 0 72 -34 72 -69c0 -37 -26 -74 -81 -74zM758 322c0 -97 10 -304 86 -388c-31 -31 -61 -43 -105 -43c-35 0 -68 16 -88 59
c-17 38 -27 102 -31 178c-79 -166 -206 -314 -327 -314c-125 0 -233 117 -222 396c6 148 28 292 32 408c1 56 -8 78 -21 109c20 31 60 45 101 45s78 -29 78 -101c0 -108 -51 -294 -56 -485c-5 -159 21 -252 96 -252c133 0 286 274 326 496c9 102 24 195 40 252
c12 47 49 73 93 73c27 0 66 -13 77 -28c-22 -56 -79 -169 -79 -405z" />
    <glyph glyph-name="Ugrave" unicode="&#xd9;" horiz-adv-x="871" 
d="M532 792c-72 0 -179 143 -179 201c0 21 31 30 61 30c24 0 46 -6 65 -18c9 -27 20 -92 102 -188c-14 -12 -32 -25 -49 -25zM758 322c0 -97 10 -304 86 -388c-31 -31 -61 -43 -105 -43c-35 0 -68 16 -88 59c-17 38 -27 102 -31 178c-79 -166 -206 -314 -327 -314
c-125 0 -233 117 -222 396c6 148 28 292 32 408c1 56 -8 78 -21 109c20 31 60 45 101 45s78 -29 78 -101c0 -108 -51 -294 -56 -485c-5 -159 21 -252 96 -252c133 0 286 274 326 496c9 102 24 195 40 252c12 47 49 73 93 73c27 0 66 -13 77 -28c-22 -56 -79 -169 -79 -405z
" />
    <glyph glyph-name="Uhungarumlaut" unicode="&#x170;" horiz-adv-x="871" 
d="M552 794c-17 0 -35 13 -49 25c82 96 93 161 102 188c19 12 41 18 65 18c30 0 61 -9 61 -30c0 -58 -107 -201 -179 -201zM540 992c0 -58 -107 -201 -179 -201c-17 0 -35 13 -49 25c82 96 93 161 102 188c19 12 41 18 65 18c30 0 61 -9 61 -30zM758 322
c0 -97 10 -304 86 -388c-31 -31 -61 -43 -105 -43c-35 0 -68 16 -88 59c-17 38 -27 102 -31 178c-79 -166 -206 -314 -327 -314c-125 0 -233 117 -222 396c6 148 28 292 32 408c1 56 -8 78 -21 109c20 31 60 45 101 45s78 -29 78 -101c0 -108 -51 -294 -56 -485
c-5 -159 21 -252 96 -252c133 0 286 274 326 496c9 102 24 195 40 252c12 47 49 73 93 73c27 0 66 -13 77 -28c-22 -56 -79 -169 -79 -405z" />
    <glyph glyph-name="Umacron" unicode="&#x16a;" horiz-adv-x="871" 
d="M385 793c-78 0 -110 11 -110 56c0 12 5 27 9 33c47 -3 153 -2 199 -2c42 0 83 4 116 4c42 0 70 -6 70 -39c0 -15 -6 -39 -17 -53c-29 4 -52 6 -81 6c-23 0 -50 -1 -86 -2c-39 -2 -72 -3 -100 -3zM758 322c0 -97 10 -304 86 -388c-31 -31 -61 -43 -105 -43
c-35 0 -68 16 -88 59c-17 38 -27 102 -31 178c-79 -166 -206 -314 -327 -314c-125 0 -233 117 -222 396c6 148 28 292 32 408c1 56 -8 78 -21 109c20 31 60 45 101 45s78 -29 78 -101c0 -108 -51 -294 -56 -485c-5 -159 21 -252 96 -252c133 0 286 274 326 496
c9 102 24 195 40 252c12 47 49 73 93 73c27 0 66 -13 77 -28c-22 -56 -79 -169 -79 -405z" />
    <glyph glyph-name="Uogonek" unicode="&#x172;" horiz-adv-x="871" 
d="M803 -217c18 -7 24 -22 24 -35c0 -38 -52 -63 -95 -63c-60 0 -118 35 -118 101c-1 59 46 96 81 115c-17 9 -33 25 -44 49c-17 38 -27 102 -31 178c-79 -166 -206 -314 -327 -314c-125 0 -233 117 -222 396c6 148 28 292 32 408c1 56 -8 78 -21 109c20 31 60 45 101 45
s78 -29 78 -101c0 -108 -51 -294 -56 -485c-5 -159 21 -252 96 -252c133 0 286 274 326 496c9 102 24 195 40 252c12 47 49 73 93 73c27 0 66 -13 77 -28c-22 -56 -79 -169 -79 -405c0 -97 10 -304 86 -388c-21 -21 -42 -33 -66 -39c-41 -40 -64 -71 -64 -96
c0 -26 14 -38 34 -38c16 0 36 8 55 22z" />
    <glyph glyph-name="Uring" unicode="&#x16e;" horiz-adv-x="871" 
d="M469 802c-54 0 -108 34 -108 104c0 69 55 104 109 104s108 -34 108 -104c0 -69 -55 -104 -109 -104zM470 961c-24 0 -37 -19 -37 -54c0 -37 12 -56 35 -56c24 0 37 19 37 56c0 35 -12 54 -35 54zM758 322c0 -97 10 -304 86 -388c-31 -31 -61 -43 -105 -43
c-35 0 -68 16 -88 59c-17 38 -27 102 -31 178c-79 -166 -206 -314 -327 -314c-125 0 -233 117 -222 396c6 148 28 292 32 408c1 56 -8 78 -21 109c20 31 60 45 101 45s78 -29 78 -101c0 -108 -51 -294 -56 -485c-5 -159 21 -252 96 -252c133 0 286 274 326 496
c9 102 24 195 40 252c12 47 49 73 93 73c27 0 66 -13 77 -28c-22 -56 -79 -169 -79 -405z" />
    <glyph glyph-name="V" unicode="V" horiz-adv-x="911" 
d="M440 -187c-33 0 -114 80 -127 117c-36 125 -45 201 -101 392c-59 209 -117 261 -185 299c2 59 39 93 90 93c183 0 238 -401 310 -712c5 -26 12 -43 36 -57c100 34 265 298 265 557c0 116 -30 229 -111 314c34 18 49 29 81 29c136 0 162 -203 162 -303
c0 -349 -290 -729 -420 -729z" />
    <glyph glyph-name="W" unicode="W" horiz-adv-x="1087" 
d="M168 -154c-91 0 -121 73 -132 149c-13 90 -13 224 -13 338c0 66 -8 167 -57 218c48 32 97 87 145 87c61 0 67 -88 67 -145c0 -104 -29 -300 -29 -412c0 -58 18 -93 44 -93c53 0 132 201 132 515c0 98 112 134 139 134c36 0 45 -34 52 -73c28 -173 -6 -557 153 -557
c17 0 192 37 195 457c0 105 -28 302 -71 393c29 6 56 9 80 9c120 0 149 -112 149 -330c-5 -220 -84 -656 -349 -656c-223 0 -234 476 -273 536c-7 -86 -25 -202 -43 -289c-22 -137 -95 -281 -189 -281z" />
    <glyph glyph-name="Wacute" unicode="&#x1e82;" horiz-adv-x="1087" 
d="M402 759c-17 0 -35 13 -49 25c82 96 93 161 102 188c19 12 41 18 65 18c30 0 61 -9 61 -30c0 -58 -107 -201 -179 -201zM168 -154c-91 0 -121 73 -132 149c-13 90 -13 224 -13 338c0 66 -8 167 -57 218c48 32 97 87 145 87c61 0 67 -88 67 -145c0 -104 -29 -300 -29 -412
c0 -58 18 -93 44 -93c53 0 132 201 132 515c0 98 112 134 139 134c36 0 45 -34 52 -73c28 -173 -6 -557 153 -557c17 0 192 37 195 457c0 105 -28 302 -71 393c29 6 56 9 80 9c120 0 149 -112 149 -330c-5 -220 -84 -656 -349 -656c-223 0 -234 476 -273 536
c-7 -86 -25 -202 -43 -289c-22 -137 -95 -281 -189 -281z" />
    <glyph glyph-name="Wcircumflex" unicode="&#x174;" horiz-adv-x="1087" 
d="M288 758c-25 0 -40 23 -52 46c108 126 162 181 201 181s91 -52 201 -181c-12 -23 -27 -46 -52 -46c-46 0 -113 79 -149 133c-34 -54 -100 -133 -149 -133zM168 -154c-91 0 -121 73 -132 149c-13 90 -13 224 -13 338c0 66 -8 167 -57 218c48 32 97 87 145 87
c61 0 67 -88 67 -145c0 -104 -29 -300 -29 -412c0 -58 18 -93 44 -93c53 0 132 201 132 515c0 98 112 134 139 134c36 0 45 -34 52 -73c28 -173 -6 -557 153 -557c17 0 192 37 195 457c0 105 -28 302 -71 393c29 6 56 9 80 9c120 0 149 -112 149 -330
c-5 -220 -84 -656 -349 -656c-223 0 -234 476 -273 536c-7 -86 -25 -202 -43 -289c-22 -137 -95 -281 -189 -281z" />
    <glyph glyph-name="Wdieresis" unicode="&#x1e84;" horiz-adv-x="1087" 
d="M332 779c-48 0 -68 34 -68 68c0 47 35 75 77 75c48 0 72 -34 72 -69c0 -37 -26 -74 -81 -74zM528 779c-48 0 -68 34 -68 68c0 47 35 75 77 75c48 0 72 -34 72 -69c0 -37 -26 -74 -81 -74zM168 -154c-91 0 -121 73 -132 149c-13 90 -13 224 -13 338c0 66 -8 167 -57 218
c48 32 97 87 145 87c61 0 67 -88 67 -145c0 -104 -29 -300 -29 -412c0 -58 18 -93 44 -93c53 0 132 201 132 515c0 98 112 134 139 134c36 0 45 -34 52 -73c28 -173 -6 -557 153 -557c17 0 192 37 195 457c0 105 -28 302 -71 393c29 6 56 9 80 9c120 0 149 -112 149 -330
c-5 -220 -84 -656 -349 -656c-223 0 -234 476 -273 536c-7 -86 -25 -202 -43 -289c-22 -137 -95 -281 -189 -281z" />
    <glyph glyph-name="Wgrave" unicode="&#x1e80;" horiz-adv-x="1087" 
d="M497 759c-72 0 -179 143 -179 201c0 21 31 30 61 30c24 0 46 -6 65 -18c9 -27 20 -92 102 -188c-14 -12 -32 -25 -49 -25zM168 -154c-91 0 -121 73 -132 149c-13 90 -13 224 -13 338c0 66 -8 167 -57 218c48 32 97 87 145 87c61 0 67 -88 67 -145
c0 -104 -29 -300 -29 -412c0 -58 18 -93 44 -93c53 0 132 201 132 515c0 98 112 134 139 134c36 0 45 -34 52 -73c28 -173 -6 -557 153 -557c17 0 192 37 195 457c0 105 -28 302 -71 393c29 6 56 9 80 9c120 0 149 -112 149 -330c-5 -220 -84 -656 -349 -656
c-223 0 -234 476 -273 536c-7 -86 -25 -202 -43 -289c-22 -137 -95 -281 -189 -281z" />
    <glyph glyph-name="X" unicode="X" horiz-adv-x="804" 
d="M730 625c-90 0 -153 -100 -312 -341l-8 -12c101 -168 234 -247 330 -272c12 -78 -11 -151 -69 -151c-55 0 -132 72 -211 172c-42 53 -80 106 -113 157c-39 -58 -84 -124 -136 -199c-62 -86 -98 -149 -197 -149c-76 0 -100 82 -79 116c46 -5 80 -6 138 49
c44 43 111 139 205 295c-86 150 -128 272 -128 329c0 74 55 123 120 118c13 -132 40 -242 76 -334c171 272 273 348 352 348c77 0 124 -55 107 -139c-28 8 -53 13 -75 13z" />
    <glyph glyph-name="Y" unicode="Y" horiz-adv-x="721" 
d="M534 590c1 134 54 181 164 165c-27 -65 -28 -129 -28 -402c0 -282 -124 -523 -399 -523c-67 0 -212 24 -213 102c0 32 20 55 64 82c51 -73 125 -98 158 -98c212 0 254 192 257 407c-63 -131 -154 -191 -233 -191c-190 0 -248 197 -248 361c0 97 20 181 47 209
c33 32 85 50 165 48c0 0 -71 -107 -71 -309c0 -144 41 -216 115 -216c77 0 192 95 222 365z" />
    <glyph glyph-name="Yacute" unicode="&#xdd;" horiz-adv-x="721" 
d="M545 993c0 -58 -107 -201 -179 -201c-17 0 -35 13 -49 25c82 96 93 161 102 188c19 12 41 18 65 18c30 0 61 -9 61 -30zM534 590c1 134 54 181 164 165c-27 -65 -28 -129 -28 -402c0 -282 -124 -523 -399 -523c-67 0 -212 24 -213 102c0 32 20 55 64 82
c51 -73 125 -98 158 -98c212 0 254 192 257 407c-63 -131 -154 -191 -233 -191c-190 0 -248 197 -248 361c0 97 20 181 47 209c33 32 85 50 165 48c0 0 -71 -107 -71 -309c0 -144 41 -216 115 -216c77 0 192 95 222 365z" />
    <glyph glyph-name="Ycircumflex" unicode="&#x176;" horiz-adv-x="721" 
d="M252 791c-25 0 -40 23 -52 46c108 126 162 181 201 181s91 -52 201 -181c-12 -23 -27 -46 -52 -46c-46 0 -113 79 -149 133c-34 -54 -100 -133 -149 -133zM534 590c1 134 54 181 164 165c-27 -65 -28 -129 -28 -402c0 -282 -124 -523 -399 -523c-67 0 -212 24 -213 102
c0 32 20 55 64 82c51 -73 125 -98 158 -98c212 0 254 192 257 407c-63 -131 -154 -191 -233 -191c-190 0 -248 197 -248 361c0 97 20 181 47 209c33 32 85 50 165 48c0 0 -71 -107 -71 -309c0 -144 41 -216 115 -216c77 0 192 95 222 365z" />
    <glyph glyph-name="Ydieresis" unicode="&#x178;" horiz-adv-x="721" 
d="M296 812c-48 0 -68 34 -68 68c0 47 35 75 77 75c48 0 72 -34 72 -69c0 -37 -26 -74 -81 -74zM492 812c-48 0 -68 34 -68 68c0 47 35 75 77 75c48 0 72 -34 72 -69c0 -37 -26 -74 -81 -74zM534 590c1 134 54 181 164 165c-27 -65 -28 -129 -28 -402
c0 -282 -124 -523 -399 -523c-67 0 -212 24 -213 102c0 32 20 55 64 82c51 -73 125 -98 158 -98c212 0 254 192 257 407c-63 -131 -154 -191 -233 -191c-190 0 -248 197 -248 361c0 97 20 181 47 209c33 32 85 50 165 48c0 0 -71 -107 -71 -309c0 -144 41 -216 115 -216
c77 0 192 95 222 365z" />
    <glyph glyph-name="Ygrave" unicode="&#x1ef2;" horiz-adv-x="721" 
d="M461 792c-72 0 -179 143 -179 201c0 21 31 30 61 30c24 0 46 -6 65 -18c9 -27 20 -92 102 -188c-14 -12 -32 -25 -49 -25zM534 590c1 134 54 181 164 165c-27 -65 -28 -129 -28 -402c0 -282 -124 -523 -399 -523c-67 0 -212 24 -213 102c0 32 20 55 64 82
c51 -73 125 -98 158 -98c212 0 254 192 257 407c-63 -131 -154 -191 -233 -191c-190 0 -248 197 -248 361c0 97 20 181 47 209c33 32 85 50 165 48c0 0 -71 -107 -71 -309c0 -144 41 -216 115 -216c77 0 192 95 222 365z" />
    <glyph glyph-name="Z" unicode="Z" horiz-adv-x="786" 
d="M566 -152c-156 0 -390 48 -489 48c-12 21 -35 56 -35 109c0 63 32 103 147 229c122 135 243 264 346 372c-97 0 -171 4 -229 4c-67 0 -116 -6 -150 -51c-43 23 -61 53 -61 83c0 53 60 103 169 103c135 0 250 -76 320 -65c29 21 68 43 104 43c37 0 56 -22 64 -101
c-34 -12 -158 -70 -402 -381c-89 -112 -138 -174 -184 -239c60 -11 211 -28 326 -28c88 0 165 17 227 48c60 -136 -20 -174 -153 -174z" />
    <glyph glyph-name="Zacute" unicode="&#x179;" horiz-adv-x="786" 
d="M410 792c-17 0 -35 13 -49 25c82 96 93 161 102 188c19 12 41 18 65 18c30 0 61 -9 61 -30c0 -58 -107 -201 -179 -201zM566 -152c-156 0 -390 48 -489 48c-12 21 -35 56 -35 109c0 63 32 103 147 229c122 135 243 264 346 372c-97 0 -171 4 -229 4
c-67 0 -116 -6 -150 -51c-43 23 -61 53 -61 83c0 53 60 103 169 103c135 0 250 -76 320 -65c29 21 68 43 104 43c37 0 56 -22 64 -101c-34 -12 -158 -70 -402 -381c-89 -112 -138 -174 -184 -239c60 -11 211 -28 326 -28c88 0 165 17 227 48c60 -136 -20 -174 -153 -174z
" />
    <glyph glyph-name="Zcaron" unicode="&#x17d;" horiz-adv-x="786" 
d="M441 793c-39 0 -93 55 -201 181c12 23 27 46 52 46c49 0 123 -79 157 -133c36 54 95 133 141 133c25 0 40 -23 52 -46c-110 -129 -162 -181 -201 -181zM566 -152c-156 0 -390 48 -489 48c-12 21 -35 56 -35 109c0 63 32 103 147 229c122 135 243 264 346 372
c-97 0 -171 4 -229 4c-67 0 -116 -6 -150 -51c-43 23 -61 53 -61 83c0 53 60 103 169 103c135 0 250 -76 320 -65c29 21 68 43 104 43c37 0 56 -22 64 -101c-34 -12 -158 -70 -402 -381c-89 -112 -138 -174 -184 -239c60 -11 211 -28 326 -28c88 0 165 17 227 48
c60 -136 -20 -174 -153 -174z" />
    <glyph glyph-name="Zdotaccent" unicode="&#x17b;" horiz-adv-x="786" 
d="M444 814c-44 0 -66 31 -66 62c0 43 32 69 71 69c44 0 65 -31 65 -63c0 -34 -26 -68 -70 -68zM566 -152c-156 0 -390 48 -489 48c-12 21 -35 56 -35 109c0 63 32 103 147 229c122 135 243 264 346 372c-97 0 -171 4 -229 4c-67 0 -116 -6 -150 -51c-43 23 -61 53 -61 83
c0 53 60 103 169 103c135 0 250 -76 320 -65c29 21 68 43 104 43c37 0 56 -22 64 -101c-34 -12 -158 -70 -402 -381c-89 -112 -138 -174 -184 -239c60 -11 211 -28 326 -28c88 0 165 17 227 48c60 -136 -20 -174 -153 -174z" />
    <glyph glyph-name="A.salt" horiz-adv-x="1724" 
d="M1609 190c0 -135 40 -203 76 -249c-16 -21 -45 -50 -94 -50c-81 0 -125 83 -125 211c0 24 2 51 4 81c-95 -22 -233 -17 -350 1c-41 -101 -75 -213 -95 -333c-6 -38 0 -96 6 -132c-106 9 -159 26 -159 119c0 79 53 227 117 374c-241 66 -407 185 -576 185
c-136 0 -270 -84 -270 -241c0 -109 82 -215 193 -215c118 0 177 123 178 214c96 -5 142 -63 142 -130c0 -96 -105 -209 -278 -209c-191 0 -351 139 -351 338c0 271 206 385 398 385c223 0 393 -144 618 -219c89 150 303 436 464 461c124 -16 107 -129 107 -253
c0 -90 -5 -204 -5 -338zM1167 286c100 -25 208 -34 311 -18c14 125 33 266 33 354c0 36 -12 63 -28 63c-76 -35 -210 -183 -316 -399z" />
    <glyph glyph-name="Aacute.salt" horiz-adv-x="1724" 
d="M1658 1031c0 -58 -107 -201 -179 -201c-17 0 -35 13 -49 25c82 96 93 161 102 188c19 12 41 18 65 18c30 0 61 -9 61 -30zM1609 190c0 -135 40 -203 76 -249c-16 -21 -45 -50 -94 -50c-81 0 -125 83 -125 211c0 24 2 51 4 81c-95 -22 -233 -17 -350 1
c-41 -101 -75 -213 -95 -333c-6 -38 0 -96 6 -132c-106 9 -159 26 -159 119c0 79 53 227 117 374c-241 66 -407 185 -576 185c-136 0 -270 -84 -270 -241c0 -109 82 -215 193 -215c118 0 177 123 178 214c96 -5 142 -63 142 -130c0 -96 -105 -209 -278 -209
c-191 0 -351 139 -351 338c0 271 206 385 398 385c223 0 393 -144 618 -219c89 150 303 436 464 461c124 -16 107 -129 107 -253c0 -90 -5 -204 -5 -338zM1167 286c100 -25 208 -34 311 -18c14 125 33 266 33 354c0 36 -12 63 -28 63c-76 -35 -210 -183 -316 -399z" />
    <glyph glyph-name="Abreve.salt" horiz-adv-x="1724" 
d="M1511 840c-94 0 -164 79 -164 158c0 29 11 49 57 49c18 0 37 -4 52 -15c0 -56 14 -117 62 -117c61 0 63 74 63 117c14 11 33 15 53 15c45 0 56 -20 56 -49c0 -80 -78 -158 -179 -158zM1614 528c0 -90 -5 -204 -5 -338c0 -135 40 -203 76 -249c-16 -21 -45 -50 -94 -50
c-81 0 -125 83 -125 211c0 24 2 51 4 81c-95 -22 -233 -17 -350 1c-41 -101 -75 -213 -95 -333c-6 -38 0 -96 6 -132c-106 9 -159 26 -159 119c0 79 53 227 117 374c-241 66 -407 185 -576 185c-136 0 -270 -84 -270 -241c0 -109 82 -215 193 -215c118 0 177 123 178 214
c96 -5 142 -63 142 -130c0 -96 -105 -209 -278 -209c-191 0 -351 139 -351 338c0 271 206 385 398 385c223 0 393 -144 618 -219c89 150 303 436 464 461c124 -16 107 -129 107 -253zM1167 286c100 -25 208 -34 311 -18c14 125 33 266 33 354c0 36 -12 63 -28 63
c-76 -35 -210 -183 -316 -399z" />
    <glyph glyph-name="Acircumflex.salt" horiz-adv-x="1724" 
d="M1514 1056c39 0 91 -52 201 -181c-12 -23 -27 -46 -52 -46c-46 0 -113 79 -149 133c-34 -54 -100 -133 -149 -133c-25 0 -40 23 -52 46c108 126 162 181 201 181zM1614 528c0 -90 -5 -204 -5 -338c0 -135 40 -203 76 -249c-16 -21 -45 -50 -94 -50
c-81 0 -125 83 -125 211c0 24 2 51 4 81c-95 -22 -233 -17 -350 1c-41 -101 -75 -213 -95 -333c-6 -38 0 -96 6 -132c-106 9 -159 26 -159 119c0 79 53 227 117 374c-241 66 -407 185 -576 185c-136 0 -270 -84 -270 -241c0 -109 82 -215 193 -215c118 0 177 123 178 214
c96 -5 142 -63 142 -130c0 -96 -105 -209 -278 -209c-191 0 -351 139 -351 338c0 271 206 385 398 385c223 0 393 -144 618 -219c89 150 303 436 464 461c124 -16 107 -129 107 -253zM1167 286c100 -25 208 -34 311 -18c14 125 33 266 33 354c0 36 -12 63 -28 63
c-76 -35 -210 -183 -316 -399z" />
    <glyph glyph-name="Adieresis.salt" horiz-adv-x="1724" 
d="M1409 850c-48 0 -68 34 -68 68c0 47 35 75 77 75c48 0 72 -34 72 -69c0 -37 -26 -74 -81 -74zM1605 850c-48 0 -68 34 -68 68c0 47 35 75 77 75c48 0 72 -34 72 -69c0 -37 -26 -74 -81 -74zM1614 528c0 -90 -5 -204 -5 -338c0 -135 40 -203 76 -249
c-16 -21 -45 -50 -94 -50c-81 0 -125 83 -125 211c0 24 2 51 4 81c-95 -22 -233 -17 -350 1c-41 -101 -75 -213 -95 -333c-6 -38 0 -96 6 -132c-106 9 -159 26 -159 119c0 79 53 227 117 374c-241 66 -407 185 -576 185c-136 0 -270 -84 -270 -241c0 -109 82 -215 193 -215
c118 0 177 123 178 214c96 -5 142 -63 142 -130c0 -96 -105 -209 -278 -209c-191 0 -351 139 -351 338c0 271 206 385 398 385c223 0 393 -144 618 -219c89 150 303 436 464 461c124 -16 107 -129 107 -253zM1167 286c100 -25 208 -34 311 -18c14 125 33 266 33 354
c0 36 -12 63 -28 63c-76 -35 -210 -183 -316 -399z" />
    <glyph glyph-name="Agrave.salt" horiz-adv-x="1724" 
d="M1574 830c-72 0 -179 143 -179 201c0 21 31 30 61 30c24 0 46 -6 65 -18c9 -27 20 -92 102 -188c-14 -12 -32 -25 -49 -25zM1609 190c0 -135 40 -203 76 -249c-16 -21 -45 -50 -94 -50c-81 0 -125 83 -125 211c0 24 2 51 4 81c-95 -22 -233 -17 -350 1
c-41 -101 -75 -213 -95 -333c-6 -38 0 -96 6 -132c-106 9 -159 26 -159 119c0 79 53 227 117 374c-241 66 -407 185 -576 185c-136 0 -270 -84 -270 -241c0 -109 82 -215 193 -215c118 0 177 123 178 214c96 -5 142 -63 142 -130c0 -96 -105 -209 -278 -209
c-191 0 -351 139 -351 338c0 271 206 385 398 385c223 0 393 -144 618 -219c89 150 303 436 464 461c124 -16 107 -129 107 -253c0 -90 -5 -204 -5 -338zM1167 286c100 -25 208 -34 311 -18c14 125 33 266 33 354c0 36 -12 63 -28 63c-76 -35 -210 -183 -316 -399z" />
    <glyph glyph-name="Amacron.salt" horiz-adv-x="1724" 
d="M1641 922c42 0 70 -6 70 -39c0 -15 -6 -39 -17 -53c-29 4 -52 6 -81 6c-23 0 -50 -1 -86 -2c-39 -2 -72 -3 -100 -3c-78 0 -110 11 -110 56c0 12 5 27 9 33c47 -3 153 -2 199 -2c42 0 83 4 116 4zM1614 528c0 -90 -5 -204 -5 -338c0 -135 40 -203 76 -249
c-16 -21 -45 -50 -94 -50c-81 0 -125 83 -125 211c0 24 2 51 4 81c-95 -22 -233 -17 -350 1c-41 -101 -75 -213 -95 -333c-6 -38 0 -96 6 -132c-106 9 -159 26 -159 119c0 79 53 227 117 374c-241 66 -407 185 -576 185c-136 0 -270 -84 -270 -241c0 -109 82 -215 193 -215
c118 0 177 123 178 214c96 -5 142 -63 142 -130c0 -96 -105 -209 -278 -209c-191 0 -351 139 -351 338c0 271 206 385 398 385c223 0 393 -144 618 -219c89 150 303 436 464 461c124 -16 107 -129 107 -253zM1167 286c100 -25 208 -34 311 -18c14 125 33 266 33 354
c0 36 -12 63 -28 63c-76 -35 -210 -183 -316 -399z" />
    <glyph glyph-name="Aogonek.salt" horiz-adv-x="1724" 
d="M1685 -202c18 -7 24 -22 24 -35c0 -38 -52 -63 -95 -63c-60 0 -118 35 -118 101c-1 45 26 77 54 98c-55 24 -84 98 -84 203c0 24 2 51 4 81c-95 -22 -233 -17 -350 1c-41 -101 -75 -213 -95 -333c-6 -38 0 -96 6 -132c-106 9 -159 26 -159 119c0 79 53 227 117 374
c-241 66 -407 185 -576 185c-136 0 -270 -84 -270 -241c0 -109 82 -215 193 -215c118 0 177 123 178 214c96 -5 142 -63 142 -130c0 -96 -105 -209 -278 -209c-191 0 -351 139 -351 338c0 271 206 385 398 385c223 0 393 -144 618 -219c89 150 303 436 464 461
c124 -16 107 -129 107 -253c0 -90 -5 -204 -5 -338c0 -135 40 -203 76 -249c-5 -7 -12 -15 -20 -22l3 -1c-46 -44 -72 -77 -72 -104c0 -26 14 -38 34 -38c16 0 36 8 55 22zM1167 286c100 -25 208 -34 311 -18c14 125 33 266 33 354c0 36 -12 63 -28 63
c-76 -35 -210 -183 -316 -399z" />
    <glyph glyph-name="Aring.salt" horiz-adv-x="1724" 
d="M1511 840c-54 0 -108 34 -108 104c0 69 55 104 109 104s108 -34 108 -104c0 -69 -55 -104 -109 -104zM1512 999c-24 0 -37 -19 -37 -54c0 -37 12 -56 35 -56c24 0 37 19 37 56c0 35 -12 54 -35 54zM1609 190c0 -135 40 -203 76 -249c-16 -21 -45 -50 -94 -50
c-81 0 -125 83 -125 211c0 24 2 51 4 81c-95 -22 -233 -17 -350 1c-41 -101 -75 -213 -95 -333c-6 -38 0 -96 6 -132c-106 9 -159 26 -159 119c0 79 53 227 117 374c-241 66 -407 185 -576 185c-136 0 -270 -84 -270 -241c0 -109 82 -215 193 -215c118 0 177 123 178 214
c96 -5 142 -63 142 -130c0 -96 -105 -209 -278 -209c-191 0 -351 139 -351 338c0 271 206 385 398 385c223 0 393 -144 618 -219c89 150 303 436 464 461c124 -16 107 -129 107 -253c0 -90 -5 -204 -5 -338zM1167 286c100 -25 208 -34 311 -18c14 125 33 266 33 354
c0 36 -12 63 -28 63c-76 -35 -210 -183 -316 -399z" />
    <glyph glyph-name="Atilde.salt" horiz-adv-x="1724" 
d="M1381 856c-40 0 -59 19 -59 45c0 47 56 97 112 97c66 0 119 -58 155 -58c27 0 46 33 57 52c40 0 60 -15 60 -39c0 -41 -50 -103 -112 -103c-64 0 -120 58 -156 58c-21 0 -45 -22 -57 -52zM1614 528c0 -90 -5 -204 -5 -338c0 -135 40 -203 76 -249
c-16 -21 -45 -50 -94 -50c-81 0 -125 83 -125 211c0 24 2 51 4 81c-95 -22 -233 -17 -350 1c-41 -101 -75 -213 -95 -333c-6 -38 0 -96 6 -132c-106 9 -159 26 -159 119c0 79 53 227 117 374c-241 66 -407 185 -576 185c-136 0 -270 -84 -270 -241c0 -109 82 -215 193 -215
c118 0 177 123 178 214c96 -5 142 -63 142 -130c0 -96 -105 -209 -278 -209c-191 0 -351 139 -351 338c0 271 206 385 398 385c223 0 393 -144 618 -219c89 150 303 436 464 461c124 -16 107 -129 107 -253zM1167 286c100 -25 208 -34 311 -18c14 125 33 266 33 354
c0 36 -12 63 -28 63c-76 -35 -210 -183 -316 -399z" />
    <glyph glyph-name="B.salt" horiz-adv-x="1245" 
d="M990 314c137 -23 209 -131 209 -237c0 -100 -78 -220 -271 -220c-157 0 -182 56 -182 97c1 13 3 29 8 46c33 -14 70 -35 146 -35c122 0 176 84 176 162c0 70 -44 137 -131 137c-57 0 -78 -10 -129 -24c-36 0 -55 27 -55 50c0 26 25 48 77 48c14 0 29 -1 45 -3
c74 24 189 107 189 219c0 108 -106 153 -220 153c-30 0 -63 -3 -98 -8c7 -11 13 -24 13 -37c-70 -140 -105 -360 -105 -553c0 -146 20 -278 60 -348c-20 -12 -69 -18 -94 -18c-120 0 -125 122 -125 240c0 206 53 458 100 595c13 42 26 69 40 96
c-196 -57 -405 -193 -405 -429c0 -101 74 -202 180 -216c-5 -91 -80 -124 -146 -124c-140 0 -222 154 -222 264c0 400 442 610 820 610c286 0 367 -127 367 -215c0 -135 -149 -228 -247 -250z" />
    <glyph glyph-name="C.salt" horiz-adv-x="909" 
d="M1643 803c95 -31 127 -78 127 -124c0 -139 -155 -169 -274 -169c-167 0 -371 49 -453 65c-67 13 -131 27 -186 32c1 -5 1 -10 1 -16c0 -146 -107 -195 -188 -195c-77 0 -151 38 -151 119c0 87 75 131 161 151c-20 7 -43 10 -69 10c-249 0 -396 -217 -396 -417
c0 -169 106 -324 296 -324c195 0 289 128 306 160c35 0 51 -21 51 -46c0 -84 -191 -204 -368 -204c-244 0 -450 163 -450 410c0 242 193 504 531 504c100 0 188 -30 236 -78h2c94 0 395 -40 616 -40c119 0 190 30 208 162zM652 486c57 0 102 57 102 102c0 7 -1 13 -3 19
c-76 -6 -151 -25 -151 -82c0 -21 17 -39 52 -39z" />
    <glyph glyph-name="Cacute.salt" horiz-adv-x="909" 
d="M688 1031c0 -58 -107 -201 -179 -201c-17 0 -35 13 -49 25c82 96 93 161 102 188c19 12 41 18 65 18c30 0 61 -9 61 -30zM1643 803c95 -31 127 -78 127 -124c0 -139 -155 -169 -274 -169c-167 0 -371 49 -453 65c-67 13 -131 27 -186 32c1 -5 1 -10 1 -16
c0 -146 -107 -195 -188 -195c-77 0 -151 38 -151 119c0 87 75 131 161 151c-20 7 -43 10 -69 10c-249 0 -396 -217 -396 -417c0 -169 106 -324 296 -324c195 0 289 128 306 160c35 0 51 -21 51 -46c0 -84 -191 -204 -368 -204c-244 0 -450 163 -450 410
c0 242 193 504 531 504c100 0 188 -30 236 -78h2c94 0 395 -40 616 -40c119 0 190 30 208 162zM652 486c57 0 102 57 102 102c0 7 -1 13 -3 19c-76 -6 -151 -25 -151 -82c0 -21 17 -39 52 -39z" />
    <glyph glyph-name="Ccaron.salt" horiz-adv-x="909" 
d="M540 831c-39 0 -93 55 -201 181c12 23 27 46 52 46c49 0 123 -79 157 -133c36 54 95 133 141 133c25 0 40 -23 52 -46c-110 -129 -162 -181 -201 -181zM1643 803c95 -31 127 -78 127 -124c0 -139 -155 -169 -274 -169c-167 0 -371 49 -453 65c-67 13 -131 27 -186 32
c1 -5 1 -10 1 -16c0 -146 -107 -195 -188 -195c-77 0 -151 38 -151 119c0 87 75 131 161 151c-20 7 -43 10 -69 10c-249 0 -396 -217 -396 -417c0 -169 106 -324 296 -324c195 0 289 128 306 160c35 0 51 -21 51 -46c0 -84 -191 -204 -368 -204c-244 0 -450 163 -450 410
c0 242 193 504 531 504c100 0 188 -30 236 -78h2c94 0 395 -40 616 -40c119 0 190 30 208 162zM652 486c57 0 102 57 102 102c0 7 -1 13 -3 19c-76 -6 -151 -25 -151 -82c0 -21 17 -39 52 -39z" />
    <glyph glyph-name="Ccedilla.salt" horiz-adv-x="909" 
d="M1643 803c95 -31 127 -78 127 -124c0 -139 -155 -169 -274 -169c-167 0 -371 49 -453 65c-67 13 -131 27 -186 32c1 -5 1 -10 1 -16c0 -146 -107 -195 -188 -195c-77 0 -151 38 -151 119c0 87 75 131 161 151c-20 7 -43 10 -69 10c-249 0 -396 -217 -396 -417
c0 -169 106 -324 296 -324c195 0 289 128 306 160c35 0 51 -21 51 -46c0 -79 -168 -189 -335 -203l-19 -39c46 -9 85 -39 85 -93c0 -57 -55 -99 -126 -99c-34 0 -89 15 -89 57c0 17 18 33 30 33c10 -12 28 -18 42 -18c25 0 41 19 41 40s-15 50 -50 50l-10 19l20 51
c-225 18 -407 176 -407 408c0 242 193 504 531 504c100 0 188 -30 236 -78h2c94 0 395 -40 616 -40c119 0 190 30 208 162zM652 486c57 0 102 57 102 102c0 7 -1 13 -3 19c-76 -6 -151 -25 -151 -82c0 -21 17 -39 52 -39z" />
    <glyph glyph-name="Cdotaccent.salt" horiz-adv-x="909" 
d="M543 852c-44 0 -66 31 -66 62c0 43 32 69 71 69c44 0 65 -31 65 -63c0 -34 -26 -68 -70 -68zM1643 803c95 -31 127 -78 127 -124c0 -139 -155 -169 -274 -169c-167 0 -371 49 -453 65c-67 13 -131 27 -186 32c1 -5 1 -10 1 -16c0 -146 -107 -195 -188 -195
c-77 0 -151 38 -151 119c0 87 75 131 161 151c-20 7 -43 10 -69 10c-249 0 -396 -217 -396 -417c0 -169 106 -324 296 -324c195 0 289 128 306 160c35 0 51 -21 51 -46c0 -84 -191 -204 -368 -204c-244 0 -450 163 -450 410c0 242 193 504 531 504c100 0 188 -30 236 -78h2
c94 0 395 -40 616 -40c119 0 190 30 208 162zM652 486c57 0 102 57 102 102c0 7 -1 13 -3 19c-76 -6 -151 -25 -151 -82c0 -21 17 -39 52 -39z" />
    <glyph glyph-name="D.salt" horiz-adv-x="1078" 
d="M550 738c335 -29 482 -192 485 -382c0 -348 -425 -500 -630 -500c-284 0 -369 153 -369 264c0 182 150 298 311 320c22 84 49 163 74 226c-39 -6 -80 -16 -116 -21c-58 -7 -97 1 -84 82c80 10 153 15 220 15h14c15 29 27 48 36 56c26 -7 59 -27 59 -60zM371 -58
c289 0 511 194 511 440c0 153 -140 275 -354 287c-24 -64 -47 -141 -64 -229c108 -13 227 -61 227 -138c0 -58 -43 -94 -59 -108c-61 50 -121 88 -189 105c-10 -99 -13 -208 -3 -321c-50 -12 -126 20 -133 126c-5 63 1 133 12 204c-117 -13 -185 -87 -185 -185
c0 -131 135 -181 237 -181z" />
    <glyph glyph-name="Eth.salt" horiz-adv-x="1078" 
d="M552 737c333 -29 480 -191 483 -381c0 -348 -425 -500 -630 -500c-284 0 -376 159 -376 270c0 93 51 148 129 148c34 0 98 -31 80 -117c-67 19 -102 -21 -102 -70c0 -106 117 -145 235 -145c289 0 511 194 511 440c0 153 -140 275 -353 287c-29 -75 -55 -169 -73 -276
c99 1 197 3 197 -53c0 -14 -8 -41 -23 -55c-60 8 -101 9 -187 9c-10 -98 -13 -204 -3 -316c-50 -12 -126 20 -133 126c-4 59 0 124 10 191c-107 2 -151 12 -151 60c0 10 7 29 13 40c49 -2 80 -2 157 -2c23 100 55 197 85 271c-39 -7 -80 -23 -116 -28c-58 -7 -97 10 -84 91
c85 11 163 15 234 15c15 28 27 48 36 56c23 -8 65 -17 61 -61z" />
    <glyph glyph-name="Dcaron.salt" horiz-adv-x="1078" 
d="M683 777c-39 0 -93 55 -201 181c12 23 27 46 52 46c49 0 123 -79 157 -133c36 54 95 133 141 133c25 0 40 -23 52 -46c-110 -129 -162 -181 -201 -181zM550 738c335 -29 482 -192 485 -382c0 -348 -425 -500 -630 -500c-284 0 -369 153 -369 264c0 182 150 298 311 320
c22 84 49 163 74 226c-39 -6 -80 -16 -116 -21c-58 -7 -97 1 -84 82c80 10 153 15 220 15h14c15 29 27 48 36 56c26 -7 59 -27 59 -60zM371 -58c289 0 511 194 511 440c0 153 -140 275 -354 287c-24 -64 -47 -141 -64 -229c108 -13 227 -61 227 -138c0 -58 -43 -94 -59 -108
c-61 50 -121 88 -189 105c-10 -99 -13 -208 -3 -321c-50 -12 -126 20 -133 126c-5 63 1 133 12 204c-117 -13 -185 -87 -185 -185c0 -131 135 -181 237 -181z" />
    <glyph glyph-name="Dcroat.salt" horiz-adv-x="1078" 
d="M552 737c333 -29 480 -191 483 -381c0 -348 -425 -500 -630 -500c-284 0 -376 159 -376 270c0 93 51 148 129 148c34 0 98 -31 80 -117c-67 19 -102 -21 -102 -70c0 -106 117 -145 235 -145c289 0 511 194 511 440c0 153 -140 275 -353 287c-29 -75 -55 -169 -73 -276
c99 1 197 3 197 -53c0 -14 -8 -41 -23 -55c-60 8 -101 9 -187 9c-10 -98 -13 -204 -3 -316c-50 -12 -126 20 -133 126c-4 59 0 124 10 191c-107 2 -151 12 -151 60c0 10 7 29 13 40c49 -2 80 -2 157 -2c23 100 55 197 85 271c-39 -7 -80 -23 -116 -28c-58 -7 -97 10 -84 91
c85 11 163 15 234 15c15 28 27 48 36 56c23 -8 65 -17 61 -61z" />
    <glyph glyph-name="E.salt" horiz-adv-x="760" 
d="M1525 850c95 -31 127 -78 127 -124c0 -139 -155 -169 -274 -169c-167 0 -371 49 -453 65c-66 13 -129 27 -185 32c3 -11 5 -22 5 -34c0 -94 -90 -177 -193 -177c-77 0 -151 38 -151 119c0 91 81 135 173 154c-27 13 -61 20 -99 20c-191 0 -284 -114 -282 -226
c1 -61 30 -149 115 -197c37 7 76 11 120 11c67 0 136 -9 145 -51c12 -47 -45 -77 -116 -77c-46 0 -116 13 -188 39c-55 -29 -86 -85 -85 -141c1 -84 87 -168 218 -168c147 0 252 79 298 124c23 -11 36 -24 32 -38c-5 -19 -98 -175 -374 -175c-188 0 -319 107 -321 225
c-1 77 48 159 148 210c-97 51 -178 130 -180 238c-3 177 211 297 443 297c106 0 194 -31 246 -79h7c94 0 395 -40 616 -40c119 0 190 30 208 162zM534 533c56 0 102 54 102 101c0 7 -1 13 -3 20c-75 -6 -151 -24 -151 -82c0 -21 16 -39 52 -39z" />
    <glyph glyph-name="Eacute.salt" horiz-adv-x="760" 
d="M589 1039c0 -58 -107 -201 -179 -201c-17 0 -35 13 -49 25c82 96 93 161 102 188c19 12 41 18 65 18c30 0 61 -9 61 -30zM1525 850c95 -31 127 -78 127 -124c0 -139 -155 -169 -274 -169c-167 0 -371 49 -453 65c-66 13 -129 27 -185 32c3 -11 5 -22 5 -34
c0 -94 -90 -177 -193 -177c-77 0 -151 38 -151 119c0 91 81 135 173 154c-27 13 -61 20 -99 20c-191 0 -284 -114 -282 -226c1 -61 30 -149 115 -197c37 7 76 11 120 11c67 0 136 -9 145 -51c12 -47 -45 -77 -116 -77c-46 0 -116 13 -188 39c-55 -29 -86 -85 -85 -141
c1 -84 87 -168 218 -168c147 0 252 79 298 124c23 -11 36 -24 32 -38c-5 -19 -98 -175 -374 -175c-188 0 -319 107 -321 225c-1 77 48 159 148 210c-97 51 -178 130 -180 238c-3 177 211 297 443 297c106 0 194 -31 246 -79h7c94 0 395 -40 616 -40c119 0 190 30 208 162z
M534 533c56 0 102 54 102 101c0 7 -1 13 -3 20c-75 -6 -151 -24 -151 -82c0 -21 16 -39 52 -39z" />
    <glyph glyph-name="Ecaron.salt" horiz-adv-x="760" 
d="M441 839c-39 0 -93 55 -201 181c12 23 27 46 52 46c49 0 123 -79 157 -133c36 54 95 133 141 133c25 0 40 -23 52 -46c-110 -129 -162 -181 -201 -181zM1525 850c95 -31 127 -78 127 -124c0 -139 -155 -169 -274 -169c-167 0 -371 49 -453 65c-66 13 -129 27 -185 32
c3 -11 5 -22 5 -34c0 -94 -90 -177 -193 -177c-77 0 -151 38 -151 119c0 91 81 135 173 154c-27 13 -61 20 -99 20c-191 0 -284 -114 -282 -226c1 -61 30 -149 115 -197c37 7 76 11 120 11c67 0 136 -9 145 -51c12 -47 -45 -77 -116 -77c-46 0 -116 13 -188 39
c-55 -29 -86 -85 -85 -141c1 -84 87 -168 218 -168c147 0 252 79 298 124c23 -11 36 -24 32 -38c-5 -19 -98 -175 -374 -175c-188 0 -319 107 -321 225c-1 77 48 159 148 210c-97 51 -178 130 -180 238c-3 177 211 297 443 297c106 0 194 -31 246 -79h7
c94 0 395 -40 616 -40c119 0 190 30 208 162zM534 533c56 0 102 54 102 101c0 7 -1 13 -3 20c-75 -6 -151 -24 -151 -82c0 -21 16 -39 52 -39z" />
    <glyph glyph-name="Ecircumflex.salt" horiz-adv-x="760" 
d="M296 837c-25 0 -40 23 -52 46c108 126 162 181 201 181s91 -52 201 -181c-12 -23 -27 -46 -52 -46c-46 0 -113 79 -149 133c-34 -54 -100 -133 -149 -133zM1525 850c95 -31 127 -78 127 -124c0 -139 -155 -169 -274 -169c-167 0 -371 49 -453 65c-66 13 -129 27 -185 32
c3 -11 5 -22 5 -34c0 -94 -90 -177 -193 -177c-77 0 -151 38 -151 119c0 91 81 135 173 154c-27 13 -61 20 -99 20c-191 0 -284 -114 -282 -226c1 -61 30 -149 115 -197c37 7 76 11 120 11c67 0 136 -9 145 -51c12 -47 -45 -77 -116 -77c-46 0 -116 13 -188 39
c-55 -29 -86 -85 -85 -141c1 -84 87 -168 218 -168c147 0 252 79 298 124c23 -11 36 -24 32 -38c-5 -19 -98 -175 -374 -175c-188 0 -319 107 -321 225c-1 77 48 159 148 210c-97 51 -178 130 -180 238c-3 177 211 297 443 297c106 0 194 -31 246 -79h7
c94 0 395 -40 616 -40c119 0 190 30 208 162zM534 533c56 0 102 54 102 101c0 7 -1 13 -3 20c-75 -6 -151 -24 -151 -82c0 -21 16 -39 52 -39z" />
    <glyph glyph-name="Edieresis.salt" horiz-adv-x="760" 
d="M340 858c-48 0 -68 34 -68 68c0 47 35 75 77 75c48 0 72 -34 72 -69c0 -37 -26 -74 -81 -74zM536 858c-48 0 -68 34 -68 68c0 47 35 75 77 75c48 0 72 -34 72 -69c0 -37 -26 -74 -81 -74zM1525 850c95 -31 127 -78 127 -124c0 -139 -155 -169 -274 -169
c-167 0 -371 49 -453 65c-66 13 -129 27 -185 32c3 -11 5 -22 5 -34c0 -94 -90 -177 -193 -177c-77 0 -151 38 -151 119c0 91 81 135 173 154c-27 13 -61 20 -99 20c-191 0 -284 -114 -282 -226c1 -61 30 -149 115 -197c37 7 76 11 120 11c67 0 136 -9 145 -51
c12 -47 -45 -77 -116 -77c-46 0 -116 13 -188 39c-55 -29 -86 -85 -85 -141c1 -84 87 -168 218 -168c147 0 252 79 298 124c23 -11 36 -24 32 -38c-5 -19 -98 -175 -374 -175c-188 0 -319 107 -321 225c-1 77 48 159 148 210c-97 51 -178 130 -180 238
c-3 177 211 297 443 297c106 0 194 -31 246 -79h7c94 0 395 -40 616 -40c119 0 190 30 208 162zM534 533c56 0 102 54 102 101c0 7 -1 13 -3 20c-75 -6 -151 -24 -151 -82c0 -21 16 -39 52 -39z" />
    <glyph glyph-name="Edotaccent.salt" horiz-adv-x="760" 
d="M444 860c-44 0 -66 31 -66 62c0 43 32 69 71 69c44 0 65 -31 65 -63c0 -34 -26 -68 -70 -68zM1525 850c95 -31 127 -78 127 -124c0 -139 -155 -169 -274 -169c-167 0 -371 49 -453 65c-66 13 -129 27 -185 32c3 -11 5 -22 5 -34c0 -94 -90 -177 -193 -177
c-77 0 -151 38 -151 119c0 91 81 135 173 154c-27 13 -61 20 -99 20c-191 0 -284 -114 -282 -226c1 -61 30 -149 115 -197c37 7 76 11 120 11c67 0 136 -9 145 -51c12 -47 -45 -77 -116 -77c-46 0 -116 13 -188 39c-55 -29 -86 -85 -85 -141c1 -84 87 -168 218 -168
c147 0 252 79 298 124c23 -11 36 -24 32 -38c-5 -19 -98 -175 -374 -175c-188 0 -319 107 -321 225c-1 77 48 159 148 210c-97 51 -178 130 -180 238c-3 177 211 297 443 297c106 0 194 -31 246 -79h7c94 0 395 -40 616 -40c119 0 190 30 208 162zM534 533
c56 0 102 54 102 101c0 7 -1 13 -3 20c-75 -6 -151 -24 -151 -82c0 -21 16 -39 52 -39z" />
    <glyph glyph-name="Egrave.salt" horiz-adv-x="760" 
d="M505 838c-72 0 -179 143 -179 201c0 21 31 30 61 30c24 0 46 -6 65 -18c9 -27 20 -92 102 -188c-14 -12 -32 -25 -49 -25zM1525 850c95 -31 127 -78 127 -124c0 -139 -155 -169 -274 -169c-167 0 -371 49 -453 65c-66 13 -129 27 -185 32c3 -11 5 -22 5 -34
c0 -94 -90 -177 -193 -177c-77 0 -151 38 -151 119c0 91 81 135 173 154c-27 13 -61 20 -99 20c-191 0 -284 -114 -282 -226c1 -61 30 -149 115 -197c37 7 76 11 120 11c67 0 136 -9 145 -51c12 -47 -45 -77 -116 -77c-46 0 -116 13 -188 39c-55 -29 -86 -85 -85 -141
c1 -84 87 -168 218 -168c147 0 252 79 298 124c23 -11 36 -24 32 -38c-5 -19 -98 -175 -374 -175c-188 0 -319 107 -321 225c-1 77 48 159 148 210c-97 51 -178 130 -180 238c-3 177 211 297 443 297c106 0 194 -31 246 -79h7c94 0 395 -40 616 -40c119 0 190 30 208 162z
M534 533c56 0 102 54 102 101c0 7 -1 13 -3 20c-75 -6 -151 -24 -151 -82c0 -21 16 -39 52 -39z" />
    <glyph glyph-name="Emacron.salt" horiz-adv-x="760" 
d="M358 839c-78 0 -110 11 -110 56c0 12 5 27 9 33c47 -3 153 -2 199 -2c42 0 83 4 116 4c42 0 70 -6 70 -39c0 -15 -6 -39 -17 -53c-29 4 -52 6 -81 6c-23 0 -50 -1 -86 -2c-39 -2 -72 -3 -100 -3zM1525 850c95 -31 127 -78 127 -124c0 -139 -155 -169 -274 -169
c-167 0 -371 49 -453 65c-66 13 -129 27 -185 32c3 -11 5 -22 5 -34c0 -94 -90 -177 -193 -177c-77 0 -151 38 -151 119c0 91 81 135 173 154c-27 13 -61 20 -99 20c-191 0 -284 -114 -282 -226c1 -61 30 -149 115 -197c37 7 76 11 120 11c67 0 136 -9 145 -51
c12 -47 -45 -77 -116 -77c-46 0 -116 13 -188 39c-55 -29 -86 -85 -85 -141c1 -84 87 -168 218 -168c147 0 252 79 298 124c23 -11 36 -24 32 -38c-5 -19 -98 -175 -374 -175c-188 0 -319 107 -321 225c-1 77 48 159 148 210c-97 51 -178 130 -180 238
c-3 177 211 297 443 297c106 0 194 -31 246 -79h7c94 0 395 -40 616 -40c119 0 190 30 208 162zM534 533c56 0 102 54 102 101c0 7 -1 13 -3 20c-75 -6 -151 -24 -151 -82c0 -21 16 -39 52 -39z" />
    <glyph glyph-name="Eogonek.salt" horiz-adv-x="760" 
d="M1525 850c95 -31 127 -78 127 -124c0 -139 -155 -169 -274 -169c-167 0 -371 49 -453 65c-66 13 -129 27 -185 32c3 -11 5 -22 5 -34c0 -94 -90 -177 -193 -177c-77 0 -151 38 -151 119c0 91 81 135 173 154c-27 13 -61 20 -99 20c-191 0 -284 -114 -282 -226
c1 -61 30 -149 115 -197c37 7 76 11 120 11c67 0 136 -9 145 -51c12 -47 -45 -77 -116 -77c-46 0 -116 13 -188 39c-55 -29 -86 -85 -85 -141c1 -84 87 -168 218 -168c147 0 252 79 298 124c23 -11 36 -24 32 -38c-4 -15 -62 -115 -222 -157c-41 -40 -64 -71 -64 -96
c0 -26 14 -38 34 -38c16 0 36 8 55 22c18 -7 24 -22 24 -35c0 -38 -52 -63 -95 -63c-60 0 -118 35 -118 101c0 41 21 71 47 92c-12 -1 -23 -1 -35 -1c-188 0 -319 107 -321 225c-1 77 48 159 148 210c-97 51 -178 130 -180 238c-3 177 211 297 443 297
c106 0 194 -31 246 -79h7c94 0 395 -40 616 -40c119 0 190 30 208 162zM534 533c56 0 102 54 102 101c0 7 -1 13 -3 20c-75 -6 -151 -24 -151 -82c0 -21 16 -39 52 -39z" />
    <glyph glyph-name="F.salt" horiz-adv-x="1688" 
d="M1866 905c27 -38 37 -74 37 -105c0 -53 -27 -90 -88 -97c-42 -4 -95 -7 -153 -9c-108 -5 -245 -13 -364 -36c5 -34 6 -69 6 -104c0 -44 -3 -91 -8 -141c9 3 19 5 30 7c61 13 126 22 177 22c60 0 101 -12 101 -47c0 -15 -20 -51 -40 -76c-45 12 -86 18 -144 10
c-50 -6 -96 -17 -137 -30c-10 -84 -19 -170 -19 -249s9 -150 38 -204c-35 -10 -65 -14 -91 -13c-67 5 -86 58 -86 124c0 58 18 173 34 292c-63 -32 -98 -61 -103 -63c9 40 0 93 33 123c4 3 26 32 86 62c8 71 14 136 11 182c-1 33 -8 54 -15 73c-26 -10 -49 -20 -70 -33
c28 -28 42 -64 42 -104c0 -58 -39 -102 -108 -102c-42 0 -93 34 -93 98c0 31 7 58 18 83c-25 4 -52 6 -77 6c-245 0 -390 -251 -648 -251c-130 0 -220 77 -220 174c0 30 9 64 29 100c33 -41 142 -73 233 -73c163 0 404 144 601 144c57 0 106 -9 146 -24
c80 63 206 96 317 119c158 33 273 59 381 82c88 18 117 38 144 60zM1054 455c19 0 31 16 31 34c0 22 -16 40 -40 53c-12 -17 -18 -36 -18 -58c0 -5 3 -29 27 -29z" />
    <glyph glyph-name="G.salt" horiz-adv-x="1513" 
d="M1180 321c169 0 273 7 273 -120c0 -187 -224 -338 -457 -338c-267 0 -431 198 -431 423c0 15 1 29 2 43c-182 8 -539 53 -539 316c0 159 131 245 287 245c203 0 274 -147 274 -218c0 -54 -40 -102 -123 -102c-17 0 -40 2 -56 5c10 21 12 42 12 62c0 87 -36 159 -125 159
s-127 -73 -127 -141c0 -164 221 -226 413 -242c66 217 294 349 508 349c161 0 245 -75 245 -159c0 -154 -282 -256 -607 -273c-3 -18 -4 -37 -4 -56c0 -161 96 -318 296 -318c186 0 328 137 328 225c0 51 -48 47 -131 36c-46 -6 -102 -22 -148 -22c-57 0 -84 24 -84 60
c0 24 11 51 34 79c57 -19 108 -13 160 -13zM1094 682c-174 0 -299 -126 -347 -273c253 11 488 96 488 189c0 34 -31 84 -141 84z" />
    <glyph glyph-name="Gbreve.salt" horiz-adv-x="1513" 
d="M1075 840c-94 0 -164 79 -164 158c0 29 11 49 57 49c18 0 37 -4 52 -15c0 -56 14 -117 62 -117c61 0 63 74 63 117c14 11 33 15 53 15c45 0 56 -20 56 -49c0 -80 -78 -158 -179 -158zM1180 321c169 0 273 7 273 -120c0 -187 -224 -338 -457 -338
c-267 0 -431 198 -431 423c0 15 1 29 2 43c-182 8 -539 53 -539 316c0 159 131 245 287 245c203 0 274 -147 274 -218c0 -54 -40 -102 -123 -102c-17 0 -40 2 -56 5c10 21 12 42 12 62c0 87 -36 159 -125 159s-127 -73 -127 -141c0 -164 221 -226 413 -242
c66 217 294 349 508 349c161 0 245 -75 245 -159c0 -154 -282 -256 -607 -273c-3 -18 -4 -37 -4 -56c0 -161 96 -318 296 -318c186 0 328 137 328 225c0 51 -48 47 -131 36c-46 -6 -102 -22 -148 -22c-57 0 -84 24 -84 60c0 24 11 51 34 79c57 -19 108 -13 160 -13z
M1094 682c-174 0 -299 -126 -347 -273c253 11 488 96 488 189c0 34 -31 84 -141 84z" />
    <glyph glyph-name="Gcommaaccent.salt" horiz-adv-x="1513" 
d="M1180 321c169 0 273 7 273 -120c0 -187 -224 -338 -457 -338c-267 0 -431 198 -431 423c0 15 1 29 2 43c-182 8 -539 53 -539 316c0 159 131 245 287 245c203 0 274 -147 274 -218c0 -54 -40 -102 -123 -102c-17 0 -40 2 -56 5c10 21 12 42 12 62c0 87 -36 159 -125 159
s-127 -73 -127 -141c0 -164 221 -226 413 -242c66 217 294 349 508 349c161 0 245 -75 245 -159c0 -154 -282 -256 -607 -273c-3 -18 -4 -37 -4 -56c0 -161 96 -318 296 -318c186 0 328 137 328 225c0 51 -48 47 -131 36c-46 -6 -102 -22 -148 -22c-57 0 -84 24 -84 60
c0 24 11 51 34 79c57 -19 108 -13 160 -13zM1094 682c-174 0 -299 -126 -347 -273c253 11 488 96 488 189c0 34 -31 84 -141 84zM1055 -159c38 0 65 -35 65 -85c0 -51 -61 -144 -106 -144c-15 0 -25 13 -31 29c25 26 41 43 46 70c-30 14 -43 40 -43 65c0 43 32 65 69 65z
" />
    <glyph glyph-name="Gdotaccent.salt" horiz-adv-x="1513" 
d="M1077 852c-44 0 -66 31 -66 62c0 43 32 69 71 69c44 0 65 -31 65 -63c0 -34 -26 -68 -70 -68zM1180 321c169 0 273 7 273 -120c0 -187 -224 -338 -457 -338c-267 0 -431 198 -431 423c0 15 1 29 2 43c-182 8 -539 53 -539 316c0 159 131 245 287 245
c203 0 274 -147 274 -218c0 -54 -40 -102 -123 -102c-17 0 -40 2 -56 5c10 21 12 42 12 62c0 87 -36 159 -125 159s-127 -73 -127 -141c0 -164 221 -226 413 -242c66 217 294 349 508 349c161 0 245 -75 245 -159c0 -154 -282 -256 -607 -273c-3 -18 -4 -37 -4 -56
c0 -161 96 -318 296 -318c186 0 328 137 328 225c0 51 -48 47 -131 36c-46 -6 -102 -22 -148 -22c-57 0 -84 24 -84 60c0 24 11 51 34 79c57 -19 108 -13 160 -13zM1094 682c-174 0 -299 -126 -347 -273c253 11 488 96 488 189c0 34 -31 84 -141 84z" />
    <glyph glyph-name="H.salt" horiz-adv-x="1434" 
d="M1388 707c0 -139 -52 -362 -52 -568c0 -87 8 -164 38 -225c-35 -9 -82 -15 -108 -12c-129 9 -82 203 -60 330c2 14 5 28 7 43c-33 8 -98 23 -162 27c-75 6 -143 -1 -200 -12c-8 -57 -16 -109 -20 -146c-9 -73 -16 -152 -16 -240c0 -25 2 -58 7 -82
c-74 6 -150 29 -150 133c0 81 25 176 45 293c-60 -26 -95 -53 -98 -57c-18 10 -30 29 -30 46c0 35 61 76 144 111c13 85 20 157 20 209c0 82 -30 145 -99 145c-179 0 -435 -217 -435 -433c0 -101 74 -202 180 -216c-5 -91 -80 -124 -146 -124c-140 0 -222 154 -222 264
c0 345 398 608 692 608c121 0 162 -78 162 -185c0 -49 -9 -135 -21 -225c67 18 135 29 188 29s135 -7 153 -24c9 -7 17 -15 23 -23c8 57 17 120 25 197c4 38 8 65 8 89c0 37 -9 70 -38 132c19 32 52 50 87 50c59 0 78 -53 78 -134z" />
    <glyph glyph-name="Hbar.salt" horiz-adv-x="1434" 
d="M1381 598c33 -10 53 -24 53 -44c0 -14 -10 -39 -34 -53c-9 2 -20 3 -30 5c-15 -114 -34 -244 -34 -367c0 -87 8 -164 38 -225c-35 -9 -82 -15 -108 -12c-129 9 -82 203 -60 330c2 14 5 28 7 43c-33 8 -98 23 -162 27c-75 6 -143 -1 -200 -12c-8 -57 -16 -109 -20 -146
c-9 -73 -16 -152 -16 -240c0 -25 2 -58 7 -82c-74 6 -150 29 -150 133c0 81 25 176 45 293c-60 -26 -95 -53 -98 -57c-18 10 -30 29 -30 46c0 35 61 76 144 111c10 69 17 128 19 176c-62 3 -87 14 -87 45c0 10 11 27 20 38c23 -1 44 -2 64 -1c-10 57 -41 96 -95 96
c-179 0 -435 -217 -435 -433c0 -101 74 -202 180 -216c-5 -91 -80 -124 -146 -124c-140 0 -222 154 -222 264c0 345 398 608 692 608c121 0 162 -78 162 -185v-2c47 2 107 5 189 5c62 0 127 0 184 -4c2 17 3 31 3 44c0 37 -9 70 -38 132c19 32 52 50 87 50
c59 0 78 -53 78 -134c0 -32 -3 -69 -7 -109zM1228 373c6 43 13 91 19 145c-72 5 -146 7 -195 7c-68 0 -125 -1 -172 -2c-4 -40 -10 -85 -16 -132c67 18 135 29 188 29s135 -7 153 -24c9 -7 17 -15 23 -23z" />
    <glyph glyph-name="I.salt" horiz-adv-x="1688" 
d="M1754 789c5 -24 3 -50 -7 -77s-41 -71 -120 -71c-91 0 -145 5 -215 9c0 -7 -1 -15 -2 -23c-8 -49 -30 -257 -32 -340c-4 -141 2 -255 23 -341c29 -2 56 -2 82 -1c79 3 116 8 136 28c52 -25 77 -122 -66 -131c-84 -6 -217 9 -293 8c-100 0 -153 -10 -213 -25
c-50 40 -52 132 51 134c63 1 120 -1 171 -5c-4 12 -7 25 -9 40c-11 66 -5 345 15 500c8 63 16 130 17 165c-31 3 -64 5 -94 5c-32 0 -62 -2 -89 -8c15 -22 23 -48 23 -76c0 -61 -34 -113 -100 -113c-50 0 -98 31 -98 95c0 39 13 72 36 99c-52 20 -113 32 -152 32
c-180 0 -340 -129 -528 -129c-133 0 -266 78 -266 192c0 47 17 82 52 124c35 -71 199 -127 300 -127c123 0 277 35 416 35c90 0 186 -24 253 -69c66 35 152 51 231 54c33 2 79 2 116 2c91 0 215 -5 244 -5c69 0 86 7 118 19zM1073 570c0 20 -13 38 -34 54
c-16 -15 -25 -36 -25 -63c0 -11 7 -29 28 -29c20 0 31 19 31 38z" />
    <glyph glyph-name="Iacute.salt" horiz-adv-x="1688" 
d="M1540 1031c0 -58 -107 -201 -179 -201c-17 0 -35 13 -49 25c82 96 93 161 102 188c19 12 41 18 65 18c30 0 61 -9 61 -30zM1754 789c5 -24 3 -50 -7 -77s-41 -71 -120 -71c-91 0 -145 5 -215 9c0 -7 -1 -15 -2 -23c-8 -49 -30 -257 -32 -340c-4 -141 2 -255 23 -341
c29 -2 56 -2 82 -1c79 3 116 8 136 28c52 -25 77 -122 -66 -131c-84 -6 -217 9 -293 8c-100 0 -153 -10 -213 -25c-50 40 -52 132 51 134c63 1 120 -1 171 -5c-4 12 -7 25 -9 40c-11 66 -5 345 15 500c8 63 16 130 17 165c-31 3 -64 5 -94 5c-32 0 -62 -2 -89 -8
c15 -22 23 -48 23 -76c0 -61 -34 -113 -100 -113c-50 0 -98 31 -98 95c0 39 13 72 36 99c-52 20 -113 32 -152 32c-180 0 -340 -129 -528 -129c-133 0 -266 78 -266 192c0 47 17 82 52 124c35 -71 199 -127 300 -127c123 0 277 35 416 35c90 0 186 -24 253 -69
c66 35 152 51 231 54c33 2 79 2 116 2c91 0 215 -5 244 -5c69 0 86 7 118 19zM1073 570c0 20 -13 38 -34 54c-16 -15 -25 -36 -25 -63c0 -11 7 -29 28 -29c20 0 31 19 31 38z" />
    <glyph glyph-name="Icircumflex.salt" horiz-adv-x="1688" 
d="M1247 829c-25 0 -40 23 -52 46c108 126 162 181 201 181s91 -52 201 -181c-12 -23 -27 -46 -52 -46c-46 0 -113 79 -149 133c-34 -54 -100 -133 -149 -133zM1754 789c5 -24 3 -50 -7 -77s-41 -71 -120 -71c-91 0 -145 5 -215 9c0 -7 -1 -15 -2 -23
c-8 -49 -30 -257 -32 -340c-4 -141 2 -255 23 -341c29 -2 56 -2 82 -1c79 3 116 8 136 28c52 -25 77 -122 -66 -131c-84 -6 -217 9 -293 8c-100 0 -153 -10 -213 -25c-50 40 -52 132 51 134c63 1 120 -1 171 -5c-4 12 -7 25 -9 40c-11 66 -5 345 15 500c8 63 16 130 17 165
c-31 3 -64 5 -94 5c-32 0 -62 -2 -89 -8c15 -22 23 -48 23 -76c0 -61 -34 -113 -100 -113c-50 0 -98 31 -98 95c0 39 13 72 36 99c-52 20 -113 32 -152 32c-180 0 -340 -129 -528 -129c-133 0 -266 78 -266 192c0 47 17 82 52 124c35 -71 199 -127 300 -127
c123 0 277 35 416 35c90 0 186 -24 253 -69c66 35 152 51 231 54c33 2 79 2 116 2c91 0 215 -5 244 -5c69 0 86 7 118 19zM1073 570c0 20 -13 38 -34 54c-16 -15 -25 -36 -25 -63c0 -11 7 -29 28 -29c20 0 31 19 31 38z" />
    <glyph glyph-name="Idieresis.salt" horiz-adv-x="1688" 
d="M1291 850c-48 0 -68 34 -68 68c0 47 35 75 77 75c48 0 72 -34 72 -69c0 -37 -26 -74 -81 -74zM1487 850c-48 0 -68 34 -68 68c0 47 35 75 77 75c48 0 72 -34 72 -69c0 -37 -26 -74 -81 -74zM1754 789c5 -24 3 -50 -7 -77s-41 -71 -120 -71c-91 0 -145 5 -215 9
c0 -7 -1 -15 -2 -23c-8 -49 -30 -257 -32 -340c-4 -141 2 -255 23 -341c29 -2 56 -2 82 -1c79 3 116 8 136 28c52 -25 77 -122 -66 -131c-84 -6 -217 9 -293 8c-100 0 -153 -10 -213 -25c-50 40 -52 132 51 134c63 1 120 -1 171 -5c-4 12 -7 25 -9 40c-11 66 -5 345 15 500
c8 63 16 130 17 165c-31 3 -64 5 -94 5c-32 0 -62 -2 -89 -8c15 -22 23 -48 23 -76c0 -61 -34 -113 -100 -113c-50 0 -98 31 -98 95c0 39 13 72 36 99c-52 20 -113 32 -152 32c-180 0 -340 -129 -528 -129c-133 0 -266 78 -266 192c0 47 17 82 52 124
c35 -71 199 -127 300 -127c123 0 277 35 416 35c90 0 186 -24 253 -69c66 35 152 51 231 54c33 2 79 2 116 2c91 0 215 -5 244 -5c69 0 86 7 118 19zM1073 570c0 20 -13 38 -34 54c-16 -15 -25 -36 -25 -63c0 -11 7 -29 28 -29c20 0 31 19 31 38z" />
    <glyph glyph-name="Idotaccent.salt" horiz-adv-x="1688" 
d="M1395 852c-44 0 -66 31 -66 62c0 43 32 69 71 69c44 0 65 -31 65 -63c0 -34 -26 -68 -70 -68zM1754 789c5 -24 3 -50 -7 -77s-41 -71 -120 -71c-91 0 -145 5 -215 9c0 -7 -1 -15 -2 -23c-8 -49 -30 -257 -32 -340c-4 -141 2 -255 23 -341c29 -2 56 -2 82 -1
c79 3 116 8 136 28c52 -25 77 -122 -66 -131c-84 -6 -217 9 -293 8c-100 0 -153 -10 -213 -25c-50 40 -52 132 51 134c63 1 120 -1 171 -5c-4 12 -7 25 -9 40c-11 66 -5 345 15 500c8 63 16 130 17 165c-31 3 -64 5 -94 5c-32 0 -62 -2 -89 -8c15 -22 23 -48 23 -76
c0 -61 -34 -113 -100 -113c-50 0 -98 31 -98 95c0 39 13 72 36 99c-52 20 -113 32 -152 32c-180 0 -340 -129 -528 -129c-133 0 -266 78 -266 192c0 47 17 82 52 124c35 -71 199 -127 300 -127c123 0 277 35 416 35c90 0 186 -24 253 -69c66 35 152 51 231 54
c33 2 79 2 116 2c91 0 215 -5 244 -5c69 0 86 7 118 19zM1073 570c0 20 -13 38 -34 54c-16 -15 -25 -36 -25 -63c0 -11 7 -29 28 -29c20 0 31 19 31 38z" />
    <glyph glyph-name="Igrave.salt" horiz-adv-x="1688" 
d="M1456 830c-72 0 -179 143 -179 201c0 21 31 30 61 30c24 0 46 -6 65 -18c9 -27 20 -92 102 -188c-14 -12 -32 -25 -49 -25zM1754 789c5 -24 3 -50 -7 -77s-41 -71 -120 -71c-91 0 -145 5 -215 9c0 -7 -1 -15 -2 -23c-8 -49 -30 -257 -32 -340c-4 -141 2 -255 23 -341
c29 -2 56 -2 82 -1c79 3 116 8 136 28c52 -25 77 -122 -66 -131c-84 -6 -217 9 -293 8c-100 0 -153 -10 -213 -25c-50 40 -52 132 51 134c63 1 120 -1 171 -5c-4 12 -7 25 -9 40c-11 66 -5 345 15 500c8 63 16 130 17 165c-31 3 -64 5 -94 5c-32 0 -62 -2 -89 -8
c15 -22 23 -48 23 -76c0 -61 -34 -113 -100 -113c-50 0 -98 31 -98 95c0 39 13 72 36 99c-52 20 -113 32 -152 32c-180 0 -340 -129 -528 -129c-133 0 -266 78 -266 192c0 47 17 82 52 124c35 -71 199 -127 300 -127c123 0 277 35 416 35c90 0 186 -24 253 -69
c66 35 152 51 231 54c33 2 79 2 116 2c91 0 215 -5 244 -5c69 0 86 7 118 19zM1073 570c0 20 -13 38 -34 54c-16 -15 -25 -36 -25 -63c0 -11 7 -29 28 -29c20 0 31 19 31 38z" />
    <glyph glyph-name="Imacron.salt" horiz-adv-x="1688" 
d="M1309 831c-78 0 -110 11 -110 56c0 12 5 27 9 33c47 -3 153 -2 199 -2c42 0 83 4 116 4c42 0 70 -6 70 -39c0 -15 -6 -39 -17 -53c-29 4 -52 6 -81 6c-23 0 -50 -1 -86 -2c-39 -2 -72 -3 -100 -3zM1754 789c5 -24 3 -50 -7 -77s-41 -71 -120 -71c-91 0 -145 5 -215 9
c0 -7 -1 -15 -2 -23c-8 -49 -30 -257 -32 -340c-4 -141 2 -255 23 -341c29 -2 56 -2 82 -1c79 3 116 8 136 28c52 -25 77 -122 -66 -131c-84 -6 -217 9 -293 8c-100 0 -153 -10 -213 -25c-50 40 -52 132 51 134c63 1 120 -1 171 -5c-4 12 -7 25 -9 40c-11 66 -5 345 15 500
c8 63 16 130 17 165c-31 3 -64 5 -94 5c-32 0 -62 -2 -89 -8c15 -22 23 -48 23 -76c0 -61 -34 -113 -100 -113c-50 0 -98 31 -98 95c0 39 13 72 36 99c-52 20 -113 32 -152 32c-180 0 -340 -129 -528 -129c-133 0 -266 78 -266 192c0 47 17 82 52 124
c35 -71 199 -127 300 -127c123 0 277 35 416 35c90 0 186 -24 253 -69c66 35 152 51 231 54c33 2 79 2 116 2c91 0 215 -5 244 -5c69 0 86 7 118 19zM1073 570c0 20 -13 38 -34 54c-16 -15 -25 -36 -25 -63c0 -11 7 -29 28 -29c20 0 31 19 31 38z" />
    <glyph glyph-name="Iogonek.salt" horiz-adv-x="1688" 
d="M1754 789c5 -24 3 -50 -7 -77s-41 -71 -120 -71c-91 0 -145 5 -215 9c0 -7 -1 -15 -2 -23c-8 -49 -30 -257 -32 -340c-4 -141 2 -255 23 -341c29 -2 56 -2 82 -1c79 3 116 8 136 28c52 -25 77 -122 -66 -131c-49 -4 -115 0 -176 4c-27 -29 -41 -53 -41 -73
c0 -26 14 -38 34 -38c16 0 36 8 55 22c18 -7 24 -22 24 -35c0 -38 -52 -63 -95 -63c-60 0 -118 35 -118 101c0 39 20 69 44 90h-20c-100 0 -153 -10 -213 -25c-50 40 -52 132 51 134c63 1 120 -1 171 -5c-4 12 -7 25 -9 40c-11 66 -5 345 15 500c8 63 16 130 17 165
c-31 3 -64 5 -94 5c-32 0 -62 -2 -89 -8c15 -22 23 -48 23 -76c0 -61 -34 -113 -100 -113c-50 0 -98 31 -98 95c0 39 13 72 36 99c-52 20 -113 32 -152 32c-180 0 -340 -129 -528 -129c-133 0 -266 78 -266 192c0 47 17 82 52 124c35 -71 199 -127 300 -127
c123 0 277 35 416 35c90 0 186 -24 253 -69c66 35 152 51 231 54c33 2 79 2 116 2c91 0 215 -5 244 -5c69 0 86 7 118 19zM1073 570c0 20 -13 38 -34 54c-16 -15 -25 -36 -25 -63c0 -11 7 -29 28 -29c20 0 31 19 31 38z" />
    <glyph glyph-name="J.salt" horiz-adv-x="1722" 
d="M1700 731c-9 -14 -23 -46 -63 -72c-15 -31 -21 -69 -21 -131c0 -105 16 -277 16 -349c0 -273 -228 -381 -396 -381c-159 0 -329 96 -329 204c0 53 41 73 73 98c53 -77 164 -183 296 -183c120 0 244 87 244 301c0 79 -17 228 -17 311c0 34 3 64 8 92c-10 -1 -20 -1 -31 -1
c-89 0 -203 24 -277 24c-34 0 -67 -5 -95 -15c18 -26 29 -55 29 -88c0 -59 -34 -111 -101 -111c-49 0 -97 27 -97 103c0 35 11 67 29 94c-51 19 -110 29 -155 29c-157 0 -338 -129 -516 -129c-136 0 -268 76 -268 195c0 43 17 79 52 121c36 -70 189 -127 311 -127
c95 0 280 35 397 35c91 0 182 -21 248 -60c51 30 118 47 188 47c99 0 161 -34 258 -34c21 0 40 2 58 5c22 40 52 62 86 62c30 0 64 -17 73 -40zM1046 495c22 0 32 20 32 38c0 21 -14 40 -35 56c-15 -16 -24 -35 -24 -58c0 -20 7 -36 27 -36z" />
    <glyph glyph-name="K.salt" horiz-adv-x="1616" 
d="M1273 384c56 -173 212 -334 377 -384c-28 -74 -69 -101 -112 -102c-62 -2 -278 165 -355 422c-52 -41 -88 -87 -98 -154c1 -151 21 -218 35 -256c-19 -7 -67 -15 -100 -9c-79 15 -73 87 -73 241c0 215 43 431 43 554c0 5 0 13 -1 21c-277 -90 -505 -58 -674 -139
c-97 -47 -145 -158 -145 -255c0 -117 98 -236 217 -236c67 0 165 44 165 177c0 45 -13 90 -32 126c29 14 57 21 81 21c81 0 127 -69 127 -144c0 -147 -121 -284 -340 -284c-191 0 -353 135 -353 352c0 147 89 278 219 344c222 112 466 57 722 145h3c112 12 139 -51 139 -122
c0 -72 -14 -208 -24 -339c35 41 83 88 139 126c148 99 254 224 289 289c42 -9 97 -42 97 -95c0 -21 -20 -60 -56 -95c-41 -39 -108 -81 -223 -160c-23 -16 -46 -30 -67 -44z" />
    <glyph glyph-name="Kcommaaccent.salt" horiz-adv-x="1616" 
d="M1273 384c56 -173 212 -334 377 -384c-28 -74 -69 -101 -112 -102c-62 -2 -278 165 -355 422c-52 -41 -88 -87 -98 -154c1 -151 21 -218 35 -256c-19 -7 -67 -15 -100 -9c-79 15 -73 87 -73 241c0 215 43 431 43 554c0 5 0 13 -1 21c-277 -90 -505 -58 -674 -139
c-97 -47 -145 -158 -145 -255c0 -117 98 -236 217 -236c67 0 165 44 165 177c0 45 -13 90 -32 126c29 14 57 21 81 21c81 0 127 -69 127 -144c0 -147 -121 -284 -340 -284c-191 0 -353 135 -353 352c0 147 89 278 219 344c222 112 466 57 722 145h3c112 12 139 -51 139 -122
c0 -72 -14 -208 -24 -339c35 41 83 88 139 126c148 99 254 224 289 289c42 -9 97 -42 97 -95c0 -21 -20 -60 -56 -95c-41 -39 -108 -81 -223 -160c-23 -16 -46 -30 -67 -44zM1283 -117c38 0 65 -35 65 -85c0 -51 -61 -144 -106 -144c-15 0 -25 13 -31 29c25 26 41 43 46 70
c-30 14 -43 40 -43 65c0 43 32 65 69 65z" />
    <glyph glyph-name="L.salt" horiz-adv-x="1274" 
d="M1232 -85c31 -32 48 -67 48 -95c0 -52 -50 -91 -160 -91c-156 0 -338 104 -475 127c-28 -38 -60 -56 -106 -56c-61 0 -101 35 -97 106c39 9 79 14 122 15c37 73 58 158 74 246c-41 -8 -83 -12 -124 -12c-220 0 -489 132 -489 387c0 131 92 221 191 221
c39 0 82 -16 116 -46c-80 -48 -132 -129 -132 -203c0 -128 95 -263 317 -263c45 0 92 6 137 17c38 263 54 520 287 520c56 0 124 -63 124 -183c2 -195 -139 -337 -314 -405c-18 -116 -39 -223 -77 -283c86 -10 191 -40 338 -40c79 0 149 14 220 38zM933 717
c-103 0 -136 -201 -166 -408c125 62 219 172 219 325c0 46 -21 83 -53 83z" />
    <glyph glyph-name="Lacute.salt" horiz-adv-x="1274" 
d="M1079 1010c0 -58 -107 -201 -179 -201c-17 0 -35 13 -49 25c82 96 93 161 102 188c19 12 41 18 65 18c30 0 61 -9 61 -30zM1232 -85c31 -32 48 -67 48 -95c0 -52 -50 -91 -160 -91c-156 0 -338 104 -475 127c-28 -38 -60 -56 -106 -56c-61 0 -101 35 -97 106
c39 9 79 14 122 15c37 73 58 158 74 246c-41 -8 -83 -12 -124 -12c-220 0 -489 132 -489 387c0 131 92 221 191 221c39 0 82 -16 116 -46c-80 -48 -132 -129 -132 -203c0 -128 95 -263 317 -263c45 0 92 6 137 17c38 263 54 520 287 520c56 0 124 -63 124 -183
c2 -195 -139 -337 -314 -405c-18 -116 -39 -223 -77 -283c86 -10 191 -40 338 -40c79 0 149 14 220 38zM933 717c-103 0 -136 -201 -166 -408c125 62 219 172 219 325c0 46 -21 83 -53 83z" />
    <glyph glyph-name="Lcaron.salt" horiz-adv-x="1274" 
d="M1160 564c-16 0 -31 8 -43 26c53 76 60 149 63 186c38 16 108 17 108 -30c0 -71 -70 -182 -128 -182zM1012 -123c79 0 149 14 220 38c31 -32 48 -67 48 -95c0 -52 -50 -91 -160 -91c-156 0 -338 104 -475 127c-28 -38 -60 -56 -106 -56c-61 0 -101 35 -97 106
c39 9 79 14 122 15c37 73 58 158 74 246c-41 -8 -83 -12 -124 -12c-220 0 -489 132 -489 387c0 131 92 221 191 221c39 0 82 -16 116 -46c-80 -48 -132 -129 -132 -203c0 -128 95 -263 317 -263c45 0 92 6 137 17c38 263 54 520 287 520c56 0 124 -63 124 -183
c2 -195 -139 -337 -314 -405c-18 -116 -39 -223 -77 -283c86 -10 191 -40 338 -40zM933 717c-103 0 -136 -201 -166 -408c125 62 219 172 219 325c0 46 -21 83 -53 83z" />
    <glyph glyph-name="Lcommaaccent.salt" horiz-adv-x="1274" 
d="M1232 -85c31 -32 48 -67 48 -95c0 -52 -50 -91 -160 -91c-156 0 -338 104 -475 127c-28 -38 -60 -56 -106 -56c-61 0 -101 35 -97 106c39 9 79 14 122 15c37 73 58 158 74 246c-41 -8 -83 -12 -124 -12c-220 0 -489 132 -489 387c0 131 92 221 191 221
c39 0 82 -16 116 -46c-80 -48 -132 -129 -132 -203c0 -128 95 -263 317 -263c45 0 92 6 137 17c38 263 54 520 287 520c56 0 124 -63 124 -183c2 -195 -139 -337 -314 -405c-18 -116 -39 -223 -77 -283c86 -10 191 -40 338 -40c79 0 149 14 220 38zM933 717
c-103 0 -136 -201 -166 -408c125 62 219 172 219 325c0 46 -21 83 -53 83zM859 -240c38 0 65 -35 65 -85c0 -51 -61 -144 -106 -144c-15 0 -25 13 -31 29c25 26 41 43 46 70c-30 14 -43 40 -43 65c0 43 32 65 69 65z" />
    <glyph glyph-name="Lslash.salt" horiz-adv-x="820" 
d="M774 -85c31 -32 48 -67 48 -95c0 -52 -50 -91 -160 -91c-156 0 -338 104 -475 127c-28 -38 -60 -56 -106 -56c-61 0 -101 35 -97 106c39 9 79 14 122 15c24 49 42 103 56 160c-54 -4 -92 -6 -126 -18c-19 13 -33 36 -37 48c-12 54 85 61 183 68c3 17 6 33 8 50
c-31 -3 -64 -5 -96 -5c-220 0 -489 132 -489 387c0 131 92 221 191 221c39 0 82 -16 116 -46c-80 -48 -132 -129 -132 -203c0 -128 95 -263 317 -263c36 0 72 2 107 6c33 242 64 462 279 462c56 0 124 -63 124 -183c2 -203 -132 -313 -307 -357c-2 -20 -5 -40 -9 -60
c93 10 130 22 172 36c7 -8 12 -15 16 -23c14 -30 3 -55 -29 -73c-33 -19 -89 -30 -176 -38c-15 -71 -33 -133 -58 -173c86 -10 191 -40 338 -40c79 0 149 14 220 38zM475 717c-97 0 -131 -176 -160 -368c124 39 213 124 213 285c0 46 -21 83 -53 83z" />
    <glyph glyph-name="M.salt" horiz-adv-x="1704" 
d="M1621 223c0 -295 42 -303 69 -357c-29 -34 -72 -47 -103 -47c-80 0 -97 90 -97 183c0 132 34 333 34 421c0 22 0 65 -11 65c-37 0 -186 -513 -233 -547c-18 -24 -45 -44 -76 -44c-63 0 -127 79 -127 235c0 99 26 305 26 460c0 52 -3 61 -18 61c-73 0 -164 -228 -247 -437
c-84 -211 -202 -370 -430 -370s-383 158 -383 362c0 179 119 266 209 266c37 0 85 -15 119 -48c-96 -67 -140 -157 -140 -249c0 -103 56 -229 205 -229c132 0 210 100 300 317c62 150 210 505 366 505c146 0 117 -307 129 -581c3 -63 5 -109 18 -144
c212 545 246 609 303 609c55 0 93 -61 93 -178c0 -46 -6 -142 -6 -253z" />
    <glyph glyph-name="N.salt" horiz-adv-x="1314" 
d="M577 599c0 52 -5 90 -12 135c65 19 120 18 151 -11c26 -25 37 -70 44 -107c14 -76 123 -364 195 -480c45 -74 90 -134 118 -134c37 0 47 144 49 289c3 266 14 480 159 480c61 0 82 -68 82 -113c-48 -35 -90 -13 -109 -206c-22 -226 35 -556 -161 -582
c-210 -29 -385 579 -408 704c-17 -367 10 -853 -421 -853c-160 0 -251 104 -251 197c0 54 32 104 99 127c28 -87 80 -153 176 -153c253 0 289 460 289 707z" />
    <glyph glyph-name="Nacute.salt" horiz-adv-x="1314" 
d="M908 792c-17 0 -35 13 -49 25c82 96 93 161 102 188c19 12 41 18 65 18c30 0 61 -9 61 -30c0 -58 -107 -201 -179 -201zM577 599c0 52 -5 90 -12 135c65 19 120 18 151 -11c26 -25 37 -70 44 -107c14 -76 123 -364 195 -480c45 -74 90 -134 118 -134c37 0 47 144 49 289
c3 266 14 480 159 480c61 0 82 -68 82 -113c-48 -35 -90 -13 -109 -206c-22 -226 35 -556 -161 -582c-210 -29 -385 579 -408 704c-17 -367 10 -853 -421 -853c-160 0 -251 104 -251 197c0 54 32 104 99 127c28 -87 80 -153 176 -153c253 0 289 460 289 707z" />
    <glyph glyph-name="Ncaron.salt" horiz-adv-x="1314" 
d="M939 793c-39 0 -93 55 -201 181c12 23 27 46 52 46c49 0 123 -79 157 -133c36 54 95 133 141 133c25 0 40 -23 52 -46c-110 -129 -162 -181 -201 -181zM577 599c0 52 -5 90 -12 135c65 19 120 18 151 -11c26 -25 37 -70 44 -107c14 -76 123 -364 195 -480
c45 -74 90 -134 118 -134c37 0 47 144 49 289c3 266 14 480 159 480c61 0 82 -68 82 -113c-48 -35 -90 -13 -109 -206c-22 -226 35 -556 -161 -582c-210 -29 -385 579 -408 704c-17 -367 10 -853 -421 -853c-160 0 -251 104 -251 197c0 54 32 104 99 127
c28 -87 80 -153 176 -153c253 0 289 460 289 707z" />
    <glyph glyph-name="Ncommaaccent.salt" horiz-adv-x="1314" 
d="M577 599c0 52 -5 90 -12 135c65 19 120 18 151 -11c26 -25 37 -70 44 -107c14 -76 123 -364 195 -480c45 -74 90 -134 118 -134c37 0 47 144 49 289c3 266 14 480 159 480c61 0 82 -68 82 -113c-48 -35 -90 -13 -109 -206c-22 -226 35 -556 -161 -582
c-210 -29 -385 579 -408 704c-17 -367 10 -853 -421 -853c-160 0 -251 104 -251 197c0 54 32 104 99 127c28 -87 80 -153 176 -153c253 0 289 460 289 707zM841 -410c-15 0 -25 13 -31 29c25 26 41 43 46 70c-30 14 -43 40 -43 65c0 43 32 65 69 65c38 0 65 -35 65 -85
c0 -51 -61 -144 -106 -144z" />
    <glyph glyph-name="Ntilde.salt" horiz-adv-x="1314" 
d="M1023 812c-64 0 -120 58 -156 58c-21 0 -45 -22 -57 -52c-40 0 -59 19 -59 45c0 47 56 97 112 97c66 0 119 -58 155 -58c27 0 46 33 57 52c40 0 60 -15 60 -39c0 -41 -50 -103 -112 -103zM577 599c0 52 -5 90 -12 135c65 19 120 18 151 -11c26 -25 37 -70 44 -107
c14 -76 123 -364 195 -480c45 -74 90 -134 118 -134c37 0 47 144 49 289c3 266 14 480 159 480c61 0 82 -68 82 -113c-48 -35 -90 -13 -109 -206c-22 -226 35 -556 -161 -582c-210 -29 -385 579 -408 704c-17 -367 10 -853 -421 -853c-160 0 -251 104 -251 197
c0 54 32 104 99 127c28 -87 80 -153 176 -153c253 0 289 460 289 707z" />
    <glyph glyph-name="O.salt" horiz-adv-x="1643" 
d="M1261 775c252 0 317 -268 317 -423c0 -339 -199 -503 -407 -503c-203 0 -387 138 -387 461c0 47 6 104 17 160c-210 -165 -637 -166 -637 -508c0 -128 82 -235 218 -235c81 0 181 69 181 173c0 87 -24 116 -64 156c36 32 73 47 106 47c87 0 131 -86 131 -171
c0 -143 -141 -294 -361 -294c-213 0 -339 153 -339 325c0 459 602 426 837 685c23 28 50 45 81 45c24 0 47 -12 61 -37c-62 -65 -97 -186 -97 -320c0 -269 109 -408 244 -408c143 0 277 138 277 422c0 185 -58 350 -186 350c-93 0 -145 -90 -145 -178
c0 -79 42 -156 134 -162c-9 -73 -52 -109 -98 -109c-94 0 -141 96 -141 204c0 147 85 320 258 320z" />
    <glyph glyph-name="Oacute.salt" horiz-adv-x="1643" 
d="M1322 1031c0 -58 -107 -201 -179 -201c-17 0 -35 13 -49 25c82 96 93 161 102 188c19 12 41 18 65 18c30 0 61 -9 61 -30zM1261 775c252 0 317 -268 317 -423c0 -339 -199 -503 -407 -503c-203 0 -387 138 -387 461c0 47 6 104 17 160c-210 -165 -637 -166 -637 -508
c0 -128 82 -235 218 -235c81 0 181 69 181 173c0 87 -24 116 -64 156c36 32 73 47 106 47c87 0 131 -86 131 -171c0 -143 -141 -294 -361 -294c-213 0 -339 153 -339 325c0 459 602 426 837 685c23 28 50 45 81 45c24 0 47 -12 61 -37c-62 -65 -97 -186 -97 -320
c0 -269 109 -408 244 -408c143 0 277 138 277 422c0 185 -58 350 -186 350c-93 0 -145 -90 -145 -178c0 -79 42 -156 134 -162c-9 -73 -52 -109 -98 -109c-94 0 -141 96 -141 204c0 147 85 320 258 320z" />
    <glyph glyph-name="Ocircumflex.salt" horiz-adv-x="1643" 
d="M1029 829c-25 0 -40 23 -52 46c108 126 162 181 201 181s91 -52 201 -181c-12 -23 -27 -46 -52 -46c-46 0 -113 79 -149 133c-34 -54 -100 -133 -149 -133zM1261 775c252 0 317 -268 317 -423c0 -339 -199 -503 -407 -503c-203 0 -387 138 -387 461c0 47 6 104 17 160
c-210 -165 -637 -166 -637 -508c0 -128 82 -235 218 -235c81 0 181 69 181 173c0 87 -24 116 -64 156c36 32 73 47 106 47c87 0 131 -86 131 -171c0 -143 -141 -294 -361 -294c-213 0 -339 153 -339 325c0 459 602 426 837 685c23 28 50 45 81 45c24 0 47 -12 61 -37
c-62 -65 -97 -186 -97 -320c0 -269 109 -408 244 -408c143 0 277 138 277 422c0 185 -58 350 -186 350c-93 0 -145 -90 -145 -178c0 -79 42 -156 134 -162c-9 -73 -52 -109 -98 -109c-94 0 -141 96 -141 204c0 147 85 320 258 320z" />
    <glyph glyph-name="Odieresis.salt" horiz-adv-x="1643" 
d="M1073 850c-48 0 -68 34 -68 68c0 47 35 75 77 75c48 0 72 -34 72 -69c0 -37 -26 -74 -81 -74zM1269 850c-48 0 -68 34 -68 68c0 47 35 75 77 75c48 0 72 -34 72 -69c0 -37 -26 -74 -81 -74zM1261 775c252 0 317 -268 317 -423c0 -339 -199 -503 -407 -503
c-203 0 -387 138 -387 461c0 47 6 104 17 160c-210 -165 -637 -166 -637 -508c0 -128 82 -235 218 -235c81 0 181 69 181 173c0 87 -24 116 -64 156c36 32 73 47 106 47c87 0 131 -86 131 -171c0 -143 -141 -294 -361 -294c-213 0 -339 153 -339 325c0 459 602 426 837 685
c23 28 50 45 81 45c24 0 47 -12 61 -37c-62 -65 -97 -186 -97 -320c0 -269 109 -408 244 -408c143 0 277 138 277 422c0 185 -58 350 -186 350c-93 0 -145 -90 -145 -178c0 -79 42 -156 134 -162c-9 -73 -52 -109 -98 -109c-94 0 -141 96 -141 204c0 147 85 320 258 320z
" />
    <glyph glyph-name="Ograve.salt" horiz-adv-x="1643" 
d="M1238 830c-72 0 -179 143 -179 201c0 21 31 30 61 30c24 0 46 -6 65 -18c9 -27 20 -92 102 -188c-14 -12 -32 -25 -49 -25zM1261 775c252 0 317 -268 317 -423c0 -339 -199 -503 -407 -503c-203 0 -387 138 -387 461c0 47 6 104 17 160c-210 -165 -637 -166 -637 -508
c0 -128 82 -235 218 -235c81 0 181 69 181 173c0 87 -24 116 -64 156c36 32 73 47 106 47c87 0 131 -86 131 -171c0 -143 -141 -294 -361 -294c-213 0 -339 153 -339 325c0 459 602 426 837 685c23 28 50 45 81 45c24 0 47 -12 61 -37c-62 -65 -97 -186 -97 -320
c0 -269 109 -408 244 -408c143 0 277 138 277 422c0 185 -58 350 -186 350c-93 0 -145 -90 -145 -178c0 -79 42 -156 134 -162c-9 -73 -52 -109 -98 -109c-94 0 -141 96 -141 204c0 147 85 320 258 320z" />
    <glyph glyph-name="Ohungarumlaut.salt" horiz-adv-x="1643" 
d="M1258 832c-17 0 -35 13 -49 25c82 96 93 161 102 188c19 12 41 18 65 18c30 0 61 -9 61 -30c0 -58 -107 -201 -179 -201zM1246 1030c0 -58 -107 -201 -179 -201c-17 0 -35 13 -49 25c82 96 93 161 102 188c19 12 41 18 65 18c30 0 61 -9 61 -30zM1261 775
c252 0 317 -268 317 -423c0 -339 -199 -503 -407 -503c-203 0 -387 138 -387 461c0 47 6 104 17 160c-210 -165 -637 -166 -637 -508c0 -128 82 -235 218 -235c81 0 181 69 181 173c0 87 -24 116 -64 156c36 32 73 47 106 47c87 0 131 -86 131 -171
c0 -143 -141 -294 -361 -294c-213 0 -339 153 -339 325c0 459 602 426 837 685c23 28 50 45 81 45c24 0 47 -12 61 -37c-62 -65 -97 -186 -97 -320c0 -269 109 -408 244 -408c143 0 277 138 277 422c0 185 -58 350 -186 350c-93 0 -145 -90 -145 -178
c0 -79 42 -156 134 -162c-9 -73 -52 -109 -98 -109c-94 0 -141 96 -141 204c0 147 85 320 258 320z" />
    <glyph glyph-name="Omacron.salt" horiz-adv-x="1643" 
d="M1091 831c-78 0 -110 11 -110 56c0 12 5 27 9 33c47 -3 153 -2 199 -2c42 0 83 4 116 4c42 0 70 -6 70 -39c0 -15 -6 -39 -17 -53c-29 4 -52 6 -81 6c-23 0 -50 -1 -86 -2c-39 -2 -72 -3 -100 -3zM1261 775c252 0 317 -268 317 -423c0 -339 -199 -503 -407 -503
c-203 0 -387 138 -387 461c0 47 6 104 17 160c-210 -165 -637 -166 -637 -508c0 -128 82 -235 218 -235c81 0 181 69 181 173c0 87 -24 116 -64 156c36 32 73 47 106 47c87 0 131 -86 131 -171c0 -143 -141 -294 -361 -294c-213 0 -339 153 -339 325c0 459 602 426 837 685
c23 28 50 45 81 45c24 0 47 -12 61 -37c-62 -65 -97 -186 -97 -320c0 -269 109 -408 244 -408c143 0 277 138 277 422c0 185 -58 350 -186 350c-93 0 -145 -90 -145 -178c0 -79 42 -156 134 -162c-9 -73 -52 -109 -98 -109c-94 0 -141 96 -141 204c0 147 85 320 258 320z
" />
    <glyph glyph-name="Oslash.salt" horiz-adv-x="1643" 
d="M1498 648c60 -90 80 -210 80 -296c0 -339 -199 -503 -407 -503c-70 0 -137 16 -196 51c-28 -40 -47 -67 -53 -77c-44 24 -74 46 -74 82c0 6 16 30 42 66c-65 75 -106 187 -106 339c0 47 6 104 17 160c-210 -165 -637 -166 -637 -508c0 -128 82 -235 218 -235
c81 0 181 69 181 173c0 87 -24 116 -64 156c36 32 73 47 106 47c87 0 131 -86 131 -171c0 -143 -141 -294 -361 -294c-213 0 -339 153 -339 325c0 459 602 426 837 685c23 28 50 45 81 45c24 0 47 -12 61 -37c-62 -65 -97 -186 -97 -320c0 -109 18 -196 48 -262
c40 54 87 117 136 184c-66 25 -99 107 -99 197c0 147 85 320 258 320c66 0 119 -18 162 -48c18 28 31 50 36 60c40 -7 75 -32 81 -67c1 -3 -15 -30 -42 -72zM1253 700c-93 0 -145 -90 -145 -178c0 -60 25 -120 77 -147c67 95 132 190 182 265c-29 38 -67 60 -114 60z
M1162 -72c143 0 277 138 277 422c0 63 -7 124 -21 177c-60 -91 -136 -202 -210 -307c-63 -90 -125 -174 -175 -241c38 -34 82 -51 129 -51z" />
    <glyph glyph-name="Otilde.salt" horiz-adv-x="1643" 
d="M1045 856c-40 0 -59 19 -59 45c0 47 56 97 112 97c66 0 119 -58 155 -58c27 0 46 33 57 52c40 0 60 -15 60 -39c0 -41 -50 -103 -112 -103c-64 0 -120 58 -156 58c-21 0 -45 -22 -57 -52zM1261 775c252 0 317 -268 317 -423c0 -339 -199 -503 -407 -503
c-203 0 -387 138 -387 461c0 47 6 104 17 160c-210 -165 -637 -166 -637 -508c0 -128 82 -235 218 -235c81 0 181 69 181 173c0 87 -24 116 -64 156c36 32 73 47 106 47c87 0 131 -86 131 -171c0 -143 -141 -294 -361 -294c-213 0 -339 153 -339 325c0 459 602 426 837 685
c23 28 50 45 81 45c24 0 47 -12 61 -37c-62 -65 -97 -186 -97 -320c0 -269 109 -408 244 -408c143 0 277 138 277 422c0 185 -58 350 -186 350c-93 0 -145 -90 -145 -178c0 -79 42 -156 134 -162c-9 -73 -52 -109 -98 -109c-94 0 -141 96 -141 204c0 147 85 320 258 320z
" />
    <glyph glyph-name="P.salt" horiz-adv-x="1830" 
d="M1295 129h-17c-4 -36 -6 -75 -6 -119c0 -69 9 -133 36 -182c-33 -8 -77 -13 -101 -10c-64 4 -83 51 -83 109c0 47 14 127 30 213c-223 49 -493 255 -723 255c-108 0 -181 -77 -181 -179c0 -39 15 -79 56 -110c-33 -45 -76 -56 -110 -56c-109 0 -145 89 -145 173
c0 212 171 301 337 301c280 0 580 -238 782 -300c15 79 27 156 27 208c0 35 -3 81 -37 123c26 24 94 53 129 18c14 -12 29 -46 29 -82c0 -113 -17 -195 -31 -287h3c175 0 357 101 360 286v4c0 124 -112 221 -315 221c-131 0 -287 -64 -287 -164c0 -42 26 -60 53 -78
c-14 -34 -53 -51 -88 -51c-59 0 -100 50 -100 108c0 105 150 268 462 268c236 0 434 -119 434 -299c0 -179 -186 -370 -514 -370z" />
    <glyph glyph-name="Q.salt" horiz-adv-x="1493" 
d="M1574 -140c40 -135 -28 -191 -96 -191c-103 0 -276 153 -411 181c-9 -1 -18 -1 -27 -1c-211 0 -397 138 -403 461c0 27 1 57 5 87c-82 -64 -186 -97 -283 -97c-151 0 -321 64 -321 209c0 73 41 140 119 165c11 -68 95 -243 262 -243c104 0 211 49 274 154
c30 63 72 107 126 107c24 0 43 -12 53 -36c-62 -65 -109 -222 -106 -356c6 -269 123 -372 263 -372c184 0 273 221 269 422c-4 166 -53 320 -165 320c-71 0 -109 -73 -123 -123c-67 -5 -103 37 -103 88c0 65 69 136 188 136c238 0 333 -197 336 -426
c3 -184 -64 -370 -212 -452c70 -28 138 -64 244 -64c29 0 72 9 111 31z" />
    <glyph glyph-name="R.salt" horiz-adv-x="1772" 
d="M1592 122c128 -181 205 -252 266 -271c-18 -83 -66 -119 -115 -110c-99 22 -178 212 -250 327c-31 51 -61 103 -92 132c-48 -10 -99 -15 -155 -15h-12c-8 -52 -13 -108 -13 -175c0 -69 9 -133 36 -182c-33 -8 -76 -13 -101 -10c-119 7 -80 165 -59 268c6 35 13 70 20 110
c-219 47 -479 207 -706 207c-108 0 -181 -77 -181 -179c0 -39 15 -79 56 -110c-33 -45 -76 -56 -110 -56c-109 0 -145 89 -145 173c0 212 171 301 337 301c275 0 565 -204 762 -255c3 25 7 52 10 81c6 34 7 67 6 99c-1 45 -8 65 -36 98c26 24 93 53 128 18
c15 -12 29 -46 29 -82c0 -88 -10 -157 -21 -227c327 2 348 228 348 256c0 114 -110 203 -309 203c-128 0 -282 -59 -282 -150c0 -37 26 -55 53 -71c-15 -31 -62 -53 -96 -53c-65 0 -89 42 -89 87c0 115 148 262 453 262c232 0 426 -109 426 -274c0 -111 -84 -227 -238 -291
c26 -31 57 -78 80 -111z" />
    <glyph glyph-name="Racute.salt" horiz-adv-x="1772" 
d="M1488 1031c0 -58 -107 -201 -179 -201c-17 0 -35 13 -49 25c82 96 93 161 102 188c19 12 41 18 65 18c30 0 61 -9 61 -30zM1592 122c128 -181 205 -252 266 -271c-18 -83 -66 -119 -115 -110c-99 22 -178 212 -250 327c-31 51 -61 103 -92 132c-48 -10 -99 -15 -155 -15
h-12c-8 -52 -13 -108 -13 -175c0 -69 9 -133 36 -182c-33 -8 -76 -13 -101 -10c-119 7 -80 165 -59 268c6 35 13 70 20 110c-219 47 -479 207 -706 207c-108 0 -181 -77 -181 -179c0 -39 15 -79 56 -110c-33 -45 -76 -56 -110 -56c-109 0 -145 89 -145 173
c0 212 171 301 337 301c275 0 565 -204 762 -255c3 25 7 52 10 81c6 34 7 67 6 99c-1 45 -8 65 -36 98c26 24 93 53 128 18c15 -12 29 -46 29 -82c0 -88 -10 -157 -21 -227c327 2 348 228 348 256c0 114 -110 203 -309 203c-128 0 -282 -59 -282 -150c0 -37 26 -55 53 -71
c-15 -31 -62 -53 -96 -53c-65 0 -89 42 -89 87c0 115 148 262 453 262c232 0 426 -109 426 -274c0 -111 -84 -227 -238 -291c26 -31 57 -78 80 -111z" />
    <glyph glyph-name="Rcaron.salt" horiz-adv-x="1772" 
d="M1340 831c-39 0 -93 55 -201 181c12 23 27 46 52 46c49 0 123 -79 157 -133c36 54 95 133 141 133c25 0 40 -23 52 -46c-110 -129 -162 -181 -201 -181zM1592 122c128 -181 205 -252 266 -271c-18 -83 -66 -119 -115 -110c-99 22 -178 212 -250 327
c-31 51 -61 103 -92 132c-48 -10 -99 -15 -155 -15h-12c-8 -52 -13 -108 -13 -175c0 -69 9 -133 36 -182c-33 -8 -76 -13 -101 -10c-119 7 -80 165 -59 268c6 35 13 70 20 110c-219 47 -479 207 -706 207c-108 0 -181 -77 -181 -179c0 -39 15 -79 56 -110
c-33 -45 -76 -56 -110 -56c-109 0 -145 89 -145 173c0 212 171 301 337 301c275 0 565 -204 762 -255c3 25 7 52 10 81c6 34 7 67 6 99c-1 45 -8 65 -36 98c26 24 93 53 128 18c15 -12 29 -46 29 -82c0 -88 -10 -157 -21 -227c327 2 348 228 348 256
c0 114 -110 203 -309 203c-128 0 -282 -59 -282 -150c0 -37 26 -55 53 -71c-15 -31 -62 -53 -96 -53c-65 0 -89 42 -89 87c0 115 148 262 453 262c232 0 426 -109 426 -274c0 -111 -84 -227 -238 -291c26 -31 57 -78 80 -111z" />
    <glyph glyph-name="Rcommaaccent.salt" horiz-adv-x="1772" 
d="M1592 122c128 -181 205 -252 266 -271c-18 -83 -66 -119 -115 -110c-99 22 -178 212 -250 327c-31 51 -61 103 -92 132c-48 -10 -99 -15 -155 -15h-12c-8 -52 -13 -108 -13 -175c0 -69 9 -133 36 -182c-33 -8 -76 -13 -101 -10c-119 7 -80 165 -59 268c6 35 13 70 20 110
c-219 47 -479 207 -706 207c-108 0 -181 -77 -181 -179c0 -39 15 -79 56 -110c-33 -45 -76 -56 -110 -56c-109 0 -145 89 -145 173c0 212 171 301 337 301c275 0 565 -204 762 -255c3 25 7 52 10 81c6 34 7 67 6 99c-1 45 -8 65 -36 98c26 24 93 53 128 18
c15 -12 29 -46 29 -82c0 -88 -10 -157 -21 -227c327 2 348 228 348 256c0 114 -110 203 -309 203c-128 0 -282 -59 -282 -150c0 -37 26 -55 53 -71c-15 -31 -62 -53 -96 -53c-65 0 -89 42 -89 87c0 115 148 262 453 262c232 0 426 -109 426 -274c0 -111 -84 -227 -238 -291
c26 -31 57 -78 80 -111zM1412 -224c38 0 65 -35 65 -85c0 -51 -61 -144 -106 -144c-15 0 -25 13 -31 29c25 26 41 43 46 70c-30 14 -43 40 -43 65c0 43 32 65 69 65z" />
    <glyph glyph-name="S.salt" horiz-adv-x="1504" 
d="M1435 64c0 -165 -211 -258 -400 -258c-235 0 -455 145 -675 145c-175 0 -251 -91 -279 -131c-37 32 -57 76 -57 129c0 134 128 191 268 191c158 0 317 -72 452 -138c98 -48 207 -101 333 -101c130 0 226 67 226 139c0 92 -173 110 -332 163c-193 64 -276 151 -276 281
c0 206 209 299 412 299c166 0 360 -62 360 -153c0 -55 -72 -84 -113 -79c-8 33 -98 151 -263 151c-126 0 -265 -69 -265 -185c0 -101 107 -148 231 -189c172 -56 378 -101 378 -264z" />
    <glyph glyph-name="Sacute.salt" horiz-adv-x="1504" 
d="M1073 830c-17 0 -35 13 -49 25c82 96 93 161 102 188c19 12 41 18 65 18c30 0 61 -9 61 -30c0 -58 -107 -201 -179 -201zM1435 64c0 -165 -211 -258 -400 -258c-235 0 -455 145 -675 145c-175 0 -251 -91 -279 -131c-37 32 -57 76 -57 129c0 134 128 191 268 191
c158 0 317 -72 452 -138c98 -48 207 -101 333 -101c130 0 226 67 226 139c0 92 -173 110 -332 163c-193 64 -276 151 -276 281c0 206 209 299 412 299c166 0 360 -62 360 -153c0 -55 -72 -84 -113 -79c-8 33 -98 151 -263 151c-126 0 -265 -69 -265 -185
c0 -101 107 -148 231 -189c172 -56 378 -101 378 -264z" />
    <glyph glyph-name="Scaron.salt" horiz-adv-x="1504" 
d="M1104 831c-39 0 -93 55 -201 181c12 23 27 46 52 46c49 0 123 -79 157 -133c36 54 95 133 141 133c25 0 40 -23 52 -46c-110 -129 -162 -181 -201 -181zM1435 64c0 -165 -211 -258 -400 -258c-235 0 -455 145 -675 145c-175 0 -251 -91 -279 -131c-37 32 -57 76 -57 129
c0 134 128 191 268 191c158 0 317 -72 452 -138c98 -48 207 -101 333 -101c130 0 226 67 226 139c0 92 -173 110 -332 163c-193 64 -276 151 -276 281c0 206 209 299 412 299c166 0 360 -62 360 -153c0 -55 -72 -84 -113 -79c-8 33 -98 151 -263 151
c-126 0 -265 -69 -265 -185c0 -101 107 -148 231 -189c172 -56 378 -101 378 -264z" />
    <glyph glyph-name="Scedilla.salt" horiz-adv-x="1504" 
d="M1091 702c-126 0 -265 -69 -265 -185c0 -101 107 -148 231 -189c172 -56 378 -101 378 -264c0 -144 -160 -233 -326 -253l-18 -37c46 -9 85 -39 85 -93c0 -57 -55 -99 -126 -99c-34 0 -89 15 -89 57c0 17 18 33 30 33c10 -12 28 -18 42 -18c25 0 41 19 41 40
s-15 50 -50 50l-10 19l17 43c-233 2 -452 145 -671 145c-175 0 -251 -91 -279 -131c-37 32 -57 76 -57 129c0 134 128 191 268 191c158 0 317 -72 452 -138c98 -48 207 -101 333 -101c130 0 226 67 226 139c0 92 -173 110 -332 163c-193 64 -276 151 -276 281
c0 206 209 299 412 299c166 0 360 -62 360 -153c0 -55 -72 -84 -113 -79c-8 33 -98 151 -263 151z" />
    <glyph glyph-name="Scommaaccent.salt" horiz-adv-x="1504" 
d="M1435 64c0 -165 -211 -258 -400 -258c-235 0 -455 145 -675 145c-175 0 -251 -91 -279 -131c-37 32 -57 76 -57 129c0 134 128 191 268 191c158 0 317 -72 452 -138c98 -48 207 -101 333 -101c130 0 226 67 226 139c0 92 -173 110 -332 163c-193 64 -276 151 -276 281
c0 206 209 299 412 299c166 0 360 -62 360 -153c0 -55 -72 -84 -113 -79c-8 33 -98 151 -263 151c-126 0 -265 -69 -265 -185c0 -101 107 -148 231 -189c172 -56 378 -101 378 -264zM1098 -461c-15 0 -25 13 -31 29c25 26 41 43 46 70c-30 14 -43 40 -43 65
c0 43 32 65 69 65c38 0 65 -35 65 -85c0 -51 -61 -144 -106 -144z" />
    <glyph glyph-name="T.salt" horiz-adv-x="1178" 
d="M1403 874c44 -17 64 -43 64 -69c0 -74 -170 -75 -253 -75c-71 0 -110 1 -159 -1c-27 -120 -60 -341 -60 -541c0 -131 14 -253 56 -326c-19 -11 -65 -17 -91 -17c-52 0 -98 23 -112 103c-5 29 -8 75 -8 126c0 189 41 505 96 648c-282 -16 -485 -34 -605 -97
c-93 -49 -160 -147 -160 -252c0 -122 92 -231 210 -231c81 0 169 52 169 171c0 38 -9 83 -25 117c26 11 51 16 73 16c81 0 126 -68 126 -137c0 -102 -99 -269 -341 -269s-347 168 -347 341c0 181 116 295 240 355c231 112 568 74 1036 99c39 4 71 12 91 39z" />
    <glyph glyph-name="Tbar.salt" horiz-adv-x="1178" 
d="M1403 874c44 -17 64 -43 64 -69c0 -74 -170 -75 -253 -75c-71 0 -110 1 -159 -1c-11 -47 -22 -110 -32 -181c91 1 175 -1 175 -53c0 -14 -8 -41 -23 -55c-55 8 -94 9 -165 9c-9 -84 -15 -175 -15 -261c0 -131 14 -253 56 -326c-19 -11 -65 -17 -91 -17
c-52 0 -98 23 -112 103c-5 29 -8 75 -8 126c0 104 12 245 33 375c-115 2 -162 12 -162 61c0 10 7 29 13 40c51 -2 83 -3 166 -2c13 68 29 130 46 174c-282 -16 -485 -34 -605 -97c-93 -49 -160 -147 -160 -252c0 -122 92 -231 210 -231c81 0 169 52 169 171
c0 38 -9 83 -25 117c26 11 51 16 73 16c81 0 126 -68 126 -137c0 -102 -99 -269 -341 -269s-347 168 -347 341c0 181 116 295 240 355c231 112 568 74 1036 99c39 4 71 12 91 39z" />
    <glyph glyph-name="Tcaron.salt" horiz-adv-x="1178" 
d="M993 856c-39 0 -93 55 -201 181c12 23 27 46 52 46c49 0 123 -79 157 -133c36 54 95 133 141 133c25 0 40 -23 52 -46c-110 -129 -162 -181 -201 -181zM1403 874c44 -17 64 -43 64 -69c0 -74 -170 -75 -253 -75c-71 0 -110 1 -159 -1c-27 -120 -60 -341 -60 -541
c0 -131 14 -253 56 -326c-19 -11 -65 -17 -91 -17c-52 0 -98 23 -112 103c-5 29 -8 75 -8 126c0 189 41 505 96 648c-282 -16 -485 -34 -605 -97c-93 -49 -160 -147 -160 -252c0 -122 92 -231 210 -231c81 0 169 52 169 171c0 38 -9 83 -25 117c26 11 51 16 73 16
c81 0 126 -68 126 -137c0 -102 -99 -269 -341 -269s-347 168 -347 341c0 181 116 295 240 355c231 112 568 74 1036 99c39 4 71 12 91 39z" />
    <glyph glyph-name="uni0162.salt" horiz-adv-x="1178" 
d="M1403 874c44 -17 64 -43 64 -69c0 -74 -170 -75 -253 -75c-71 0 -110 1 -159 -1c-27 -120 -60 -341 -60 -541c0 -131 14 -253 56 -326c-17 -10 -57 -16 -84 -17l-12 -25c46 -9 85 -39 85 -93c0 -57 -55 -99 -126 -99c-34 0 -89 15 -89 57c0 17 18 33 30 33
c10 -12 28 -18 42 -18c25 0 41 19 41 40s-15 50 -50 50l-10 19l20 51c-24 15 -42 42 -50 88c-5 29 -8 75 -8 126c0 189 41 505 96 648c-282 -16 -485 -34 -605 -97c-93 -49 -160 -147 -160 -252c0 -122 92 -231 210 -231c81 0 169 52 169 171c0 38 -9 83 -25 117
c26 11 51 16 73 16c81 0 126 -68 126 -137c0 -102 -99 -269 -341 -269s-347 168 -347 341c0 181 116 295 240 355c231 112 568 74 1036 99c39 4 71 12 91 39z" />
    <glyph glyph-name="uni021A.salt" horiz-adv-x="1178" 
d="M1403 874c44 -17 64 -43 64 -69c0 -74 -170 -75 -253 -75c-71 0 -110 1 -159 -1c-27 -120 -60 -341 -60 -541c0 -131 14 -253 56 -326c-19 -11 -65 -17 -91 -17c-52 0 -98 23 -112 103c-5 29 -8 75 -8 126c0 189 41 505 96 648c-282 -16 -485 -34 -605 -97
c-93 -49 -160 -147 -160 -252c0 -122 92 -231 210 -231c81 0 169 52 169 171c0 38 -9 83 -25 117c26 11 51 16 73 16c81 0 126 -68 126 -137c0 -102 -99 -269 -341 -269s-347 168 -347 341c0 181 116 295 240 355c231 112 568 74 1036 99c39 4 71 12 91 39zM1003 -186
c38 0 65 -35 65 -85c0 -51 -61 -144 -106 -144c-15 0 -25 13 -31 29c25 26 41 43 46 70c-30 14 -43 40 -43 65c0 43 32 65 69 65z" />
    <glyph glyph-name="U.salt" horiz-adv-x="1552" 
d="M1439 322c0 -97 10 -304 86 -388c-31 -31 -61 -43 -105 -43c-35 0 -68 16 -88 59c-17 38 -27 102 -31 178c-79 -166 -206 -314 -327 -314c-125 0 -233 117 -222 396c5 124 21 246 29 350c-79 -148 -226 -274 -418 -274c-176 0 -315 102 -332 231c-12 92 58 142 137 167
c9 -147 83 -254 210 -259c119 0 316 98 385 302c20 31 60 45 101 45s78 -29 78 -101c0 -108 -51 -294 -56 -485c-5 -159 21 -252 96 -252c133 0 286 274 326 496c9 102 24 195 40 252c12 47 49 73 93 73c27 0 66 -13 77 -28c-22 -56 -79 -169 -79 -405z" />
    <glyph glyph-name="Uacute.salt" horiz-adv-x="1552" 
d="M1295 993c0 -58 -107 -201 -179 -201c-17 0 -35 13 -49 25c82 96 93 161 102 188c19 12 41 18 65 18c30 0 61 -9 61 -30zM1439 322c0 -97 10 -304 86 -388c-31 -31 -61 -43 -105 -43c-35 0 -68 16 -88 59c-17 38 -27 102 -31 178c-79 -166 -206 -314 -327 -314
c-125 0 -233 117 -222 396c5 124 21 246 29 350c-79 -148 -226 -274 -418 -274c-176 0 -315 102 -332 231c-12 92 58 142 137 167c9 -147 83 -254 210 -259c119 0 316 98 385 302c20 31 60 45 101 45s78 -29 78 -101c0 -108 -51 -294 -56 -485c-5 -159 21 -252 96 -252
c133 0 286 274 326 496c9 102 24 195 40 252c12 47 49 73 93 73c27 0 66 -13 77 -28c-22 -56 -79 -169 -79 -405z" />
    <glyph glyph-name="Ucircumflex.salt" horiz-adv-x="1552" 
d="M1002 791c-25 0 -40 23 -52 46c108 126 162 181 201 181s91 -52 201 -181c-12 -23 -27 -46 -52 -46c-46 0 -113 79 -149 133c-34 -54 -100 -133 -149 -133zM1439 322c0 -97 10 -304 86 -388c-31 -31 -61 -43 -105 -43c-35 0 -68 16 -88 59c-17 38 -27 102 -31 178
c-79 -166 -206 -314 -327 -314c-125 0 -233 117 -222 396c5 124 21 246 29 350c-79 -148 -226 -274 -418 -274c-176 0 -315 102 -332 231c-12 92 58 142 137 167c9 -147 83 -254 210 -259c119 0 316 98 385 302c20 31 60 45 101 45s78 -29 78 -101c0 -108 -51 -294 -56 -485
c-5 -159 21 -252 96 -252c133 0 286 274 326 496c9 102 24 195 40 252c12 47 49 73 93 73c27 0 66 -13 77 -28c-22 -56 -79 -169 -79 -405z" />
    <glyph glyph-name="Udieresis.salt" horiz-adv-x="1552" 
d="M1046 812c-48 0 -68 34 -68 68c0 47 35 75 77 75c48 0 72 -34 72 -69c0 -37 -26 -74 -81 -74zM1242 812c-48 0 -68 34 -68 68c0 47 35 75 77 75c48 0 72 -34 72 -69c0 -37 -26 -74 -81 -74zM1439 322c0 -97 10 -304 86 -388c-31 -31 -61 -43 -105 -43
c-35 0 -68 16 -88 59c-17 38 -27 102 -31 178c-79 -166 -206 -314 -327 -314c-125 0 -233 117 -222 396c5 124 21 246 29 350c-79 -148 -226 -274 -418 -274c-176 0 -315 102 -332 231c-12 92 58 142 137 167c9 -147 83 -254 210 -259c119 0 316 98 385 302
c20 31 60 45 101 45s78 -29 78 -101c0 -108 -51 -294 -56 -485c-5 -159 21 -252 96 -252c133 0 286 274 326 496c9 102 24 195 40 252c12 47 49 73 93 73c27 0 66 -13 77 -28c-22 -56 -79 -169 -79 -405z" />
    <glyph glyph-name="Ugrave.salt" horiz-adv-x="1552" 
d="M1211 792c-72 0 -179 143 -179 201c0 21 31 30 61 30c24 0 46 -6 65 -18c9 -27 20 -92 102 -188c-14 -12 -32 -25 -49 -25zM1439 322c0 -97 10 -304 86 -388c-31 -31 -61 -43 -105 -43c-35 0 -68 16 -88 59c-17 38 -27 102 -31 178c-79 -166 -206 -314 -327 -314
c-125 0 -233 117 -222 396c5 124 21 246 29 350c-79 -148 -226 -274 -418 -274c-176 0 -315 102 -332 231c-12 92 58 142 137 167c9 -147 83 -254 210 -259c119 0 316 98 385 302c20 31 60 45 101 45s78 -29 78 -101c0 -108 -51 -294 -56 -485c-5 -159 21 -252 96 -252
c133 0 286 274 326 496c9 102 24 195 40 252c12 47 49 73 93 73c27 0 66 -13 77 -28c-22 -56 -79 -169 -79 -405z" />
    <glyph glyph-name="Uhungarumlaut.salt" horiz-adv-x="1552" 
d="M1231 794c-17 0 -35 13 -49 25c82 96 93 161 102 188c19 12 41 18 65 18c30 0 61 -9 61 -30c0 -58 -107 -201 -179 -201zM1219 992c0 -58 -107 -201 -179 -201c-17 0 -35 13 -49 25c82 96 93 161 102 188c19 12 41 18 65 18c30 0 61 -9 61 -30zM1439 322
c0 -97 10 -304 86 -388c-31 -31 -61 -43 -105 -43c-35 0 -68 16 -88 59c-17 38 -27 102 -31 178c-79 -166 -206 -314 -327 -314c-125 0 -233 117 -222 396c5 124 21 246 29 350c-79 -148 -226 -274 -418 -274c-176 0 -315 102 -332 231c-12 92 58 142 137 167
c9 -147 83 -254 210 -259c119 0 316 98 385 302c20 31 60 45 101 45s78 -29 78 -101c0 -108 -51 -294 -56 -485c-5 -159 21 -252 96 -252c133 0 286 274 326 496c9 102 24 195 40 252c12 47 49 73 93 73c27 0 66 -13 77 -28c-22 -56 -79 -169 -79 -405z" />
    <glyph glyph-name="Umacron.salt" horiz-adv-x="1552" 
d="M1064 793c-78 0 -110 11 -110 56c0 12 5 27 9 33c47 -3 153 -2 199 -2c42 0 83 4 116 4c42 0 70 -6 70 -39c0 -15 -6 -39 -17 -53c-29 4 -52 6 -81 6c-23 0 -50 -1 -86 -2c-39 -2 -72 -3 -100 -3zM1439 322c0 -97 10 -304 86 -388c-31 -31 -61 -43 -105 -43
c-35 0 -68 16 -88 59c-17 38 -27 102 -31 178c-79 -166 -206 -314 -327 -314c-125 0 -233 117 -222 396c5 124 21 246 29 350c-79 -148 -226 -274 -418 -274c-176 0 -315 102 -332 231c-12 92 58 142 137 167c9 -147 83 -254 210 -259c119 0 316 98 385 302
c20 31 60 45 101 45s78 -29 78 -101c0 -108 -51 -294 -56 -485c-5 -159 21 -252 96 -252c133 0 286 274 326 496c9 102 24 195 40 252c12 47 49 73 93 73c27 0 66 -13 77 -28c-22 -56 -79 -169 -79 -405z" />
    <glyph glyph-name="Uogonek.salt" horiz-adv-x="1552" 
d="M1482 -217c18 -7 24 -22 24 -35c0 -38 -52 -63 -95 -63c-60 0 -118 35 -118 101c-1 60 47 96 82 116c-17 9 -32 24 -43 48c-17 38 -27 102 -31 178c-79 -166 -206 -314 -327 -314c-125 0 -233 117 -222 396c5 124 21 246 29 350c-79 -148 -226 -274 -418 -274
c-176 0 -315 102 -332 231c-12 92 58 142 137 167c9 -147 83 -254 210 -259c119 0 316 98 385 302c20 31 60 45 101 45s78 -29 78 -101c0 -108 -51 -294 -56 -485c-5 -159 21 -252 96 -252c133 0 286 274 326 496c9 102 24 195 40 252c12 47 49 73 93 73c27 0 66 -13 77 -28
c-22 -56 -79 -169 -79 -405c0 -97 10 -304 86 -388c-22 -22 -43 -34 -69 -40c-40 -39 -63 -70 -63 -95c0 -26 14 -38 34 -38c16 0 36 8 55 22z" />
    <glyph glyph-name="Uring.salt" horiz-adv-x="1552" 
d="M1148 802c-54 0 -108 34 -108 104c0 69 55 104 109 104s108 -34 108 -104c0 -69 -55 -104 -109 -104zM1149 961c-24 0 -37 -19 -37 -54c0 -37 12 -56 35 -56c24 0 37 19 37 56c0 35 -12 54 -35 54zM1439 322c0 -97 10 -304 86 -388c-31 -31 -61 -43 -105 -43
c-35 0 -68 16 -88 59c-17 38 -27 102 -31 178c-79 -166 -206 -314 -327 -314c-125 0 -233 117 -222 396c5 124 21 246 29 350c-79 -148 -226 -274 -418 -274c-176 0 -315 102 -332 231c-12 92 58 142 137 167c9 -147 83 -254 210 -259c119 0 316 98 385 302
c20 31 60 45 101 45s78 -29 78 -101c0 -108 -51 -294 -56 -485c-5 -159 21 -252 96 -252c133 0 286 274 326 496c9 102 24 195 40 252c12 47 49 73 93 73c27 0 66 -13 77 -28c-22 -56 -79 -169 -79 -405z" />
    <glyph glyph-name="V.salt" horiz-adv-x="1969" 
d="M1756 845c136 0 162 -203 162 -303c0 -349 -290 -729 -420 -729c-33 0 -114 80 -127 117c-36 125 -45 201 -101 392c-39 138 -75 211 -115 256c-33 -34 -88 -67 -155 -86c-163 -45 -338 -33 -499 -78c-160 -44 -236 -129 -236 -227c0 -75 58 -135 109 -184
c-66 -54 -111 -70 -161 -70c-96 0 -173 82 -173 232c0 177 159 297 336 346c243 67 627 13 726 167c14 25 39 36 73 36c183 0 238 -401 310 -712c5 -26 12 -43 36 -57c100 34 265 298 265 557c0 116 -30 229 -111 314c29 19 49 29 81 29z" />
    <glyph glyph-name="W.salt" horiz-adv-x="1920" 
d="M1001 -154c-91 0 -121 73 -132 149c-13 90 -13 224 -13 338c0 38 -3 89 -15 134c-106 -153 -255 -236 -425 -236c-187 0 -379 136 -379 293c0 106 79 149 181 154c2 -99 46 -319 258 -319c159 0 272 110 373 236c26 32 64 43 95 43c61 0 67 -88 67 -145
c0 -104 -29 -300 -29 -412c0 -58 18 -93 44 -93c53 0 132 201 132 515c0 98 112 134 139 134c36 0 45 -34 52 -73c28 -173 -6 -557 153 -557c17 0 192 37 195 457c0 105 -28 302 -71 393c29 6 56 9 80 9c120 0 149 -112 149 -330c-5 -220 -84 -656 -349 -656
c-223 0 -234 476 -273 536c-7 -86 -25 -202 -43 -289c-22 -137 -95 -281 -189 -281z" />
    </font>
</defs>
</svg>
